<?xml version="1.0" encoding="UTF-8"?>
<svg version="1.1" xmlns="http://www.w3.org/2000/svg" width="500" height="500">
<path d="M0 0 C15.39957744 11.81160506 24.33552447 27.71720664 32.08203125 45.18093872 C33.68655477 48.79746433 35.31321361 52.40403689 36.9375 56.01171875 C37.27056152 56.75284409 37.60362305 57.49396942 37.94677734 58.2575531 C42.11954995 67.52229614 46.46344751 76.70666684 50.8125 85.88964844 C51.3960569 87.12554551 51.97939347 88.36154663 52.5625 89.59765625 C52.84456299 90.19299164 53.12662598 90.78832703 53.41723633 91.40170288 C54.97867659 94.72434801 56.46506079 98.06762826 57.88671875 101.45263672 C58.19859131 102.18985458 58.51046387 102.92707245 58.83178711 103.68663025 C59.43212639 105.1148603 60.02320049 106.5470296 60.60375977 107.9834137 C61.32256397 109.69149872 62.15331542 111.35155857 63 113 C63.99 113.33 64.98 113.66 66 114 C66.16861542 113.45894119 66.33723083 112.91788239 66.51095581 112.36042786 C68.36195007 106.59722254 70.60751475 101.13370527 73.1328125 95.63671875 C73.52894745 94.76465286 73.9250824 93.89258698 74.33322144 92.99409485 C75.59293317 90.22328797 76.85876418 87.45533056 78.125 84.6875 C79.36316174 81.9697204 80.60005272 79.25136685 81.83636475 76.53274536 C82.65696283 74.73152507 83.48007204 72.93144662 84.3057251 71.13253784 C86.42047848 66.5176321 88.48829139 61.88920634 90.48339844 57.22119141 C90.88420624 56.29522659 91.28501404 55.36926178 91.69796753 54.41523743 C92.4612065 52.6473849 93.21269601 50.87440002 93.95071411 49.09587097 C94.29295013 48.30860123 94.63518616 47.52133148 94.98779297 46.71020508 C95.28104462 46.0155867 95.57429626 45.32096832 95.87643433 44.6053009 C97 43 97 43 99.12576294 42.26811218 C99.74426117 42.17963516 100.3627594 42.09115814 101 42 C101.176521 43.07483643 101.35304199 44.14967285 101.53491211 45.25708008 C102.19032001 49.24381776 102.84894513 53.23001835 103.50854492 57.21606445 C103.79360366 58.94150539 104.07778907 60.66709085 104.36108398 62.39282227 C104.76837459 64.87294386 105.17880045 67.35252921 105.58984375 69.83203125 C105.71592514 70.60400345 105.84200653 71.37597565 105.97190857 72.17134094 C106.47851256 75.21192112 107.02339965 78.07019894 108 81 C113.94954181 69.62357013 118.94485407 57.84207929 124.03564453 46.06494141 C129.0287776 34.52820937 134.23603976 23.17345761 140 12 C140.99 12 141.98 12 143 12 C144.17905424 19.27211738 145.35562911 26.5446338 146.53115845 33.81732178 C146.96890308 36.52467224 147.40740515 39.23189848 147.8465271 41.93902588 C150.60703907 58.95957252 153.31929156 75.98654072 155.95193291 93.02737045 C156.81007868 98.57427308 157.67449724 104.12020298 158.53856754 109.66618538 C159.3826371 115.0896999 160.21585283 120.51474562 161.04147339 125.94109726 C161.56684452 129.37638351 162.10257151 132.81000109 162.64085007 136.24328613 C162.88771304 137.83158078 163.13040293 139.42053136 163.36830521 141.01019287 C165.38904922 154.48949854 168.37386821 168.02033453 174.625 180.25 C174.95854492 180.90347412 175.29208984 181.55694824 175.63574219 182.23022461 C182.52333637 195.04358953 193.07145061 204.14079867 206.9375 208.875 C212.84600756 210.44610397 218.9148424 210.72340193 225 211 C225 212.32 225 213.64 225 215 C206.03853134 216.80121782 188.67069993 214.82557448 173 203 C155.56127748 188.23234942 148.64733286 167.01171174 145.578125 145.09375 C145.37001901 143.66221158 145.16119771 142.23077699 144.95172119 140.79943848 C144.28370937 136.20202747 143.63932565 131.60147713 143 127 C142.89156769 126.22124512 142.78313538 125.44249023 142.67141724 124.64013672 C140.76304189 110.9163842 138.91405132 97.18461241 137.07324219 83.45166016 C136.52635746 79.37368913 135.97543114 75.29628062 135.4220047 71.2191925 C135.21465416 69.68514159 135.00892305 68.15087086 134.80486298 66.61637878 C134.52440495 64.50739415 134.23887469 62.39915576 133.95214844 60.29101562 C133.7116275 58.49839294 133.7116275 58.49839294 133.46624756 56.66955566 C133.27882013 54.08718497 133.27882013 54.08718497 132 53 C129.32421562 58.99279953 126.65572531 64.98880803 123.9921875 70.98706055 C123.08597173 73.02556055 122.17811286 75.06333095 121.26855469 77.1003418 C119.95851842 80.0350237 118.65448993 82.97231253 117.3515625 85.91015625 C116.94628326 86.81459976 116.54100403 87.71904327 116.1234436 88.65089417 C115.74320038 89.51125778 115.36295715 90.3716214 114.97119141 91.25805664 C114.63809967 92.00640274 114.30500793 92.75474884 113.96182251 93.52577209 C111.68987283 99.37021973 110.72320098 103.70853897 111.70336914 109.95068359 C111.8023349 110.60714874 111.90130066 111.26361389 112.00326538 111.93997192 C112.33232291 114.09541129 112.68308372 116.24664731 113.03515625 118.3984375 C113.27365312 119.91696868 113.51113785 121.43565913 113.74766541 122.95449829 C114.24691044 126.13843194 114.75662593 129.32045572 115.27416992 132.50146484 C115.92851175 136.52689676 116.55968122 140.55552153 117.18305302 144.58585167 C117.67126345 147.72760803 118.17085999 150.86747659 118.67373466 154.00691605 C118.90997224 155.48839241 119.14321038 156.97035101 119.37306404 158.45283127 C122.64016558 179.39261759 127.85129726 202.48643111 145.8125 215.6875 C155.81189381 222.29952519 165.30356628 224.22740614 177 226 C177 226.99 177 227.98 177 229 C158.46497034 229.62278466 142.1987973 229.46925439 127.41015625 216.77734375 C109.2322673 199.52885063 104.83287303 177.49327833 101.63745117 153.7277832 C101.3076814 151.27668452 100.96986565 148.82678989 100.63085938 146.37695312 C100.41620873 144.80995849 100.20199903 143.24290338 99.98828125 141.67578125 C99.88832352 140.94772781 99.78836578 140.21967438 99.68537903 139.46955872 C99.30365279 136.61852689 99 133.88047545 99 131 C95.91229135 132.54385433 95.21047807 135.53537198 93.8828125 138.5703125 C93.58438446 139.24359589 93.28595642 139.91687927 92.97848511 140.61056519 C92.34473241 142.04666472 91.71447431 143.48431062 91.08740234 144.92333984 C90.14764489 147.07319593 89.18996549 149.21436495 88.23046875 151.35546875 C84.22854183 160.41585646 81.24338536 169.34414666 79 179 C77.68 179 76.36 179 75 179 C70.38 169.1 65.76 159.2 61 149 C49.48325421 171.21665066 49.48325421 171.21665066 42 195 C40.68 195 39.36 195 38 195 C22.40427549 162.00077225 22.40427549 162.00077225 16 148 C15.58572754 147.10071777 15.17145508 146.20143555 14.74462891 145.27490234 C14.37515137 144.46230957 14.00567383 143.6497168 13.625 142.8125 C13.30789062 142.11769531 12.99078125 141.42289063 12.6640625 140.70703125 C12 139 12 139 12 137 C11.34 137.33 10.68 137.66 10 138 C9.17429923 142.53582691 8.96550791 147.15541327 8.625 151.75 C8.50511719 153.0390625 8.38523437 154.328125 8.26171875 155.65625 C8.16761719 156.89890625 8.07351562 158.1415625 7.9765625 159.421875 C7.88455566 160.56237305 7.79254883 161.70287109 7.69775391 162.87792969 C8.07603449 166.78540315 9.19079426 168.30812605 12 171 C15.64182335 171.89055736 15.64182335 171.89055736 19 172 C19.33 172.99 19.66 173.98 20 175 C6.14 175.33 -7.72 175.66 -22 176 C-23.1149272 179.34478161 -23.42884908 181.49773248 -23 185 C-19.95617461 188.21775827 -17.38104998 189.49930857 -13 190 C-13 190.66 -13 191.32 -13 192 C-26.86 192 -40.72 192 -55 192 C-54.67 191.01 -54.34 190.02 -54 189 C-52.89591797 188.88785156 -52.89591797 188.88785156 -51.76953125 188.7734375 C-45.16049861 188.033439 -45.16049861 188.033439 -39.9375 184.3125 C-36.16826452 177.86832322 -35.49288177 171.10090062 -34.67138672 163.80126953 C-34.55405182 162.80033264 -34.43671692 161.79939575 -34.31582642 160.76812744 C-33.93124994 157.47367309 -33.5552162 154.17830951 -33.1796875 150.8828125 C-32.91386905 148.58262979 -32.6476789 146.28249 -32.38113403 143.98239136 C-31.82436412 139.16625879 -31.27176514 134.34967106 -30.72216797 129.53271484 C-30.01907768 123.3730016 -29.30617459 117.21447231 -28.59019279 111.0562458 C-28.03908101 106.30735146 -27.49294131 101.55789544 -26.94830704 96.80825424 C-26.68743019 94.53799488 -26.42508551 92.26790366 -26.16122055 89.99798965 C-25.79241946 86.81838217 -25.43026777 83.63808385 -25.06982422 80.45751953 C-24.96075745 79.52839752 -24.85169067 78.59927551 -24.73931885 77.64199829 C-23.15916235 65.22279615 -23.15916235 65.22279615 -27.9375 54.0625 C-28.34500488 53.46622803 -28.75250977 52.86995605 -29.17236328 52.25561523 C-36.45488975 41.82218418 -44.41039797 33.43584081 -56.4375 28.625 C-61.5988854 27.71949379 -66.77321061 27.32613793 -72 27 C-72 26.01 -72 25.02 -72 24 C-60.71813499 20.08588357 -47.65550618 21.92395178 -37 27 C-16.63998451 38.84108127 -6.30089804 58.58931948 2 80 C2 80.66 2 81.32 2 82 C2.66 82 3.32 82 4 82 C4.05607422 80.61167969 4.05607422 80.61167969 4.11328125 79.1953125 C4.60567358 68.72731779 5.69671861 58.3901478 7.0715332 48.00048828 C8.19151993 39.07704975 8.18731336 32.84449856 3 25.1875 C2.39877319 24.28064453 2.39877319 24.28064453 1.78540039 23.35546875 C-5.59840648 12.46648037 -14.96141425 1.8036828 -28 -2 C-33.29408963 -2.96999003 -38.64445684 -3.50058739 -44 -4 C-43.67 -5.32 -43.34 -6.64 -43 -8 C-28.32971011 -11.17195457 -12.53848352 -8.18738063 0 0 Z M17 53 C15.86717654 62.7615639 14.81063379 72.52994775 13.875 82.3125 C13.78750488 83.18148926 13.70000977 84.05047852 13.60986328 84.94580078 C13.35991312 87.62886743 13.17744226 90.31123058 13 93 C12.89816406 93.98701904 12.79632813 94.97403809 12.69140625 95.9909668 C12.05085097 106.16841678 15.76847634 113.36356374 20.25 122.1875 C20.98056888 123.67233786 21.70840394 125.15852371 22.43359375 126.64599609 C23.89976913 129.64929082 25.37671252 132.64689544 26.86132812 135.64111328 C30.03693117 142.07593479 33.01742384 148.59911969 36 155.125 C36.97882834 157.25275984 37.95795825 159.38038099 38.9375 161.5078125 C39.62520327 163.00511499 40.31279113 164.50247053 41 166 C41.66 166 42.32 166 43 166 C44.97099496 162.07409045 46.89279679 158.12864005 48.77392578 154.15917969 C49.41902844 152.81475864 50.07674422 151.47630956 50.74755859 150.14453125 C54.72502449 142.65295797 54.72502449 142.65295797 55.78808594 134.45385742 C54.75854665 131.79421425 53.42765618 129.4706455 52 127 C51.05254288 125.00785269 50.15138622 122.99775385 49.24960327 120.98454285 C48.20440569 118.65588587 47.1348747 116.3398512 46.05810547 114.02563477 C43.67668304 108.90494606 41.3024138 103.78097334 38.9296875 98.65625 C38.5226358 97.77767838 38.11558411 96.89910675 37.69619751 95.99391174 C33.39142751 86.69762124 29.12961619 77.3818275 24.875 68.0625 C24.52385132 67.29358429 24.17270264 66.52466858 23.81091309 65.73245239 C21.87294365 61.48875668 19.93594586 57.24461922 18 53 C17.67 53 17.34 53 17 53 Z M91 77 C88.34583499 82.97595803 85.6952641 88.95350078 83.04711914 94.93212891 C82.14689362 96.96341528 81.24586311 98.99434511 80.34399414 101.02490234 C79.04358618 103.95315394 77.74613284 106.8826996 76.44921875 109.8125 C76.0491008 110.71178223 75.64898285 111.61106445 75.23674011 112.53759766 C74.14061969 115.01802762 73.06706113 117.50695763 72 120 C71.66938065 120.73855225 71.33876129 121.47710449 70.99812317 122.23803711 C69.72374656 125.261594 68.88582782 127.37638682 69.4855957 130.65234375 C69.87835693 131.40644531 70.27111816 132.16054688 70.67578125 132.9375 C71.29936523 134.18466797 71.29936523 134.18466797 71.93554688 135.45703125 C72.38994141 136.29621094 72.84433594 137.13539063 73.3125 138 C73.75529297 138.87011719 74.19808594 139.74023438 74.65429688 140.63671875 C75.74536432 142.77192601 76.86022569 144.8905099 78 147 C78.66 147 79.32 147 80 147 C82.33450267 142.12791098 84.62923661 137.23959327 86.89086914 132.33325195 C87.66339337 130.67117388 88.4460708 129.01377208 89.23950195 127.36157227 C94.14235463 117.13208723 97.34084685 109.49844551 95 98 C94.74019008 96.0466857 94.48865935 94.09224934 94.24609375 92.13671875 C93.98097184 90.31966368 93.71149939 88.50323762 93.4375 86.6875 C93.29892578 85.74455078 93.16035156 84.80160156 93.01757812 83.83007812 C92.68233956 81.55276788 92.34314647 79.27612959 92 77 C91.67 77 91.34 77 91 77 Z M-15 80 C-16.15682979 83.47048936 -16.44183989 86.81562369 -16.75610352 90.43383789 C-16.82452454 91.18874512 -16.89294556 91.94365234 -16.96343994 92.72143555 C-17.18897724 95.22152501 -17.40913584 97.72205371 -17.62890625 100.22265625 C-17.78422749 101.96562883 -17.93974281 103.70858412 -18.09544373 105.45152283 C-18.42143708 109.11061977 -18.74471116 112.76994467 -19.06616211 116.42944336 C-19.47650276 121.09785271 -19.89404859 125.76558409 -20.31375217 130.43315983 C-20.63689745 134.03704946 -20.95587353 137.64129924 -21.27366447 141.2456646 C-21.42582079 142.96520247 -21.57930664 144.68462327 -21.7341938 146.40391731 C-22.50196605 154.94912714 -23.20779678 163.40980049 -23 172 C-18.13601926 171.80636226 -14.83848777 171.52793674 -10.625 168.875 C-5.38137629 163.13198356 -4.42668729 156.91739936 -3.578125 149.4453125 C-3.46901794 148.54432831 -3.35991089 147.64334412 -3.24749756 146.71505737 C-3.02060297 144.81798129 -2.79903352 142.92026149 -2.58251953 141.02197266 C-2.25159094 138.13886059 -1.89850271 135.25907554 -1.54296875 132.37890625 C-1.32418309 130.52619915 -1.10669253 128.67333856 -0.890625 126.8203125 C-0.78550598 125.97002472 -0.68038696 125.11973694 -0.57208252 124.24368286 C0.37150762 115.71871454 -0.19030995 108.82605204 -3.94140625 100.99609375 C-4.22853989 100.38733902 -4.51567352 99.77858429 -4.81150818 99.15138245 C-5.71620883 97.24060089 -6.63885299 95.33918308 -7.5625 93.4375 C-8.18546291 92.13013703 -8.80721816 90.8221979 -9.42773438 89.51367188 C-10.93795446 86.33568308 -12.46437809 83.1658073 -14 80 C-14.33 80 -14.66 80 -15 80 Z " fill="#AB9453" transform="translate(187,136)"/>
<path d="M0 0 C0.99 0 1.98 0 3 0 C4.17905424 7.27211738 5.35562911 14.5446338 6.53115845 21.81732178 C6.96890308 24.52467224 7.40740515 27.23189848 7.8465271 29.93902588 C10.60703907 46.95957252 13.31929156 63.98654072 15.95193291 81.02737045 C16.81007868 86.57427308 17.67449724 92.12020298 18.53856754 97.66618538 C19.3826371 103.0896999 20.21585283 108.51474562 21.04147339 113.94109726 C21.56684452 117.37638351 22.10257151 120.81000109 22.64085007 124.24328613 C22.88771304 125.83158078 23.13040293 127.42053136 23.36830521 129.01019287 C25.38904922 142.48949854 28.37386821 156.02033453 34.625 168.25 C34.95854492 168.90347412 35.29208984 169.55694824 35.63574219 170.23022461 C42.52333637 183.04358953 53.07145061 192.14079867 66.9375 196.875 C72.84600756 198.44610397 78.9148424 198.72340193 85 199 C85 200.32 85 201.64 85 203 C66.03853134 204.80121782 48.67069993 202.82557448 33 191 C15.56127748 176.23234942 8.64733286 155.01171174 5.578125 133.09375 C5.37001901 131.66221158 5.16119771 130.23077699 4.95172119 128.79943848 C4.28370937 124.20202747 3.63932565 119.60147713 3 115 C2.89156769 114.22124512 2.78313538 113.44249023 2.67141724 112.64013672 C0.76304189 98.9163842 -1.08594868 85.18461241 -2.92675781 71.45166016 C-3.47364254 67.37368913 -4.02456886 63.29628062 -4.5779953 59.2191925 C-4.78534584 57.68514159 -4.99107695 56.15087086 -5.19513702 54.61637878 C-5.47559505 52.50739415 -5.76112531 50.39915576 -6.04785156 48.29101562 C-6.20819885 47.09593384 -6.36854614 45.90085205 -6.53375244 44.66955566 C-6.72117987 42.08718497 -6.72117987 42.08718497 -8 41 C-8.23359222 41.52982483 -8.46718445 42.05964966 -8.70785522 42.60552979 C-11.13999478 48.12149256 -13.57350564 53.63684884 -16.0078125 59.15185547 C-16.91604202 61.20996844 -17.82392216 63.26823562 -18.73144531 65.32666016 C-20.03618955 68.28588861 -21.34219053 71.24455962 -22.6484375 74.203125 C-23.05371674 75.12305237 -23.45899597 76.04297974 -23.8765564 76.99078369 C-24.25679962 77.8513739 -24.63704285 78.71196411 -25.02880859 79.59863281 C-25.36190033 80.35364075 -25.69499207 81.10864868 -26.03817749 81.88653564 C-26.97767653 83.95094744 -27.97231341 85.97824991 -29 88 C-29.66 88 -30.32 88 -31 88 C-32.39425019 81.92505275 -33.53807836 76.24170896 -33 70 C-32.57783203 69.44086914 -32.15566406 68.88173828 -31.72070312 68.30566406 C-29.23324501 64.97258313 -27.79083851 61.29321335 -26.15625 57.484375 C-25.79027206 56.64380554 -25.42429413 55.80323608 -25.04722595 54.93719482 C-24.26495552 53.13950353 -23.48494754 51.34082632 -22.70700073 49.54125977 C-20.69222584 44.88197503 -18.65993727 40.23034097 -16.62890625 35.578125 C-16.22978531 34.66289062 -15.83066437 33.74765625 -15.41944885 32.8046875 C-12.1592896 25.33840081 -8.83467179 17.90499224 -5.4375 10.5 C-4.99148438 9.52385742 -4.54546875 8.54771484 -4.0859375 7.54199219 C-1.13107012 1.13107012 -1.13107012 1.13107012 0 0 Z " fill="#0349A9" transform="translate(327,148)"/>
<path d="M0 0 C15.39957744 11.81160506 24.33552447 27.71720664 32.08203125 45.18093872 C33.68655477 48.79746433 35.31321361 52.40403689 36.9375 56.01171875 C37.27056152 56.75284409 37.60362305 57.49396942 37.94677734 58.2575531 C42.11954995 67.52229614 46.46344751 76.70666684 50.8125 85.88964844 C53.24989962 91.05031241 55.67431236 96.20610988 57.921875 101.45263672 C58.23825928 102.18985458 58.55464355 102.92707245 58.88061523 103.68663025 C59.4904918 105.11626313 60.09441775 106.5484528 60.69165039 107.9834137 C62.05635213 111.66530352 62.05635213 111.66530352 65 114 C63.70021649 121.79870106 60.73353242 128.06126522 57 135 C56.34 135 55.68 135 55 135 C46.96795773 118.47599782 39.31599097 101.79491068 31.74450684 85.05679321 C28.70509951 78.34059003 25.63747432 71.63749792 22.5625 64.9375 C22.09585938 63.92051025 21.62921875 62.90352051 21.1484375 61.85571289 C20.09941843 59.57026347 19.04999177 57.28500266 18 55 C15.77203095 70.93653154 14.45461947 86.97878031 13 103 C12.34 103 11.68 103 11 103 C10.57847656 102.00097656 10.15695313 101.00195312 9.72265625 99.97265625 C9.16939783 98.66921692 8.61600549 97.36583443 8.0625 96.0625 C7.78470703 95.40314453 7.50691406 94.74378906 7.22070312 94.06445312 C5.99207117 90.79531504 5.99207117 90.79531504 4 88 C3.22419152 76.46750122 4.89136098 65.11648638 6.36645508 53.71264648 C6.65933971 51.42518647 6.94128546 49.13655647 7.22265625 46.84765625 C7.36164085 45.81935448 7.36164085 45.81935448 7.50343323 44.77027893 C8.44541068 37.07297577 7.32219436 31.56749551 3 25.1875 C2.39877319 24.28064453 2.39877319 24.28064453 1.78540039 23.35546875 C-5.59840648 12.46648037 -14.96141425 1.8036828 -28 -2 C-33.29408963 -2.96999003 -38.64445684 -3.50058739 -44 -4 C-43.67 -5.32 -43.34 -6.64 -43 -8 C-28.32971011 -11.17195457 -12.53848352 -8.18738063 0 0 Z " fill="#0349A8" transform="translate(187,136)"/>
<path d="M0 0 C2.64 0.33 5.28 0.66 8 1 C7.67972012 20.37604811 6.93023037 39.60250773 5.01635742 58.89208984 C4.35205707 65.62982816 3.89261183 72.22738592 4 79 C3.66666667 80.66666667 3.33333333 82.33333333 3 84 C2.656064 87.06768727 2.49188508 89.94560131 3 93 C5.94499841 96.36571246 8.59544915 97.49662276 13 98 C13 98.66 13 99.32 13 100 C-0.86 100 -14.72 100 -29 100 C-28.67 99.01 -28.34 98.02 -28 97 C-26.89591797 96.88785156 -26.89591797 96.88785156 -25.76953125 96.7734375 C-19.16049861 96.033439 -19.16049861 96.033439 -13.9375 92.3125 C-10.59733554 86.60189625 -9.66469154 80.60723636 -8.96264648 74.10864258 C-8.87617859 73.35326706 -8.78971069 72.59789154 -8.70062256 71.81962585 C-8.41865875 69.34517775 -8.14493233 66.86989048 -7.87109375 64.39453125 C-7.6751593 62.66527178 -7.47862173 60.93608056 -7.2815094 59.20695496 C-6.76560226 54.67008283 -6.25631327 50.13249474 -5.74890137 45.59466553 C-4.93482163 38.32140081 -4.11213252 31.04911275 -3.28663826 23.77713585 C-2.99986235 21.24036763 -2.71681635 18.70320317 -2.43418884 16.16596985 C-2.25889436 14.61169148 -2.08349033 13.05742546 -1.90795898 11.50317383 C-1.8305397 10.79919464 -1.75312042 10.09521545 -1.6733551 9.36990356 C-1.3099612 6.17877839 -0.8944171 3.08943226 0 0 Z " fill="#AC9452" transform="translate(161,228)"/>
<path d="M0 0 C0.87009411 13.26893513 -6.13193375 25.10988052 -11.43920898 36.95703125 C-14.95719313 44.82690669 -18.06893804 52.56078772 -20 61 C-21.32 61 -22.64 61 -24 61 C-26.15344502 56.45224631 -28.30373751 51.90301884 -30.45141602 47.35253906 C-31.17879136 45.81244045 -31.90695122 44.27271206 -32.63598633 42.73339844 C-35.1142645 37.49976751 -37.56986729 32.25616424 -40 27 C-40.3476239 26.25024902 -40.6952478 25.50049805 -41.05340576 24.72802734 C-42.05602346 22.55278466 -43.04405483 20.37153733 -44.02734375 18.1875 C-44.32862686 17.53587891 -44.62990997 16.88425781 -44.94032288 16.21289062 C-46.50622762 12.68762842 -47.4856944 9.86809989 -47 6 C-45.625 4.1875 -45.625 4.1875 -44 3 C-43.34 3 -42.68 3 -42 3 C-42 3.66 -42 4.32 -42 5 C-41.01 4.67 -40.02 4.34 -39 4 C-38.67 5.65 -38.34 7.3 -38 9 C-37.731875 8.360625 -37.46375 7.72125 -37.1875 7.0625 C-36 5 -36 5 -33 4 C-31.28616417 7.66393183 -29.57730161 11.33013651 -27.87304688 14.99853516 C-27.29238479 16.24656893 -26.71035931 17.49396929 -26.12695312 18.74072266 C-25.28939753 20.5312114 -24.45712034 22.3241663 -23.625 24.1171875 C-22.87089844 25.73536377 -22.87089844 25.73536377 -22.1015625 27.38623047 C-21 30 -21 30 -21 32 C-20.34 32 -19.68 32 -19 32 C-18.649375 30.845 -18.29875 29.69 -17.9375 28.5 C-16.35873626 23.77126268 -14.46888876 19.20136392 -12.5 14.625 C-12.20343506 13.92310547 -11.90687012 13.22121094 -11.60131836 12.49804688 C-10.12500664 9.11661921 -8.82308266 6.41275088 -6 4 C-5.67 3.34 -5.34 2.68 -5 2 C-1.44444444 0 -1.44444444 0 0 0 Z " fill="#AB9454" transform="translate(249,270)"/>
<path d="M0 0 C0.66 0 1.32 0 2 0 C4.7926013 12.34745201 3.66739047 19.26017478 -1.890625 30.62890625 C-7.71781005 42.57463561 -13.62955532 54.83994504 -16 68 C-17.32 68 -18.64 68 -20 68 C-20.41886475 67.10168457 -20.83772949 66.20336914 -21.26928711 65.27783203 C-22.82141889 61.94925225 -24.37391138 58.62084081 -25.92651367 55.29248047 C-26.59881291 53.85112026 -27.27101393 52.40971423 -27.94311523 50.96826172 C-28.90843383 48.89799173 -29.87410394 46.82788603 -30.83984375 44.7578125 C-31.29145119 43.78897629 -31.29145119 43.78897629 -31.75218201 42.80056763 C-33.34548185 39.38556879 -33.34548185 39.38556879 -35 36 C-34.33325217 33.90910221 -33.56587395 31.84984041 -32.75 29.8125 C-32.28722656 28.64976562 -31.82445312 27.48703125 -31.34765625 26.2890625 C-29.93500051 22.84136355 -28.50583976 19.40795315 -27 16 C-23.56797698 18.77729863 -22.08977666 22.64061811 -20.3125 26.5625 C-19.99216797 27.24763672 -19.67183594 27.93277344 -19.34179688 28.63867188 C-17 33.72671242 -17 33.72671242 -17 36 C-16.34 36 -15.68 36 -15 36 C-14.44892578 34.20755859 -14.44892578 34.20755859 -13.88671875 32.37890625 C-11.66122971 25.70243912 -8.70507935 19.34485532 -5.8125 12.9375 C-5.24765492 11.67791007 -4.68319889 10.4181456 -4.11914062 9.15820312 C-2.74989682 6.10373617 -1.37676603 3.05108191 0 0 Z " fill="#0449A9" transform="translate(282,247)"/>
<path d="M0 0 C0.66 0 1.32 0 2 0 C9.90140845 16.03521127 9.90140845 16.03521127 11 24 C10.505 24.495 10.505 24.495 10 25 C9.36824057 29.56303969 9.05719906 34.15938094 8.6875 38.75 C8.56310547 40.0390625 8.43871094 41.328125 8.31054688 42.65625 C8.21193359 43.89890625 8.11332031 45.1415625 8.01171875 46.421875 C7.91334717 47.56237305 7.81497559 48.70287109 7.71362305 49.87792969 C8.07276633 53.79329563 9.18574173 55.30593561 12 58 C15.64182335 58.89055736 15.64182335 58.89055736 19 59 C19.33 59.99 19.66 60.98 20 62 C5.81 62.33 -8.38 62.66 -23 63 C-23.33 61.68 -23.66 60.36 -24 59 C-23.00419922 58.85304688 -23.00419922 58.85304688 -21.98828125 58.703125 C-14.70578726 57.48160451 -14.70578726 57.48160451 -9 53 C-6.18470646 47.46509553 -5.28878026 42.40864245 -4.6484375 36.26953125 C-4.54407379 35.35668869 -4.43971008 34.44384613 -4.33218384 33.50334167 C-4.00292824 30.60743201 -3.68836566 27.71016814 -3.375 24.8125 C-3.05164956 21.90451135 -2.72524723 18.99689452 -2.39639282 16.08952332 C-2.19332343 14.28584277 -1.99393337 12.48174321 -1.79867554 10.67720032 C-1.70833038 9.8592247 -1.61798523 9.04124908 -1.52490234 8.19848633 C-1.44734711 7.48235672 -1.36979187 6.76622711 -1.28988647 6.02839661 C-0.99560453 3.96924399 -0.5397714 2.00752721 0 0 Z " fill="#0449A8" transform="translate(187,249)"/>
<path d="M0 0 C0 0.33 0 0.66 0 1 C-2.64 1.66 -5.28 2.32 -8 3 C-7.67 4.65 -7.34 6.3 -7 8 C-9.31280198 7.10472182 -11.58664571 6.22215517 -13.7734375 5.046875 C-21.14530035 1.26208718 -28.86972241 0.75816085 -37 0 C-36.67 -1.32 -36.34 -2.64 -36 -4 C-23.96583981 -6.60198058 -11.26021858 -4.84990688 0 0 Z " fill="#0749A2" transform="translate(180,132)"/>
<path d="M0 0 C0.99 0 1.98 0 3 0 C4.17715926 7.23181209 5.35092057 14.46416704 6.52036285 21.69723129 C7.06350411 25.05591434 7.60780818 28.41440025 8.15478516 31.77246094 C8.78375194 35.63420533 9.40763347 39.49676286 10.03125 43.359375 C10.22811401 44.5636615 10.42497803 45.767948 10.62780762 47.00872803 C10.80799438 48.12958801 10.98818115 49.250448 11.17382812 50.40527344 C11.33371216 51.39122498 11.49359619 52.37717651 11.6583252 53.39300537 C12 56 12 56 12 60 C11.34 60 10.68 60 10 60 C9.85900879 58.98687744 9.71801758 57.97375488 9.57275391 56.92993164 C9.04337161 53.13302692 8.50918914 49.33680984 7.97363281 45.54077148 C7.74350311 43.90488453 7.51463589 42.26881941 7.28710938 40.63256836 C5.57490432 28.23819485 5.57490432 28.23819485 3 16 C2.071875 16.185625 1.14375 16.37125 0.1875 16.5625 C-3 17 -3 17 -6 16 C-6 16.66 -6 17.32 -6 18 C-6.66 18 -7.32 18 -8 18 C-6.10463724 11.48180123 -3.4821006 5.82185199 0 0 Z " fill="#0A489D" transform="translate(327,148)"/>
<path d="M0 0 C0.66 0 1.32 0 2 0 C2.33 1.65 2.66 3.3 3 5 C3.66 5 4.32 5 5 5 C5.33 4.34 5.66 3.68 6 3 C6.33 3.99 6.66 4.98 7 6 C7.66 6 8.32 6 9 6 C9.33 6.99 9.66 7.98 10 9 C9.01 9.33 8.02 9.66 7 10 C7.51352098 11.77919917 8.06210355 13.54830016 8.625 15.3125 C8.92664063 16.29863281 9.22828125 17.28476563 9.5390625 18.30078125 C10.79415203 21.28686764 10.79415203 21.28686764 14.0625 22.3125 C17 24 17 24 17.67333984 25.8190918 C18.04004179 28.11570976 18.24167624 30.36576197 18.375 32.6875 C18.47748047 33.88342773 18.47748047 33.88342773 18.58203125 35.10351562 C18.7466393 37.06705448 18.8766911 39.03343559 19 41 C15.93901528 37.3609016 14.1516087 33.31761391 12.20703125 29.0234375 C11.85613937 28.25697906 11.5052475 27.49052063 11.14372253 26.70083618 C10.40604991 25.08645833 9.67077103 23.47098479 8.93774414 21.85449219 C7.81201263 19.37392608 6.67708682 16.89771994 5.54101562 14.421875 C4.82497056 12.85181334 4.10945713 11.28150909 3.39453125 9.7109375 C3.05396194 8.96822601 2.71339264 8.22551453 2.36250305 7.46029663 C0 2.23056892 0 2.23056892 0 0 Z " fill="#0B489C" transform="translate(205,189)"/>
<path d="M0 0 C2.67901932 2.31881505 3.66204403 4.31814468 4.6875 7.6875 C5.06455078 8.89986328 5.06455078 8.89986328 5.44921875 10.13671875 C5.63097656 10.75160156 5.81273437 11.36648438 6 12 C5.01 11.67 4.02 11.34 3 11 C3 10.34 3 9.68 3 9 C1.03838102 9.18733817 1.03838102 9.18733817 -1 10 C-2.13070444 11.84727567 -2.13070444 11.84727567 -2.75 14.0625 C-2.99234375 14.79597656 -3.2346875 15.52945312 -3.484375 16.28515625 C-3.65453125 16.85105469 -3.8246875 17.41695313 -4 18 C-3.34 18 -2.68 18 -2 18 C-1.06576355 21.01031744 -0.95550089 21.86650268 -2 25 C-1.690625 25.598125 -1.38125 26.19625 -1.0625 26.8125 C0.30828261 29.6346995 0.14075669 31.9033529 0 35 C-0.66 34.01 -1.32 33.02 -2 32 C-2.55558594 31.18789063 -3.11117187 30.37578125 -3.68359375 29.5390625 C-8.32769019 21.82303591 -8.32769019 21.82303591 -7.3828125 16.56640625 C-6.09140312 13.26146805 -4.63294649 10.14865579 -3 7 C-2.38291938 5.56799612 -1.77563492 4.13163328 -1.1875 2.6875 C-0.795625 1.800625 -0.40375 0.91375 0 0 Z " fill="#105099" transform="translate(255,263)"/>
<path d="M0 0 C0.33 0.66 0.66 1.32 1 2 C1.66 2.33 2.32 2.66 3 3 C2.67 3.66 2.34 4.32 2 5 C3.65 4.67 5.3 4.34 7 4 C7 4.66 7 5.32 7 6 C6.34 6 5.68 6 5 6 C4.9175 6.639375 4.835 7.27875 4.75 7.9375 C3.70479628 12.20541517 1.85908174 16.03107667 0 20 C-0.33 20 -0.66 20 -1 20 C-1.33 18.02 -1.66 16.04 -2 14 C-3.95894361 14.11306697 -3.95894361 14.11306697 -6 15 C-7.29660434 17.49034386 -7.29660434 17.49034386 -8 20 C-9 18 -9 18 -8.75 16.0625 C-8 14 -8 14 -6.62109375 12.7265625 C-4.51007527 10.47820064 -3.540421 8.13339961 -2.3125 5.3125 C-1.87550781 4.31863281 -1.43851563 3.32476562 -0.98828125 2.30078125 C-0.66214844 1.54152344 -0.33601562 0.78226562 0 0 Z " fill="#A3915C" transform="translate(250,257)"/>
<path d="M0 0 C2.51522326 1.0033896 5.02811104 2.01147831 7.53515625 3.03515625 C8.36917969 3.37417969 9.20320313 3.71320313 10.0625 4.0625 C10.89910156 4.40410156 11.73570312 4.74570312 12.59765625 5.09765625 C17.00645744 6.75364499 21.04306784 7.23301475 25.75 7.5625 C26.92046875 7.64628906 28.0909375 7.73007812 29.296875 7.81640625 C30.18890625 7.87699219 31.0809375 7.93757813 32 8 C32 9.32 32 10.64 32 12 C24.08 12.495 24.08 12.495 16 13 C16.66 12.01 17.32 11.02 18 10 C12.02716478 7.58883496 6.04027175 5.23713768 0 3 C0 2.01 0 1.02 0 0 Z " fill="#0F4797" transform="translate(380,339)"/>
<path d="M0 0 C0.33 0 0.66 0 1 0 C1.3322299 8.74872064 0.60602627 17.29643246 -0.28857422 25.99267578 C-0.79550819 31.05930465 -1.09384396 36.01932621 -0.98632812 41.11230469 C-1.00357556 43.49368329 -1.40601361 45.69830273 -2 48 C-2.66 48 -3.32 48 -4 48 C-4.05794812 43.72922344 -4.09357874 39.45854764 -4.125 35.1875 C-4.14175781 33.97255859 -4.15851563 32.75761719 -4.17578125 31.50585938 C-4.18222656 30.34248047 -4.18867188 29.17910156 -4.1953125 27.98046875 C-4.20578613 26.90692139 -4.21625977 25.83337402 -4.22705078 24.72729492 C-4 22 -4 22 -2 19 C-1.90846601 16.48567562 -1.90387047 14.06907737 -2 11.5625 C-2.25399417 3.44262391 -2.25399417 3.44262391 0 0 Z " fill="#A59562" transform="translate(166,264)"/>
<path d="M0 0 C0.66 0 1.32 0 2 0 C-0.89066059 9.59453303 -0.89066059 9.59453303 -4 13 C-4.66 12.01 -5.32 11.02 -6 10 C-8.05925139 9.27617533 -8.05925139 9.27617533 -10 9 C-10.13277344 9.55171875 -10.26554687 10.1034375 -10.40234375 10.671875 C-11.05660641 13.22050602 -11.80035064 15.73159343 -12.5625 18.25 C-12.83191406 19.14203125 -13.10132813 20.0340625 -13.37890625 20.953125 C-13.58386719 21.62859375 -13.78882813 22.3040625 -14 23 C-14.66 23 -15.32 23 -16 23 C-15.47493172 17.78254934 -14.2201441 13.77348889 -11.9375 9.0625 C-11.38964844 7.91910156 -10.84179688 6.77570313 -10.27734375 5.59765625 C-9.64505859 4.31181641 -9.64505859 4.31181641 -9 3 C-7.68 3.99 -6.36 4.98 -5 6 C-5 5.34 -5 4.68 -5 4 C-3.68 4.33 -2.36 4.66 -1 5 C-0.67 3.35 -0.34 1.7 0 0 Z " fill="#A59360" transform="translate(267,234)"/>
<path d="M0 0 C2 2 2 2 2 6 C2.66 6 3.32 6 4 6 C5.13764351 10.26616316 6 13.56486311 6 18 C6.66 18.33 7.32 18.66 8 19 C8.33 19.99 8.66 20.98 9 22 C9.66 22.33 10.32 22.66 11 23 C11 23.99 11 24.98 11 26 C12.9375006 28.18777466 12.9375006 28.18777466 15 30 C14.67 30.99 14.34 31.98 14 33 C14.66 33 15.32 33 16 33 C16.33 34.32 16.66 35.64 17 37 C7.47893971 28.59906445 2.8394614 16.13999093 0 4 C0 2.68 0 1.36 0 0 Z " fill="#0D4690" transform="translate(335,292)"/>
<path d="M0 0 C2.17975966 3.26963949 2.36904422 4.21729678 2 8 C0.55172414 11.72413793 0.55172414 11.72413793 -2 13 C-1.34 13.33 -0.68 13.66 0 14 C0 14.99 0 15.98 0 17 C-3 18 -3 18 -6 17 C-6.1546875 18.1446875 -6.1546875 18.1446875 -6.3125 19.3125 C-7.05790616 22.22636046 -7.84458939 23.02950397 -10 25 C-7.37589493 16.35588919 -3.68616238 8.23074615 0 0 Z " fill="#0A479A" transform="translate(314,175)"/>
<path d="M0 0 C1.32 0 2.64 0 4 0 C4 0.66 4 1.32 4 2 C4.928125 1.814375 5.85625 1.62875 6.8125 1.4375 C10 1 10 1 13 2 C13.33 1.34 13.66 0.68 14 0 C14 0.66 14 1.32 14 2 C16.91697011 1.85895309 19.8334802 1.71235186 22.75 1.5625 C23.575 1.52318359 24.4 1.48386719 25.25 1.44335938 C26.04921875 1.40146484 26.8484375 1.35957031 27.671875 1.31640625 C28.4050293 1.27974854 29.13818359 1.24309082 29.89355469 1.20532227 C32.01842869 1.05391865 32.01842869 1.05391865 34.09863281 0.45288086 C36.61289236 -0.14598296 38.52212304 0.38053076 41 1 C41 1.66 41 2.32 41 3 C27.14 3 13.28 3 -1 3 C-0.67 2.01 -0.34 1.02 0 0 Z " fill="#A08C4F" transform="translate(133,325)"/>
<path d="M0 0 C0.66 0 1.32 0 2 0 C2.67119549 1.4562545 3.33681807 2.91507867 4 4.375 C4.556875 5.59316406 4.556875 5.59316406 5.125 6.8359375 C6 9 6 9 6 11 C5.34 11 4.68 11 4 11 C4 10.01 4 9.02 4 8 C3.34 8 2.68 8 2 8 C1.67 7.01 1.34 6.02 1 5 C0.94465088 5.55872803 0.88930176 6.11745605 0.83227539 6.69311523 C0.57622865 9.27463121 0.3193682 11.85606564 0.0625 14.4375 C-0.02451172 15.31599609 -0.11152344 16.19449219 -0.20117188 17.09960938 C-0.7629026 22.7377215 -1.36423385 28.36974661 -2 34 C-2.66 34 -3.32 34 -4 34 C-2.99500612 22.60737649 -1.9661995 11.27427159 0 0 Z " fill="#0E4692" transform="translate(187,249)"/>
<path d="M0 0 C0.66 0 1.32 0 2 0 C3.92396665 4.74578441 4.34230562 9.15442325 4.7109375 14.19921875 C4.97762191 16.78317448 5.46638082 19.11785633 6.125 21.625 C7.27966468 26.32007034 6.75411018 30.24910585 6 35 C5.67 35 5.34 35 5 35 C4.82609741 33.69011108 4.82609741 33.69011108 4.64868164 32.35375977 C4.21781252 29.123641 3.7831761 25.89405848 3.34594727 22.66479492 C3.15725136 21.26525963 2.97007231 19.86551897 2.78442383 18.46557617 C2.51779728 16.45698954 2.24531724 14.44918262 1.97265625 12.44140625 C1.81031494 11.23170166 1.64797363 10.02199707 1.48071289 8.77563477 C1.29175873 6.09973637 1.29175873 6.09973637 0 5 C-0.66 5.66 -1.32 6.32 -2 7 C-1.125 1.125 -1.125 1.125 0 0 Z " fill="#114A97" transform="translate(319,184)"/>
<path d="M0 0 C1.65 0.33 3.3 0.66 5 1 C5 1.99 5 2.98 5 4 C5.66 4 6.32 4 7 4 C7.33 4.99 7.66 5.98 8 7 C7.01 7 6.02 7 5 7 C5 7.66 5 8.32 5 9 C4.34 9 3.68 9 3 9 C2.67 10.65 2.34 12.3 2 14 C0.68 13.34 -0.64 12.68 -2 12 C-0.95902388 8.13351728 0.03698408 4.50538557 2 1 C1.34 0.67 0.68 0.34 0 0 Z " fill="#AF9252" transform="translate(239,279)"/>
<path d="M0 0 C5.875 3.625 5.875 3.625 7 7 C7.99 6.34 8.98 5.68 10 5 C10.95024979 8.69541586 10.95024979 11.30458414 10 15 C8.68 15 7.36 15 6 15 C4.99539469 12.87717331 3.99644398 10.75166979 3 8.625 C2.443125 7.44164062 1.88625 6.25828125 1.3125 5.0390625 C0 2 0 2 0 0 Z " fill="#0C4695" transform="translate(256,300)"/>
<path d="M0 0 C0.53084792 2.91516484 1.04999055 5.83160557 1.5625 8.75 C1.71396484 9.575 1.86542969 10.4 2.02148438 11.25 C2.16005859 12.04921875 2.29863281 12.8484375 2.44140625 13.671875 C2.57232666 14.4050293 2.70324707 15.13818359 2.83813477 15.89355469 C3 18 3 18 2 22 C1.34 18.7 0.68 15.4 0 12 C-0.66 12 -1.32 12 -2 12 C-2 11.01 -2 10.02 -2 9 C-2.99 8.67 -3.98 8.34 -5 8 C-5.36625971 3.48279689 -5.36625971 3.48279689 -3.625 1.1875 C-2 0 -2 0 0 0 Z " fill="#08489F" transform="translate(350,274)"/>
<path d="M0 0 C0 0.33 0 0.66 0 1 C-1.66611905 1.042721 -3.33382885 1.04063832 -5 1 C-5.33 0.67 -5.66 0.34 -6 0 C-8.33297433 -0.04092937 -10.66705225 -0.04241723 -13 0 C-13.33 -0.66 -13.66 -1.32 -14 -2 C-21.26 -2.33 -28.52 -2.66 -36 -3 C-36 -3.33 -36 -3.66 -36 -4 C-23.96583981 -6.60198058 -11.26021858 -4.84990688 0 0 Z " fill="#104793" transform="translate(180,132)"/>
<path d="M0 0 C2.67901932 2.31881505 3.66204403 4.31814468 4.6875 7.6875 C5.06455078 8.89986328 5.06455078 8.89986328 5.44921875 10.13671875 C5.63097656 10.75160156 5.81273437 11.36648438 6 12 C5.01 11.67 4.02 11.34 3 11 C3 10.34 3 9.68 3 9 C1.05000871 9.19471111 1.05000871 9.19471111 -1 10 C-2.28436734 11.9837767 -2.28436734 11.9837767 -3 14 C-3.66 14 -4.32 14 -5 14 C-3.45730076 9.27934033 -1.92205381 4.58335908 0 0 Z " fill="#164C8F" transform="translate(255,263)"/>
<path d="M0 0 C1.98 0.99 1.98 0.99 4 2 C4 2.99 4 3.98 4 5 C4.598125 4.835 5.19625 4.67 5.8125 4.5 C8 4 8 4 11 4 C10.50628906 4.68707031 10.01257813 5.37414062 9.50390625 6.08203125 C7.69702091 9.58785814 7.75465927 11.77649224 7.9375 15.6875 C8.08984375 19.13671875 8.08984375 19.13671875 8 22 C7.34 22.66 6.68 23.32 6 24 C6.06960937 23.24976563 6.13921875 22.49953125 6.2109375 21.7265625 C6.60168012 14.33966636 5.55908859 10.03591839 1.3125 3.9609375 C0 2 0 2 0 0 Z " fill="#0F4797" transform="translate(189,158)"/>
<path d="M0 0 C0.33 0.66 0.66 1.32 1 2 C1.66 2.33 2.32 2.66 3 3 C2.67 3.66 2.34 4.32 2 5 C3.65 4.67 5.3 4.34 7 4 C7 4.66 7 5.32 7 6 C6.34 6 5.68 6 5 6 C4.9175 6.639375 4.835 7.27875 4.75 7.9375 C3.70479628 12.20541517 1.85908174 16.03107667 0 20 C-0.33 20 -0.66 20 -1 20 C-1 18.35 -1 16.7 -1 15 C-0.34 15 0.32 15 1 15 C1.185625 13.88625 1.185625 13.88625 1.375 12.75 C1.95486701 10.19858515 2.73708739 8.2732427 4 6 C3.21625 6.33 2.4325 6.66 1.625 7 C-1 8 -1 8 -3 8 C-1.125 2.25 -1.125 2.25 0 0 Z " fill="#99926A" transform="translate(250,257)"/>
<path d="M0 0 C4.97093824 0.41153737 9.44508386 0.79600832 14 3 C13.01 4.485 13.01 4.485 12 6 C7.98014203 6.63952286 6.21092315 6.11717953 2.625 4.125 C1.75875 3.42375 0.8925 2.7225 0 2 C0 1.34 0 0.68 0 0 Z " fill="#0349AD" transform="translate(385,345)"/>
<path d="M0 0 C-1.32 0.33 -2.64 0.66 -4 1 C-4 1.66 -4 2.32 -4 3 C-1.69 3.66 0.62 4.32 3 5 C-0.54950034 6.16306443 -3.55823948 5.92365049 -7.25 5.5625 C-8.32765625 5.46066406 -9.4053125 5.35882813 -10.515625 5.25390625 C-11.33546875 5.17011719 -12.1553125 5.08632812 -13 5 C-13 4.01 -13 3.02 -13 2 C-4.57142857 -0.28571429 -4.57142857 -0.28571429 0 0 Z " fill="#A4925D" transform="translate(128,158)"/>
<path d="M0 0 C2.14272786 3.2140918 3.62118285 6.52601133 5.125 10.0625 C5.40214844 10.69994141 5.67929687 11.33738281 5.96484375 11.99414062 C8 16.75119304 8 16.75119304 8 19 C6.68 18.67 5.36 18.34 4 18 C3.67 16.35 3.34 14.7 3 13 C1.68 13.33 0.36 13.66 -1 14 C-0.125 9.125 -0.125 9.125 1 8 C0.8981629 6.08575543 0.8981629 6.08575543 0.5625 3.9375 C0.376875 2.638125 0.19125 1.33875 0 0 Z " fill="#0C499C" transform="translate(354,300)"/>
<path d="M0 0 C0.33 0.99 0.66 1.98 1 3 C0.34 2.67 -0.32 2.34 -1 2 C-0.67 1.34 -0.34 0.68 0 0 Z M-6 2 C-3.525 2.495 -3.525 2.495 -1 3 C-0.67 7.29 -0.34 11.58 0 16 C0.66 16 1.32 16 2 16 C2 17.65 2 19.3 2 21 C-0.34713484 18.11942542 -1.7079616 15.47235321 -3 12 C-3.53625 10.80375 -4.0725 9.6075 -4.625 8.375 C-6 5 -6 5 -6 2 Z " fill="#A19464" transform="translate(200,258)"/>
<path d="M0 0 C0.33 0 0.66 0 1 0 C1.22046032 1.96487937 1.44073827 3.92977935 1.66015625 5.89477539 C1.84528391 7.55033162 2.03148458 9.2057682 2.21875 10.86108398 C2.71233447 15.2585914 3.14580594 19.65117395 3.5 24.0625 C3.7475 26.0115625 3.7475 26.0115625 4 28 C4.66 28.33 5.32 28.66 6 29 C5.01 29.33 4.02 29.66 3 30 C3 28.02 3 26.04 3 24 C2.34 24 1.68 24 1 24 C0.93941406 22.95199219 0.87882812 21.90398437 0.81640625 20.82421875 C0.73198262 19.44529952 0.64733553 18.06639395 0.5625 16.6875 C0.52318359 15.99720703 0.48386719 15.30691406 0.44335938 14.59570312 C0.25072585 11.52838465 -0.02322717 8.93031848 -1 6 C-0.72428861 3.99124558 -0.39764263 1.98821313 0 0 Z " fill="#998F6C" transform="translate(292,208)"/>
<path d="M0 0 C0.66 0 1.32 0 2 0 C4.56503533 11.91363517 4.56503533 11.91363517 3 17 C2.34 17.66 1.68 18.32 1 19 C1 14.38 1 9.76 1 5 C0.34 5 -0.32 5 -1 5 C-0.67 3.35 -0.34 1.7 0 0 Z " fill="#1F508A" transform="translate(282,247)"/>
<path d="M0 0 C1.60930428 2.86819553 2.2704399 5.10376864 2.5 8.375 C2.75502776 11.27003735 3.10892897 13.29652886 4.125 16.0625 C5.31503565 20.05761967 4.70500583 22.91096619 4 27 C3.67 27 3.34 27 3 27 C2.49129467 23.813827 1.99463419 20.62588525 1.5 17.4375 C1.35691406 16.54224609 1.21382813 15.64699219 1.06640625 14.72460938 C0.30107612 9.74996352 -0.16568252 5.03260643 0 0 Z " fill="#AA9861" transform="translate(289,285)"/>
<path d="M0 0 C3.48250312 3.64079872 4.40598717 8.11919458 5 13 C4.67 13.33 4.34 13.66 4 14 C3.76636119 15.84891946 3.58696365 17.70488031 3.4375 19.5625 C3.35371094 20.57441406 3.26992187 21.58632813 3.18359375 22.62890625 C3.12300781 23.41136719 3.06242188 24.19382812 3 25 C2.67 25 2.34 25 2 25 C1.97494385 24.42032471 1.9498877 23.84064941 1.92407227 23.2434082 C1.80753766 20.59957893 1.68507318 17.95605591 1.5625 15.3125 C1.52318359 14.40048828 1.48386719 13.48847656 1.44335938 12.54882812 C1.40146484 11.66259766 1.35957031 10.77636719 1.31640625 9.86328125 C1.26141968 8.64572144 1.26141968 8.64572144 1.20532227 7.40356445 C0.98962569 4.87855515 0.54100548 2.47399303 0 0 Z " fill="#285E93" transform="translate(193,260)"/>
<path d="M0 0 C0.33 0 0.66 0 1 0 C2.83717315 7.41430591 3.23576736 14.37685526 3 22 C2.01 22 1.02 22 0 22 C0.20625 20.948125 0.4125 19.89625 0.625 18.8125 C1.31672047 13.61524888 0.31479772 8.77618008 -0.625 3.66015625 C-0.74875 2.78230469 -0.8725 1.90445313 -1 1 C-0.67 0.67 -0.34 0.34 0 0 Z " fill="#8F917E" transform="translate(284,244)"/>
<path d="M0 0 C2.6855594 2.6855594 3.06049974 5.37621328 4 9 C4.66 9 5.32 9 6 9 C6.66 11.97 7.32 14.94 8 18 C5 16 5 16 4.3125 13.375 C4.209375 12.59125 4.10625 11.8075 4 11 C3.34 11 2.68 11 2 11 C0.80712589 7.12315913 0 4.08378077 0 0 Z " fill="#87886C" transform="translate(185,209)"/>
<path d="M0 0 C0.99 0 1.98 0 3 0 C2.67 0.99 2.34 1.98 2 3 C1.01 3.33 0.02 3.66 -1 4 C-1.185625 5.6396875 -1.185625 5.6396875 -1.375 7.3125 C-2 11 -2 11 -4 14 C-4.66 14 -5.32 14 -6 14 C-2.81715576 3.63882619 -2.81715576 3.63882619 0 0 Z " fill="#A49660" transform="translate(285,178)"/>
<path d="M0 0 C0.66 0 1.32 0 2 0 C0.83805848 6.46712188 -1.1248748 12.09622349 -4 18 C-4.33 18 -4.66 18 -5 18 C-5.26662247 14.88940452 -5.20331177 13.3359064 -3.5625 10.625 C-1.65849918 7.42627862 -1.42282359 4.66447111 -1 1 C-0.67 0.67 -0.34 0.34 0 0 Z " fill="#265C88" transform="translate(250,250)"/>
<path d="M0 0 C0.33 0 0.66 0 1 0 C1.33848652 1.89492006 1.67056911 3.79098466 2 5.6875 C2.185625 6.74324219 2.37125 7.79898437 2.5625 8.88671875 C2.95068074 11.64904062 3.08259976 14.21742043 3 17 C1.68 16.34 0.36 15.68 -1 15 C-0.67 14.34 -0.34 13.68 0 13 C0.14703592 9.76520986 -0.0195504 6.88486988 -0.5625 3.6875 C-0.706875 2.800625 -0.85125 1.91375 -1 1 C-0.67 0.67 -0.34 0.34 0 0 Z " fill="#A89361" transform="translate(300,259)"/>
<path d="M0 0 C0.66 0 1.32 0 2 0 C1.33989524 2.84550012 0.48275034 5.52325999 -0.5625 8.25 C-0.83191406 8.95640625 -1.10132813 9.6628125 -1.37890625 10.390625 C-1.58386719 10.92171875 -1.78882813 11.4528125 -2 12 C-2.99 11.67 -3.98 11.34 -5 11 C-3.35 7.37 -1.7 3.74 0 0 Z " fill="#A6955D" transform="translate(239,280)"/>
<path d="M0 0 C0.66 0.99 1.32 1.98 2 3 C1.34 3 0.68 3 0 3 C0 5.31 0 7.62 0 10 C-0.99 10.33 -1.98 10.66 -3 11 C-3 11.66 -3 12.32 -3 13 C-3.66 13 -4.32 13 -5 13 C-3.58192622 8.52761347 -1.88695626 4.28853694 0 0 Z " fill="#0C4695" transform="translate(274,265)"/>
<path d="M0 0 C0.66 0 1.32 0 2 0 C2 0.66 2 1.32 2 2 C2.66 2 3.32 2 4 2 C4.33 4.31 4.66 6.62 5 9 C5.99 9 6.98 9 8 9 C7.67 9.99 7.34 10.98 7 12 C6.34 12 5.68 12 5 12 C4.16180842 10.37750059 3.3295884 8.75191503 2.5 7.125 C2.0359375 6.22007812 1.571875 5.31515625 1.09375 4.3828125 C0 2 0 2 0 0 Z " fill="#1A488D" transform="translate(237,259)"/>
<path d="M0 0 C2.475 0.495 2.475 0.495 5 1 C5 1.99 5 2.98 5 4 C5.66 4 6.32 4 7 4 C7.33 4.99 7.66 5.98 8 7 C7.01 7 6.02 7 5 7 C5 7.66 5 8.32 5 9 C4.34 9 3.68 9 3 9 C3.33 6.69 3.66 4.38 4 2 C2.68 1.34 1.36 0.68 0 0 Z " fill="#B19D4C" transform="translate(239,279)"/>
<path d="M0 0 C0.66 0 1.32 0 2 0 C2.67119549 1.4562545 3.33681807 2.91507867 4 4.375 C4.556875 5.59316406 4.556875 5.59316406 5.125 6.8359375 C6 9 6 9 6 11 C5.34 11 4.68 11 4 11 C4 10.01 4 9.02 4 8 C3.34 8 2.68 8 2 8 C1.67 7.01 1.34 6.02 1 5 C0.34 4.67 -0.32 4.34 -1 4 C-0.67 2.68 -0.34 1.36 0 0 Z " fill="#275083" transform="translate(187,249)"/>
<path d="M0 0 C3.42931954 3.7559214 4.56429083 8.23466745 6 13 C5.01 13 4.02 13 3 13 C2.49242138 11.58603098 1.99425075 10.16868271 1.5 8.75 C1.08234375 7.56664062 1.08234375 7.56664062 0.65625 6.359375 C0 4 0 4 0 0 Z " fill="#11458F" transform="translate(234,216)"/>
<path d="M0 0 C0.33 0 0.66 0 1 0 C1.85330338 5.83475015 2.48351814 10.44860651 0 16 C-0.33 16 -0.66 16 -1 16 C-0.67 10.72 -0.34 5.44 0 0 Z " fill="#114A94" transform="translate(194,184)"/>
<path d="M0 0 C1.50433594 0.01353516 1.50433594 0.01353516 3.0390625 0.02734375 C3.80992187 0.03894531 4.58078125 0.05054688 5.375 0.0625 C5.375 0.3925 5.375 0.7225 5.375 1.0625 C-3.05357143 3.34821429 -3.05357143 3.34821429 -7.625 3.0625 C-7.625 2.4025 -7.625 1.7425 -7.625 1.0625 C-4.98041621 -0.25979189 -2.94738699 -0.03427194 0 0 Z " fill="#044BAD" transform="translate(161.625,128.9375)"/>
<path d="M0 0 C2.9555377 2.75170751 5.11563315 5.41970299 7 9 C7 9.66 7 10.32 7 11 C6.34 11 5.68 11 5 11 C5 10.01 5 9.02 5 8 C4.01 8 3.02 8 2 8 C1.34 5.36 0.68 2.72 0 0 Z " fill="#0E4696" transform="translate(202,152)"/>
<path d="M0 0 C2.96052484 3.36423277 3.92289822 6.69159287 5 11 C2.5 9.4375 2.5 9.4375 0 7 C-0.3125 3.25 -0.3125 3.25 0 0 Z " fill="#0E4690" transform="translate(228,203)"/>
<path d="M0 0 C0.33 0 0.66 0 1 0 C3 5.625 3 5.625 3 9 C0.69 6.69 -1.62 4.38 -4 2 C-3.34 1.67 -2.68 1.34 -2 1 C-1.34 1.33 -0.68 1.66 0 2 C0 1.34 0 0.68 0 0 Z " fill="#124A98" transform="translate(356,329)"/>
<path d="M0 0 C2.50298434 2.93828597 3.46930939 5.17902761 4 9 C3.01 8.67 2.02 8.34 1 8 C1 7.01 1 6.02 1 5 C0.01 4.67 -0.98 4.34 -2 4 C-1.34 4 -0.68 4 0 4 C-0.33 3.01 -0.66 2.02 -1 1 C-0.67 0.67 -0.34 0.34 0 0 Z " fill="#AA985E" transform="translate(220,285)"/>
<path d="M0 0 C0.33 0 0.66 0 1 0 C1.22786458 2.01822917 1.45572917 4.03645833 1.68359375 6.0546875 C1.91292961 8.07404316 1.91292961 8.07404316 3 10 C2.34 10 1.68 10 1 10 C0.67 10.99 0.34 11.98 0 13 C-0.33 13 -0.66 13 -1 13 C-0.67 8.71 -0.34 4.42 0 0 Z " fill="#A8935E" transform="translate(154,284)"/>
<path d="M0 0 C0.54372951 3.05847848 1 5.88772805 1 9 C-4 3.25 -4 3.25 -4 1 C-2 0 -2 0 0 0 Z " fill="#A8955E" transform="translate(308,338)"/>
<path d="M0 0 C2.96404505 2.80804268 5.44499019 5.18315774 7 9 C4.625 8.4375 4.625 8.4375 2 7 C0.6875 3.375 0.6875 3.375 0 0 Z " fill="#0C4798" transform="translate(363,321)"/>
<path d="M0 0 C1.125 3.75 1.125 3.75 0 6 C-1.65 6 -3.3 6 -5 6 C-3.35 4.02 -1.7 2.04 0 0 Z " fill="#A6935F" transform="translate(149,318)"/>
<path d="M0 0 C5 7.5 5 7.5 5 11 C4.34 11 3.68 11 3 11 C0 4.5 0 4.5 0 0 Z " fill="#0F428C" transform="translate(218,181)"/>
<path d="M0 0 C3 2 3 2 3.6875 4.125 C3.790625 4.74375 3.89375 5.3625 4 6 C1.08482708 4.92598892 -0.77810176 4.22189824 -3 2 C-2.01 1.34 -1.02 0.68 0 0 Z " fill="#104897" transform="translate(169,134)"/>
<path d="M0 0 C1.32 0.66 2.64 1.32 4 2 C2.35 3.32 0.7 4.64 -1 6 C-1.625 4.125 -1.625 4.125 -2 2 C-1.34 1.34 -0.68 0.68 0 0 Z " fill="#04479C" transform="translate(194,304)"/>
<path d="M0 0 C2.15377564 2.62198774 3.40072174 4.64404172 4 8 C3.01 7.34 2.02 6.68 1 6 C0.01 6.495 0.01 6.495 -1 7 C-1.66 6.34 -2.32 5.68 -3 5 C-2.01 4.34 -1.02 3.68 0 3 C0 2.01 0 1.02 0 0 Z " fill="#A99660" transform="translate(181,201)"/>
<path d="M0 0 C2.64465038 3.1254959 3.84414715 6.08788267 5 10 C4.01 9.67 3.02 9.34 2 9 C1.26953125 6.93359375 1.26953125 6.93359375 0.8125 4.4375 C0.65394531 3.61121094 0.49539062 2.78492188 0.33203125 1.93359375 C0.16767578 0.97646484 0.16767578 0.97646484 0 0 Z " fill="#A19362" transform="translate(200,242)"/>
<path d="M0 0 C0.33 0 0.66 0 1 0 C1 3.3 1 6.6 1 10 C0.34 10 -0.32 10 -1 10 C-1.33 8.35 -1.66 6.7 -2 5 C-1.34 5 -0.68 5 0 5 C0 3.35 0 1.7 0 0 Z " fill="#215089" transform="translate(199,229)"/>
<path d="M0 0 C2.50298434 2.93828597 3.46930939 5.17902761 4 9 C3.34 8.67 2.68 8.34 2 8 C2 7.34 2 6.68 2 6 C1.34 6 0.68 6 0 6 C0 4.02 0 2.04 0 0 Z " fill="#A89860" transform="translate(177,192)"/>
</svg>
