<?xml version="1.0" encoding="UTF-8"?>
<svg version="1.1" xmlns="http://www.w3.org/2000/svg" width="500" height="500">
<path d="M0 0 C17.9343095 12.1915253 26.75856785 30.24194365 35.375 49.5 C36.15088653 51.21156931 36.92800592 52.92258023 37.70629883 54.63305664 C38.88446004 57.22320248 40.06166656 59.81374108 41.23445129 62.40632629 C44.56878985 69.77716223 47.98572743 77.10735528 51.42730713 84.42858887 C56.32111992 94.84384265 61.09982942 105.29399089 65.625 115.875 C70.924275 105.54517173 75.75747197 95.05955447 80.4375 84.4375 C81.13846186 82.85309717 81.83963586 81.26878818 82.54101562 79.68457031 C87.95734184 67.43873844 93.32306305 55.17081554 98.625 42.875 C99.945 42.875 101.265 42.875 102.625 42.875 C104.935 56.075 107.245 69.275 109.625 82.875 C110.8625 79.94625 112.1 77.0175 113.375 74 C117.42568731 64.48857122 121.72152808 55.10316626 126.08398438 45.73144531 C131.12762988 34.8639755 135.90843007 23.88771597 140.625 12.875 C141.945 12.875 143.265 12.875 144.625 12.875 C145.92118982 15.46737965 146.12809322 17.80664585 146.53515625 20.68408203 C146.80646362 22.57222122 146.80646362 22.57222122 147.08325195 24.49850464 C147.22955551 25.53095118 147.22955551 25.53095118 147.3788147 26.58425522 C147.92538844 30.43286521 148.48625476 34.27939147 149.046875 38.12597656 C149.16992508 38.97100424 149.29297516 39.81603191 149.41975403 40.68666649 C152.01594337 58.44894564 154.80007372 76.18354657 157.56347656 93.92041016 C158.27612816 98.49778203 158.98351433 103.07592262 159.68652344 107.65478516 C160.5529114 113.29742349 161.42851096 118.93856357 162.31039429 124.5788002 C162.63878022 126.688587 162.9641217 128.7988505 163.28604126 130.90963364 C164.87130133 141.28856418 166.6238066 151.57076047 169.12109375 161.77392578 C169.31229294 162.56639143 169.50349213 163.35885708 169.70048523 164.17533684 C173.53379812 179.12825213 181.87139076 193.8393921 194.625 202.875 C204.00077706 208.30044966 212.237362 211.01299651 223.05078125 211.43359375 C224.32501953 211.65208984 224.32501953 211.65208984 225.625 211.875 C226.285 212.865 226.945 213.855 227.625 214.875 C216.44942537 220.12667981 201.86223833 216.54481882 190.625 212.875 C174.05829449 206.5956842 162.45327677 193.24404372 155.15234375 177.4140625 C145.54800214 155.15950113 144.37237298 129.37187313 141.29486084 105.53125 C140.51191231 99.47381176 139.72010327 93.4175248 138.92863846 87.36119461 C138.65781099 85.28286952 138.38927418 83.20425971 138.1211853 81.12557983 C137.19513252 67.628559 137.19513252 67.628559 133.625 54.875 C129.58314223 63.52267215 125.59120502 72.19239497 121.625 80.875 C120.95500977 82.327854 120.95500977 82.327854 120.27148438 83.81005859 C119.11899801 86.32319574 117.99254188 88.84616984 116.875 91.375 C116.54048828 92.09534424 116.20597656 92.81568848 115.86132812 93.55786133 C111.57392975 103.46382613 114.01803265 113.93064284 115.63671875 124.25390625 C115.84926914 125.63373379 116.06148656 127.01361265 116.27339172 128.39353943 C116.71802422 131.27629346 117.16847155 134.15806592 117.62280273 137.03930664 C118.08239714 139.95762987 118.53321009 142.87707614 118.9753418 145.7980957 C122.63081955 173.36566576 122.63081955 173.36566576 132.625 199.0625 C132.94210937 199.65095703 133.25921875 200.23941406 133.5859375 200.84570312 C139.189439 210.94321282 148.26065774 218.71022647 158.9453125 223.1328125 C165.02163624 224.81575931 171.36380464 225.29113393 177.625 225.875 C177.955 227.195 178.285 228.515 178.625 229.875 C164.36909872 233.07162162 148.30235883 229.96095785 135.625 222.875 C131.9851269 220.14378962 128.7949335 217.13344822 125.625 213.875 C124.99980469 213.27042969 124.37460937 212.66585937 123.73046875 212.04296875 C105.55598154 193.21206665 104.34475627 164.99752093 101.37303162 140.48405457 C100.96923885 137.22037531 100.53880969 134.0390916 99.625 130.875 C97.54969639 135.45532623 95.48741428 140.04123302 93.43603516 144.63232422 C92.73922841 146.1872326 92.03913378 147.74067257 91.33544922 149.29248047 C86.93308733 159.00782118 83.19206089 168.50482289 80.625 178.875 C79.305 178.875 77.985 178.875 76.625 178.875 C71.77513273 169.28604923 67.05206612 159.66820688 62.625 149.875 C59.52973428 154.51789857 57.4294007 159.64763797 55.13964844 164.72241211 C54.26853475 166.64655977 53.38451357 168.56440576 52.5 170.48242188 C48.72001664 178.79123807 45.87338669 187.02080192 43.625 195.875 C42.305 195.875 40.985 195.875 39.625 195.875 C30.51700963 176.5903209 21.44747213 157.29241767 12.625 137.875 C12.12013565 141.76852299 11.63873496 145.66417917 11.1784668 149.56323242 C10.9404757 151.537811 10.68421687 153.51015996 10.42773438 155.48242188 C10.28271484 156.72958984 10.13769531 157.97675781 9.98828125 159.26171875 C9.84688721 160.40858154 9.70549316 161.55544434 9.55981445 162.73706055 C9.635463 166.37867382 10.42033539 168.01566386 12.625 170.875 C14.85357246 172.09671716 14.85357246 172.09671716 17.3125 172.6875 C18.12074219 172.92082031 18.92898437 173.15414062 19.76171875 173.39453125 C20.37660156 173.55308594 20.99148437 173.71164062 21.625 173.875 C21.295 174.865 20.965 175.855 20.625 176.875 C14.98332031 176.89970254 9.34167205 176.91786121 3.69995117 176.92993164 C1.78034924 176.93496315 -0.13924886 176.94178898 -2.05883789 176.95043945 C-4.81657864 176.96255669 -7.57426876 176.96824011 -10.33203125 176.97265625 C-11.62123222 176.98039818 -11.62123222 176.98039818 -12.93647766 176.98829651 C-13.73708115 176.98837204 -14.53768463 176.98844757 -15.36254883 176.98852539 C-16.41844963 176.99185631 -16.41844963 176.99185631 -17.49568176 176.99525452 C-19.375 176.875 -19.375 176.875 -22.375 175.875 C-22.28766424 177.48017097 -22.17947776 179.08421662 -22.0625 180.6875 C-21.97548828 182.02748047 -21.97548828 182.02748047 -21.88671875 183.39453125 C-21.29744735 186.25092315 -20.69509468 187.15641135 -18.375 188.875 C-16.06511685 189.61886068 -13.73184056 190.29690703 -11.375 190.875 C-11.375 191.535 -11.375 192.195 -11.375 192.875 C-24.905 193.205 -38.435 193.535 -52.375 193.875 C-52.375 192.555 -52.375 191.235 -52.375 189.875 C-51.71113281 189.77703125 -51.04726562 189.6790625 -50.36328125 189.578125 C-45.04926898 188.67823387 -41.2066347 187.94611187 -37.375 183.875 C-35.56264825 180.82404989 -34.9774956 178.17124511 -34.55078125 174.6640625 C-34.41269043 173.5517627 -34.27459961 172.43946289 -34.13232422 171.29345703 C-33.98553223 170.04161621 -33.83874023 168.78977539 -33.6875 167.5 C-33.52394851 166.14823256 -33.3600331 164.79650911 -33.19580078 163.44482422 C-30.5031256 141.07555061 -28.02394691 118.67736318 -25.54112244 96.28384399 C-24.94733154 90.9316126 -24.34658666 85.58156892 -23.68457031 80.23730469 C-23.58455719 79.41011932 -23.48454407 78.58293396 -23.38150024 77.73068237 C-23.20395884 76.27135123 -23.01968676 74.81281041 -22.82626343 73.35549927 C-21.56112548 62.80597054 -25.3038849 55.46486537 -31.62060547 47.25634766 C-39.57365727 37.49322977 -48.53488018 29.92974172 -61.47265625 28.54296875 C-64.43895018 28.28276753 -67.40319783 28.06043265 -70.375 27.875 C-70.375 26.885 -70.375 25.895 -70.375 24.875 C-57.31569605 21.00557661 -44.80438541 22.91077539 -32.80859375 29.37890625 C-12.74696642 41.71213782 -4.29520722 62.16398696 4.625 82.875 C5.20504454 78.0055569 5.77415952 73.13499277 6.33398438 68.26318359 C6.52513105 66.61245884 6.71905498 64.96205286 6.91601562 63.31201172 C10.30107755 43.65619947 10.30107755 43.65619947 4.6875 25.625 C4.28217041 25.05201172 3.87684082 24.47902344 3.45922852 23.88867188 C-4.39295379 13.02878675 -14.43826997 1.06206331 -28.33642578 -1.484375 C-33.00037585 -2.19042917 -37.6791174 -2.68710175 -42.375 -3.125 C-42.045 -4.445 -41.715 -5.765 -41.375 -7.125 C-27.91718493 -11.14274576 -11.627472 -7.40828784 0 0 Z M18.625 55.875 C17.66130301 64.44932976 17.66130301 64.44932976 16.80566406 73.03491211 C16.67908923 74.38916509 16.55246159 75.74341313 16.42578125 77.09765625 C16.3631308 77.77233444 16.30048035 78.44701263 16.2359314 79.14213562 C15.86598694 82.95309773 15.33415166 86.67612451 14.60546875 90.43359375 C11.6636025 108.28887135 21.46301403 123.22388242 29.41943359 138.55957031 C32.56161007 144.64930667 35.37871382 150.8756904 38.1875 157.125 C39.06310129 159.04719438 39.93931947 160.96910798 40.81640625 162.890625 C41.41961496 164.21859374 42.02263175 165.54664982 42.625 166.875 C43.285 166.875 43.945 166.875 44.625 166.875 C46.37468321 163.168057 48.10096305 159.45116947 49.80688477 155.72387695 C50.38951916 154.45926795 50.9783054 153.19747343 51.57348633 151.9387207 C52.43128082 150.12174947 53.26472628 148.29334683 54.09765625 146.46484375 C54.60562744 145.37034912 55.11359863 144.27585449 55.63696289 143.14819336 C57.62677511 136.55629506 55.15818185 131.13146733 52.4140625 125.125 C52.09005463 124.39787308 51.76604675 123.67074615 51.43222046 122.92158508 C50.38047918 120.56856463 49.31573031 118.22171356 48.25 115.875 C47.51779166 114.24653453 46.78602363 112.61787103 46.0546875 110.98901367 C40.81712504 99.35808341 35.4003459 87.82204068 29.81689453 76.35302734 C28.60135761 73.8258459 27.41869074 71.28564713 26.24609375 68.73828125 C25.87548828 67.93543701 25.50488281 67.13259277 25.12304688 66.30541992 C24.4383377 64.8169971 23.75830329 63.32641073 23.08398438 61.83325195 C21.59603211 58.19929151 21.59603211 58.19929151 18.625 55.875 Z M92.625 77.875 C92.34938232 78.50140381 92.07376465 79.12780762 91.78979492 79.77319336 C90.95059495 81.68046602 90.1100457 83.58714525 89.26855469 85.4934082 C88.28685418 87.7312047 87.31504635 89.97336382 86.35253906 92.21948242 C83.82283274 98.08443261 81.1892752 103.78989524 78.12890625 109.3984375 C71.52887492 121.05664359 71.52887492 121.05664359 71.94140625 133.890625 C73.96746329 138.88071256 76.55305693 143.45706772 79.625 147.875 C83.23757048 144.724474 85.02202255 141.34449706 86.82421875 136.9921875 C87.10473587 136.33670929 87.38525299 135.68123108 87.67427063 135.00588989 C88.56278776 132.92432749 89.4378783 130.83743366 90.3125 128.75 C90.91120962 127.33946151 91.51081014 125.9293008 92.11132812 124.51953125 C93.20704835 121.94618001 94.29664183 119.37038822 95.3815918 116.79248047 C96.08797621 115.13504993 96.8192637 113.48647261 97.625 111.875 C97.53855186 100.55029393 95.21213153 89.06106716 93.625 77.875 C93.295 77.875 92.965 77.875 92.625 77.875 Z M-13.375 80.875 C-14.53182979 84.34548936 -14.81683989 87.69062369 -15.13110352 91.30883789 C-15.19952454 92.06374512 -15.26794556 92.81865234 -15.33843994 93.59643555 C-15.56397724 96.09652501 -15.78413584 98.59705371 -16.00390625 101.09765625 C-16.15922749 102.84062883 -16.31474281 104.58358412 -16.47044373 106.32652283 C-16.79643708 109.98561977 -17.11971116 113.64494467 -17.44116211 117.30444336 C-17.85150276 121.97285271 -18.26904859 126.64058409 -18.68875217 131.30815983 C-19.01189745 134.91204946 -19.33087353 138.51629924 -19.64866447 142.1206646 C-19.80082079 143.84020247 -19.95430664 145.55962327 -20.1091938 147.27891731 C-20.87696605 155.82412714 -21.58279678 164.28480049 -21.375 172.875 C-15.53933541 172.47254037 -12.00402712 171.75046456 -7.375 167.875 C-4.85491266 164.29155873 -3.88403238 161.38506042 -3.3125 157.0625 C-3.08046875 155.34933594 -3.08046875 155.34933594 -2.84375 153.6015625 C-2.6890625 152.37179687 -2.534375 151.14203125 -2.375 149.875 C-2.1996875 148.58335937 -2.024375 147.29171875 -1.84375 145.9609375 C-0.82949211 138.36973541 -0.07594901 130.80524459 0.37890625 123.15625 C0.625 119.875 0.625 119.875 1.32568359 116.14257812 C1.88772071 111.64833932 0.61630318 108.31279373 -1.33984375 104.3125 C-1.80808311 103.29736328 -1.80808311 103.29736328 -2.28578186 102.26171875 C-3.27684545 100.12392745 -4.29396615 97.99981831 -5.3125 95.875 C-5.99330461 94.41879409 -6.67235919 92.96176864 -7.34960938 91.50390625 C-9.00466042 87.95114348 -10.68318034 84.41039195 -12.375 80.875 C-12.705 80.875 -13.035 80.875 -13.375 80.875 Z " fill="#FBDE60" transform="translate(185.375,135.125)"/>
<path d="M0 0 C1.32 0 2.64 0 4 0 C5.29618982 2.59237965 5.50309322 4.93164585 5.91015625 7.80908203 C6.09102783 9.06784149 6.27189941 10.32660095 6.45825195 11.62350464 C6.55578766 12.31180233 6.65332336 13.00010002 6.7538147 13.70925522 C7.30038844 17.55786521 7.86125476 21.40439147 8.421875 25.25097656 C8.60645012 26.51851808 8.60645012 26.51851808 8.79475403 27.81166649 C11.39094337 45.57394564 14.17507372 63.30854657 16.93847656 81.04541016 C17.65112816 85.62278203 18.35851433 90.20092262 19.06152344 94.77978516 C19.9279114 100.42242349 20.80351096 106.06356357 21.68539429 111.7038002 C22.01378022 113.813587 22.3391217 115.9238505 22.66104126 118.03463364 C24.24630133 128.41356418 25.9988066 138.69576047 28.49609375 148.89892578 C28.68729294 149.69139143 28.87849213 150.48385708 29.07548523 151.30033684 C32.90879812 166.25325213 41.24639076 180.9643921 54 190 C63.37577706 195.42544966 71.612362 198.13799651 82.42578125 198.55859375 C83.70001953 198.77708984 83.70001953 198.77708984 85 199 C85.66 199.99 86.32 200.98 87 202 C75.82442537 207.25167981 61.23723833 203.66981882 50 200 C33.43329449 193.7206842 21.82827677 180.36904372 14.52734375 164.5390625 C4.92300214 142.28450113 3.74737298 116.49687313 0.66986084 92.65625 C-0.11308769 86.59881176 -0.90489673 80.5425248 -1.69636154 74.48619461 C-1.96718901 72.40786952 -2.23572582 70.32925971 -2.5038147 68.25057983 C-3.42986748 54.753559 -3.42986748 54.753559 -7 42 C-16.17202804 61.57065427 -16.17202804 61.57065427 -24.58789062 81.47387695 C-26.79182179 86.89591089 -26.79182179 86.89591089 -29 88 C-32.79005703 73.63223834 -29.67645173 64.96469569 -23.42382812 51.96582031 C-21.42631967 47.80502939 -19.50578385 43.60988901 -17.57788086 39.41650391 C-16.56975675 37.22679402 -15.55756345 35.03895287 -14.54125977 32.85302734 C-9.49305804 21.98882425 -4.71613726 11.01170573 0 0 Z " fill="#D9D9D8" transform="translate(326,148)"/>
<path d="M0 0 C17.9343095 12.1915253 26.75856785 30.24194365 35.375 49.5 C36.15088653 51.21156931 36.92800592 52.92258023 37.70629883 54.63305664 C38.88446004 57.22320248 40.06166656 59.81374108 41.23445129 62.40632629 C44.56853259 69.77659352 47.98595293 77.10573555 51.42785645 84.42611694 C52.85040739 87.45951496 54.25816258 90.49972095 55.66796875 93.5390625 C57.44473365 97.36655032 59.25198114 101.17391652 61.11328125 104.9609375 C66.25547355 115.61211609 66.25547355 115.61211609 65.3125 120.75 C64.5703125 122.78125 64.5703125 122.78125 63.625 124.875 C63.15707031 126.18984375 63.15707031 126.18984375 62.6796875 127.53125 C61.13993048 131.75042672 59.89186522 134.76025046 56.625 137.875 C56.13773437 136.70710937 55.65046875 135.53921875 55.1484375 134.3359375 C49.22123994 120.25866437 42.8110325 106.42914264 36.31329346 92.60995483 C32.61713468 84.74235956 28.98728853 76.8443379 25.35620117 68.9465332 C24.89318604 67.94066162 24.4301709 66.93479004 23.953125 65.8984375 C23.5499707 65.02106934 23.14681641 64.14370117 22.73144531 63.23974609 C21.7299714 61.09934974 20.6932126 58.98273607 19.625 56.875 C17.89526639 72.86896967 16.19286964 88.8642841 14.625 104.875 C7.43236082 96.30036901 4.02708777 88.65316952 4.82617188 77.4855957 C5.31535494 72.59816135 5.93394142 67.73765026 6.625 62.875 C6.82753866 61.36094564 7.02824865 59.84664477 7.2265625 58.33203125 C7.36034302 57.31447754 7.36034302 57.31447754 7.49682617 56.27636719 C7.90044848 53.14547242 8.27046248 50.01181289 8.625 46.875 C8.77066406 45.68777344 8.91632813 44.50054687 9.06640625 43.27734375 C9.95748845 30.50516557 2.99911897 22.61134402 -4.9375 13.375 C-16.02285455 1.6556477 -26.74084453 -1.66709102 -42.375 -3.125 C-42.045 -4.445 -41.715 -5.765 -41.375 -7.125 C-27.91718493 -11.14274576 -11.627472 -7.40828784 0 0 Z " fill="#D9D9D8" transform="translate(185.375,135.125)"/>
<path d="M0 0 C0.99 0.33 1.98 0.66 3 1 C3.26478149 2.59654419 3.26478149 2.59654419 3.53491211 4.2253418 C4.19195921 8.18576644 4.85009076 12.14601024 5.50854492 16.10620117 C5.79301925 17.8180663 6.07720206 19.5299799 6.36108398 21.24194336 C6.7698978 23.70699758 7.17977021 26.17187382 7.58984375 28.63671875 C7.71592514 29.39836838 7.84200653 30.16001801 7.97190857 30.94474792 C8.5882905 34.64342733 9.23532235 38.32891269 10 42 C10.33 42 10.66 42 11 42 C11.03738281 42.70640625 11.07476562 43.4128125 11.11328125 44.140625 C11.53488181 50.72090038 12.2614587 57.17902509 13.26953125 63.69140625 C13.39941437 64.54241409 13.52929749 65.39342194 13.66311646 66.2702179 C13.95109075 68.1561748 14.24001651 70.0419866 14.52975464 71.92767334 C15.02770308 75.1809968 15.51842443 78.43535637 16.00805664 81.68994141 C16.92441561 87.77135958 17.85700097 93.85015291 18.796875 99.92797852 C19.18301638 102.43903897 19.56483729 104.95076753 19.94238281 107.46313477 C23.49196519 133.20427431 23.49196519 133.20427431 33 157.1875 C33.31710937 157.77595703 33.63421875 158.36441406 33.9609375 158.97070312 C39.564439 169.06821282 48.63565774 176.83522647 59.3203125 181.2578125 C65.39663624 182.94075931 71.73880464 183.41613393 78 184 C78.33 185.32 78.66 186.64 79 188 C64.74409872 191.19662162 48.67735883 188.08595785 36 181 C32.3601269 178.26878962 29.1699335 175.25844822 26 172 C25.37480469 171.39542969 24.74960937 170.79085937 24.10546875 170.16796875 C3.01973453 148.32067303 1.78923916 110.15147951 0.23730469 81.52075195 C0.27629552 79.06372225 0.27629552 79.06372225 -1 78 C-1.73003005 74.12220198 -2.24328315 70.21170503 -2.78442383 66.3034668 C-3.05526523 64.36429942 -3.3409091 62.4272176 -3.62695312 60.49023438 C-4.82797726 51.89829252 -5.23387969 43.66696115 -5 35 C-5.66 35 -6.32 35 -7 35 C-7 34.34 -7 33.68 -7 33 C-7.66 32.67 -8.32 32.34 -9 32 C-8.7215625 31.1028125 -8.7215625 31.1028125 -8.4375 30.1875 C-7.77906313 27.83591238 -7.77906313 27.83591238 -9 25 C-9.69428475 19.13812745 -7.49019002 14.86242214 -5.0625 9.6875 C-4.68931641 8.86443359 -4.31613281 8.04136719 -3.93164062 7.19335938 C-1.18049487 1.18049487 -1.18049487 1.18049487 0 0 Z " fill="#FCDE5F" transform="translate(285,177)"/>
<path d="M0 0 C0.99 0.33 1.98 0.66 3 1 C3.27315741 9.95899013 2.5246443 18.76440883 1.70362854 27.67305183 C1.46379276 30.27646701 1.23012926 32.88037553 0.9979248 35.48448181 C0.50402942 41.01098249 0.00244827 46.53677132 -0.5 52.0625 C-1.0827904 58.47626243 -1.66232773 64.89029195 -2.23472595 71.30499077 C-2.46373374 73.85431504 -2.69809249 76.40310908 -2.93273926 78.95191956 C-5.29027581 91.90376663 -5.29027581 91.90376663 -2.71276855 103.67933655 C-0.09019134 105.70152564 2.82354489 106.2208695 6 107 C6 107.66 6 108.32 6 109 C-7.53 109.33 -21.06 109.66 -35 110 C-35 108.68 -35 107.36 -35 106 C-34.33613281 105.90203125 -33.67226562 105.8040625 -32.98828125 105.703125 C-27.67426898 104.80323387 -23.8316347 104.07111187 -20 100 C-18.11893669 96.8616079 -17.5782045 94.08743051 -17.140625 90.47265625 C-16.9972168 89.3125 -16.85380859 88.15234375 -16.70605469 86.95703125 C-16.55555664 85.67183594 -16.40505859 84.38664062 -16.25 83.0625 C-16.08537997 81.70047012 -15.92032629 80.3384926 -15.75488281 78.9765625 C-13.02752294 56.33492048 -10.53369951 33.66394597 -8 11 C-7.34 11 -6.68 11 -6 11 C-6 10.34 -6 9.68 -6 9 C-5.34 9 -4.68 9 -4 9 C-4 7.68 -4 6.36 -4 5 C-3.34 5 -2.68 5 -2 5 C-1.34 3.35 -0.68 1.7 0 0 Z " fill="#FCDE5F" transform="translate(168,219)"/>
<path d="M0 0 C0.66 0 1.32 0 2 0 C2.22786458 2.05078125 2.45572917 4.1015625 2.68359375 6.15234375 C2.81886614 8.01140229 2.81886614 8.01140229 4 9 C5.16018208 17.4113201 1.77228582 23.45456033 -1.90429688 30.78710938 C-7.71889621 42.53031979 -12.97372288 54.21768264 -16 67 C-17.32 67 -18.64 67 -20 67 C-21.92992972 63.18525579 -23.84671062 59.36516323 -25.73828125 55.53125 C-27.18446089 52.60506929 -28.68071108 49.71627021 -30.23046875 46.84375 C-30.9042497 45.54197904 -31.57745173 44.23990824 -32.25 42.9375 C-32.58588135 42.34380615 -32.9217627 41.7501123 -33.26782227 41.13842773 C-34.140625 39.40234375 -34.140625 39.40234375 -35 36 C-34.01123186 33.32347666 -32.6279995 31.39511969 -31 29 C-30.31744011 26.67126625 -29.64949225 24.33817209 -29 22 C-27.375 19.0625 -27.375 19.0625 -26 17 C-23.16811225 20.4505463 -21.25496982 24.25962359 -19.3125 28.25 C-18.99216797 28.8996875 -18.67183594 29.549375 -18.34179688 30.21875 C-17.55752859 31.81069757 -16.77825745 33.40510529 -16 35 C-12.09331341 27.41826127 -8.59208575 19.69327436 -5.1875 11.875 C-4.68541016 10.72773438 -4.18332031 9.58046875 -3.66601562 8.3984375 C-2.44168387 5.59996492 -1.21972942 2.80048082 0 0 Z " fill="#D9D8D7" transform="translate(282,247)"/>
<path d="M0 0 C1.83203125 0.1875 1.83203125 0.1875 4 1 C5.44921875 3.25 5.44921875 3.25 6.6875 6 C8.00041963 9.2293461 8.00041963 9.2293461 10 12 C11.86195119 21.93040635 10.75060587 31.59631567 9.44726562 41.53515625 C9.00020949 45.52116647 8.70847461 48.23671561 10.15625 52.02734375 C12.27243536 54.29148275 13.71827455 54.99488719 16.6875 55.8125 C17.49574219 56.04582031 18.30398437 56.27914062 19.13671875 56.51953125 C20.05904297 56.75736328 20.05904297 56.75736328 21 57 C20.67 57.99 20.34 58.98 20 60 C14.34000977 60.02467467 8.68005068 60.04284788 3.02001953 60.05493164 C1.09358169 60.05996787 -0.83285231 60.06679712 -2.75927734 60.07543945 C-5.52442368 60.08753608 -8.28951958 60.09323533 -11.0546875 60.09765625 C-12.3516304 60.10539818 -12.3516304 60.10539818 -13.67477417 60.11329651 C-19.77225659 60.11387171 -19.77225659 60.11387171 -22 59 C-22 58.01 -22 57.02 -22 56 C-21.33613281 55.84144531 -20.67226562 55.68289063 -19.98828125 55.51953125 C-14.40103281 54.04319261 -10.58090793 52.81184503 -7 48 C-4.5571344 42.2504418 -4.12992049 36.14967919 -3.4375 30 C-3.30746582 28.8867334 -3.17743164 27.7734668 -3.04345703 26.62646484 C-2.23818346 19.58211632 -1.57995329 12.5581513 -1.2109375 5.4765625 C-1 3 -1 3 0 0 Z " fill="#DAD9D8" transform="translate(186,252)"/>
<path d="M0 0 C2.38094865 2.38094865 3.25665947 4.54432272 4.625 7.625 C7.00995638 12.89762416 9.5137861 18.08600496 12.125 23.25 C20 38.88118812 20 38.88118812 20 42 C18.515 41.505 18.515 41.505 17 41 C16.26953125 38.93359375 16.26953125 38.93359375 15.8125 36.4375 C15.57466797 35.19806641 15.57466797 35.19806641 15.33203125 33.93359375 C15.22246094 33.29550781 15.11289063 32.65742188 15 32 C13.515 32.495 13.515 32.495 12 33 C10.87914688 35.3430809 10.87914688 35.3430809 10 38 C9.64292969 38.61746094 9.28585938 39.23492187 8.91796875 39.87109375 C7.80200779 42.45917342 7.96817214 43.98357057 8.375 46.75 C8.48585937 47.54921875 8.59671875 48.3484375 8.7109375 49.171875 C8.85402344 50.07679688 8.85402344 50.07679688 9 51 C9.66 51 10.32 51 11 51 C11 51.99 11 52.98 11 54 C11.66 54 12.32 54 13 54 C13 55.98 13 57.96 13 60 C13.66 60 14.32 60 15 60 C15.70180531 61.4096347 16.38593958 62.82807641 17.0625 64.25 C17.44535156 65.03890625 17.82820313 65.8278125 18.22265625 66.640625 C19.10224325 69.31032626 18.77788565 70.37312137 18 73 C16.32705993 69.54466686 14.66272237 66.08526007 13 62.625 C12.52304688 61.64015625 12.04609375 60.6553125 11.5546875 59.640625 C11.10351562 58.69960938 10.65234375 57.75859375 10.1875 56.7890625 C9.76855469 55.91975098 9.34960938 55.05043945 8.91796875 54.15478516 C8 52 8 52 8 50 C7.34 50 6.68 50 6 50 C5.938125 49.01 5.87625 48.02 5.8125 47 C5.25815301 42.92927282 3.45601361 40.13955466 1.15625 36.796875 C0 35 0 35 -1 32 C-1.99 31.34 -2.98 30.68 -4 30 C-4.625 27.125 -4.625 27.125 -5 24 C-5.31674575 22.66262906 -5.64270064 21.32711192 -6 20 C-5.34 20 -4.68 20 -4 20 C-4 20.99 -4 21.98 -4 23 C-2.68 22.67 -1.36 22.34 0 22 C0 23.98 0 25.96 0 28 C0.66 28 1.32 28 2 28 C3.36277086 26.21034453 3.36277086 26.21034453 4.625 24 C5.07101563 23.2575 5.51703125 22.515 5.9765625 21.75 C6.31429687 21.1725 6.65203125 20.595 7 20 C6.67 19.67 6.34 19.34 6 19 C5.34 19 4.68 19 4 19 C3.96261719 18.41992188 3.92523438 17.83984375 3.88671875 17.2421875 C3.45549329 12.1182144 2.45276187 8.58559828 0 4 C0 2.68 0 1.36 0 0 Z " fill="#FADD65" transform="translate(190,221)"/>
<path d="M0 0 C1.2078975 3.6236925 0.69261378 4.29966438 -0.8125 7.6875 C-2.68325052 12.09573911 -3.96223395 16.33005276 -5 21 C-6.32 21 -7.64 21 -9 21 C-11.31 16.05 -13.62 11.1 -16 6 C-15.34 5.34 -14.68 4.68 -14 4 C-11 10.625 -11 10.625 -11 14 C-10.01 14 -9.02 14 -8 14 C-8 13.34 -8 12.68 -8 12 C-7.34 12 -6.68 12 -6 12 C-6 11.34 -6 10.68 -6 10 C-5.34 10 -4.68 10 -4 10 C-4 8.02 -4 6.04 -4 4 C-3.01 3.67 -2.02 3.34 -1 3 C-0.67 2.01 -0.34 1.02 0 0 Z " fill="#F8DD6B" transform="translate(234,310)"/>
<path d="M0 0 C0.80179687 0.00451172 1.60359375 0.00902344 2.4296875 0.01367188 C4.41149006 0.02546832 6.39325433 0.04340395 8.375 0.0625 C8.705 1.3825 9.035 2.7025 9.375 4.0625 C5.70112505 4.91548376 2.3302607 5.17039471 -1.4375 5.125 C-2.41332031 5.11597656 -3.38914062 5.10695313 -4.39453125 5.09765625 C-5.49861328 5.08025391 -5.49861328 5.08025391 -6.625 5.0625 C-6.625 4.4025 -6.625 3.7425 -6.625 3.0625 C-7.945 2.4025 -9.265 1.7425 -10.625 1.0625 C-7.31505287 -0.59247356 -3.63377 -0.03834335 0 0 Z " fill="#FADC61" transform="translate(354.625,360.9375)"/>
<path d="M0 0 C0.07654536 4.51617599 0.10228696 8.59085217 -1 13 C-5.875 12.125 -5.875 12.125 -7 11 C-6.83092486 5.75867052 -6.83092486 5.75867052 -6 3 C-2.25 0 -2.25 0 0 0 Z " fill="#FCDD5B" transform="translate(274,211)"/>
<path d="M0 0 C0.99 0.33 1.98 0.66 3 1 C3.66 4.3 4.32 7.6 5 11 C5.66 11 6.32 11 7 11 C7 11.99 7 12.98 7 14 C7.66 14 8.32 14 9 14 C9 15.98 9 17.96 9 20 C9.66 20 10.32 20 11 20 C11.70180531 21.4096347 12.38593958 22.82807641 13.0625 24.25 C13.44535156 25.03890625 13.82820312 25.8278125 14.22265625 26.640625 C15.10224325 29.31032626 14.77788565 30.37312137 14 33 C12.32705993 29.54466686 10.66272237 26.08526007 9 22.625 C8.52304688 21.64015625 8.04609375 20.6553125 7.5546875 19.640625 C7.10351562 18.69960938 6.65234375 17.75859375 6.1875 16.7890625 C5.76855469 15.91975098 5.34960938 15.05043945 4.91796875 14.15478516 C4 12 4 12 4 10 C3.34 10 2.68 10 2 10 C1.855625 8.906875 1.71125 7.81375 1.5625 6.6875 C1.11711896 3.06877013 1.11711896 3.06877013 0 0 Z " fill="#F4DE79" transform="translate(194,261)"/>
<path d="M0 0 C0.33 0 0.66 0 1 0 C0.85923111 3.47939051 0.71144333 6.95845059 0.5625 10.4375 C0.52318359 11.41138672 0.48386719 12.38527344 0.44335938 13.38867188 C0.18631833 19.30061599 -0.27719621 25.12645997 -1 31 C-1.66 30.67 -2.32 30.34 -3 30 C-3.02693575 27.87506859 -3.04636628 25.75004088 -3.0625 23.625 C-3.07410156 22.44164062 -3.08570313 21.25828125 -3.09765625 20.0390625 C-3 17 -3 17 -2 15 C-1.68286275 11.36613567 -1.48828964 7.73152308 -1.28125 4.08984375 C-1 1 -1 1 0 0 Z " fill="#F5DB76" transform="translate(164,289)"/>
<path d="M0 0 C0.66 0 1.32 0 2 0 C2.22786458 2.05078125 2.45572917 4.1015625 2.68359375 6.15234375 C2.81886614 8.01140229 2.81886614 8.01140229 4 9 C4.16796875 10.9609375 4.16796875 10.9609375 4.1875 13.375 C4.20167969 14.16648437 4.21585937 14.95796875 4.23046875 15.7734375 C4 18 4 18 2 21 C1.34 20.67 0.68 20.34 0 20 C0 13.4 0 6.8 0 0 Z " fill="#DED7B9" transform="translate(282,247)"/>
<path d="M0 0 C1.75570312 0.01353516 1.75570312 0.01353516 3.546875 0.02734375 C4.43890625 0.03894531 5.3309375 0.05054687 6.25 0.0625 C6.25 0.3925 6.25 0.7225 6.25 1.0625 C1.795 1.5575 1.795 1.5575 -2.75 2.0625 C-2.75 3.0525 -2.75 4.0425 -2.75 5.0625 C-5.72 5.0625 -8.69 5.0625 -11.75 5.0625 C-11.42 3.7425 -11.09 2.4225 -10.75 1.0625 C-7.14006828 -0.07230527 -3.7657673 -0.03765767 0 0 Z " fill="#D1D1D1" transform="translate(154.75,126.9375)"/>
<path d="M0 0 C2.64 0 5.28 0 8 0 C8 0.66 8 1.32 8 2 C11.63 2 15.26 2 19 2 C19 2.33 19 2.66 19 3 C9.595 3.495 9.595 3.495 0 4 C0 2.68 0 1.36 0 0 Z " fill="#F6DA6D" transform="translate(133,325)"/>
<path d="M0 0 C0.33 0 0.66 0 1 0 C1.36474164 5.47112462 1.36474164 5.47112462 -0.25 7.8125 C-2.16591802 9.11258722 -3.72970466 9.60856977 -6 10 C-6.33 8.35 -6.66 6.7 -7 5 C-5.824375 4.87625 -5.824375 4.87625 -4.625 4.75 C-1.85250896 4.27193661 -1.85250896 4.27193661 -0.6875 1.9375 C-0.460625 1.298125 -0.23375 0.65875 0 0 Z " fill="#FDDD5A" transform="translate(262,241)"/>
<path d="M0 0 C2.64 0 5.28 0 8 0 C8 1.32 8 2.64 8 4 C4.625 4.125 4.625 4.125 1 4 C0.34 3.34 -0.32 2.68 -1 2 C-0.67 1.34 -0.34 0.68 0 0 Z " fill="#D1D2CE" transform="translate(198,308)"/>
<path d="M0 0 C0.86625 0.12375 1.7325 0.2475 2.625 0.375 C5 1 5 1 8 4 C4.37 4 0.74 4 -3 4 C-3 3.34 -3 2.68 -3 2 C-4.32 1.34 -5.64 0.68 -7 0 C-4.28877166 -1.35561417 -2.92020777 -0.67911809 0 0 Z " fill="#FEE839" transform="translate(351,362)"/>
<path d="M0 0 C0.66 0 1.32 0 2 0 C2 0.99 2 1.98 2 3 C2.66 3 3.32 3 4 3 C5.17076699 6.98060777 6.25749403 10.91621717 7 15 C3.69383716 11.19791273 0 5.16418515 0 0 Z " fill="#F2DD7B" transform="translate(295,321)"/>
<path d="M0 0 C1 2 1 2 0.328125 4.27734375 C-0.02765625 5.15519531 -0.3834375 6.03304688 -0.75 6.9375 C-1.26820313 8.25041016 -1.26820313 8.25041016 -1.796875 9.58984375 C-2.95642525 11.91270902 -4.05798473 13.30910739 -6 15 C-6 13.68 -6 12.36 -6 11 C-5.34 10.67 -4.68 10.34 -4 10 C-3.34227572 6.97065509 -3.34227572 6.97065509 -3 4 C-2.34 4 -1.68 4 -1 4 C-0.67 2.68 -0.34 1.36 0 0 Z " fill="#E8DBB1" transform="translate(248,258)"/>
<path d="M0 0 C0.98120464 3.05263664 0.98120464 4.94736336 0 8 C-0.66 8 -1.32 8 -2 8 C-2.33 9.98 -2.66 11.96 -3 14 C-3.66 14 -4.32 14 -5 14 C-3.8545847 8.8896856 -2.54521255 4.62765919 0 0 Z " fill="#F3DD7F" transform="translate(254,246)"/>
<path d="M0 0 C3.08089673 2.77280706 4.68775452 5.06326356 6 9 C3.0625 7.6875 3.0625 7.6875 0 6 C-1 3 -1 3 0 0 Z " fill="#F9DD70" transform="translate(171,183)"/>
<path d="M0 0 C5.53846154 -0.36923077 5.53846154 -0.36923077 7.875 1.5 C8.24625 1.995 8.6175 2.49 9 3 C8 4 8 4 5.0625 4.125 C2 4 2 4 0 3 C0 2.01 0 1.02 0 0 Z " fill="#D7D1C6" transform="translate(164,308)"/>
<path d="M0 0 C0.33 0 0.66 0 1 0 C1.74737188 5.97897503 -0.6768102 9.32379721 -4 14 C-5.32 13.67 -6.64 13.34 -8 13 C-7.236875 12.525625 -6.47375 12.05125 -5.6875 11.5625 C-2.11391885 8.15513193 -1.23150936 4.68574293 0 0 Z " fill="#F4DF7C" transform="translate(151,310)"/>
<path d="M0 0 C3 1 3 1 4.75 3.8125 C5.98589446 6.96403086 6.28222189 7.96929372 5 11 C0 3.5 0 3.5 0 0 Z " fill="#F7DE77" transform="translate(209,295)"/>
<path d="M0 0 C0.66 0 1.32 0 2 0 C2.33 1.65 2.66 3.3 3 5 C3.99 5 4.98 5 6 5 C6 7.31 6 9.62 6 12 C2.44992282 8.0949151 1.18180084 5.02265357 0 0 Z " fill="#E3DAB3" transform="translate(194,228)"/>
<path d="M0 0 C0.33 0 0.66 0 1 0 C1.33 4.29 1.66 8.58 2 13 C0 12 0 12 -1.25 8.75 C-2.03332928 4.83335358 -1.86991497 3.42817745 0 0 Z " fill="#DAD5BA" transform="translate(192,214)"/>
<path d="M0 0 C2.31 0 4.62 0 7 0 C7.66 2.31 8.32 4.62 9 7 C7.4972763 6.02501855 5.99788037 5.04490611 4.5 4.0625 C3.6646875 3.51722656 2.829375 2.97195312 1.96875 2.41015625 C1.3190625 1.94480469 0.669375 1.47945312 0 1 C0 0.67 0 0.34 0 0 Z " fill="#F7DA73" transform="translate(139,168)"/>
<path d="M0 0 C3 0.3125 3 0.3125 6 1 C6.33 1.66 6.66 2.32 7 3 C4.69 3.33 2.38 3.66 0 4 C-0.33 3.01 -0.66 2.02 -1 1 C-0.67 0.67 -0.34 0.34 0 0 Z " fill="#FEDE59" transform="translate(339,359)"/>
<path d="M0 0 C2.12161334 2.12161334 2.92986249 3.7733159 4.125 6.5 C4.47820312 7.2940625 4.83140625 8.088125 5.1953125 8.90625 C6 11 6 11 6 13 C5.34 13 4.68 13 4 13 C3.32404685 11.58774074 2.65959941 10.16997095 2 8.75 C1.62875 7.96109375 1.2575 7.1721875 0.875 6.359375 C0 4 0 4 0 0 Z " fill="#F1DE7A" transform="translate(190,221)"/>
<path d="M0 0 C1.24386556 3.73159669 0.77811718 6.18015204 0 10 C-0.99 10.495 -0.99 10.495 -2 11 C-3.25 9.4375 -3.25 9.4375 -4 7 C-2.93237266 4.42998985 -1.53455057 2.3469597 0 0 Z " fill="#DFDBC8" transform="translate(251,276)"/>
<path d="M0 0 C1.32 0 2.64 0 4 0 C3.54917531 1.46067199 3.08906463 2.91848032 2.625 4.375 C2.36976563 5.18710937 2.11453125 5.99921875 1.8515625 6.8359375 C1 9 1 9 -1 11 C-0.67 7.37 -0.34 3.74 0 0 Z " fill="#F7DE82" transform="translate(257,252)"/>
<path d="M0 0 C0.66 0 1.32 0 2 0 C2 0.99 2 1.98 2 3 C3.32 2.67 4.64 2.34 6 2 C6 4.64 6 7.28 6 10 C2.51668565 6.98112756 1.20842856 4.43090471 0 0 Z " fill="#F6DD78" transform="translate(184,241)"/>
<path d="M0 0 C1.79133978 -0.05391993 3.58313899 -0.09275571 5.375 -0.125 C6.37273437 -0.14820313 7.37046875 -0.17140625 8.3984375 -0.1953125 C11 0 11 0 13 2 C9.61725734 3.12758089 8.23221777 2.81750262 4.8125 2.0625 C3.91144531 1.86785156 3.01039063 1.67320312 2.08203125 1.47265625 C1.39496094 1.31667969 0.70789063 1.16070312 0 1 C0 0.67 0 0.34 0 0 Z " fill="#F9DF71" transform="translate(337,363)"/>
<path d="M0 0 C0.33 0.66 0.66 1.32 1 2 C0.22265625 4.1640625 0.22265625 4.1640625 -0.9375 6.625 C-1.31777344 7.44226563 -1.69804687 8.25953125 -2.08984375 9.1015625 C-2.39019531 9.72804688 -2.69054687 10.35453125 -3 11 C-3.33 11 -3.66 11 -4 11 C-3.67 8.36 -3.34 5.72 -3 3 C-2.34 3 -1.68 3 -1 3 C-0.67 2.01 -0.34 1.02 0 0 Z " fill="#F8DD72" transform="translate(239,299)"/>
<path d="M0 0 C2.475 0.495 2.475 0.495 5 1 C5.33 3.31 5.66 5.62 6 8 C1.125 3.375 1.125 3.375 0 0 Z " fill="#F8DF6E" transform="translate(303,338)"/>
<path d="M0 0 C5 7.5 5 7.5 5 11 C4.01 10.67 3.02 10.34 2 10 C0.47839986 6.3962102 0 3.94779314 0 0 Z " fill="#F6DE7C" transform="translate(205,252)"/>
<path d="M0 0 C2.15377564 2.62198774 3.40072174 4.64404172 4 8 C3.34 8 2.68 8 2 8 C2 7.34 2 6.68 2 6 C1.01 6 0.02 6 -1 6 C-0.67 4.02 -0.34 2.04 0 0 Z " fill="#F9DB6F" transform="translate(211,266)"/>
</svg>
