<?xml version="1.0" encoding="UTF-8"?>
<svg version="1.1" xmlns="http://www.w3.org/2000/svg" width="500" height="500">
<path d="M0 0 C0.99 1.485 0.99 1.485 2 3 C2.33 2.01 2.66 1.02 3 0 C8.29789752 -2.06392067 13.18567065 -2.28241687 18.8203125 -2.23046875 C20.05284256 -2.22978142 20.05284256 -2.22978142 21.31027222 -2.2290802 C23.0364528 -2.2260757 24.76263111 -2.21824391 26.48876953 -2.20581055 C29.12412154 -2.1875061 31.75912214 -2.18530154 34.39453125 -2.18554688 C36.07812802 -2.18063239 37.76172243 -2.17480437 39.4453125 -2.16796875 C40.62046921 -2.16629951 40.62046921 -2.16629951 41.81936646 -2.16459656 C45.68187026 -2.13119776 49.2319346 -1.82392481 53 -1 C54.67408088 -1.29384028 56.34109773 -1.62995655 58 -2 C68.09200342 -2.56874986 78.92003476 -2.86797045 87 4 C89.03448306 7.19107274 89.27059907 9.75096915 89.25 13.5 C89.25773437 14.90765625 89.25773437 14.90765625 89.265625 16.34375 C88.99357345 19.06426546 88.28826095 20.62877865 87 23 C87.1290191 27.90272573 89.79331708 30.495021 93 34 C94.175625 35.0209375 94.175625 35.0209375 95.375 36.0625 C97 38 97 38 96.9375 40.625 C96 43 96 43 93 45 C85.61485637 46.16536211 79.60923114 44.14993144 73 41 C72.67 41.99 72.34 42.98 72 44 C69.37511947 45.31244026 67.40763148 45.14150422 64.46801758 45.16113281 C63.30953812 45.17074036 62.15105865 45.1803479 60.95747375 45.19024658 C59.07006721 45.1966214 59.07006721 45.1966214 57.14453125 45.203125 C55.20932869 45.21167511 55.20932869 45.21167511 53.23503113 45.22039795 C50.49872443 45.23091045 47.76244711 45.23675058 45.02612305 45.24023438 C41.53365314 45.24570117 38.04157665 45.26968848 34.54922962 45.29820633 C31.20600492 45.3214152 27.86283229 45.32328874 24.51953125 45.328125 C23.27138138 45.3404718 22.02323151 45.3528186 20.73725891 45.36553955 C14.31486678 45.34912534 9.69916489 44.99217355 4 42 C0.83953754 42.26337187 -0.26797194 43.17864796 -3 45 C-7.55091055 45.41129973 -12.11124823 45.37160322 -16.6784668 45.37060547 C-18.9263893 45.37497839 -21.17234679 45.41130369 -23.41992188 45.44921875 C-24.8515558 45.45508737 -26.28319903 45.45905646 -27.71484375 45.4609375 C-29.01542725 45.46915527 -30.31601074 45.47737305 -31.65600586 45.48583984 C-35 45 -35 45 -37.43969727 43.17431641 C-39.47990167 40.3312464 -39.31089841 38.4198825 -39 35 C-40.65 35 -42.3 35 -44 35 C-43.9175 35.9075 -43.835 36.815 -43.75 37.75 C-44 41 -44 41 -45.671875 43.17211914 C-48.51452109 45.40396596 -49.92244406 45.50300603 -53.5 45.49609375 C-54.551875 45.49673828 -55.60375 45.49738281 -56.6875 45.49804688 C-57.780625 45.47806641 -58.87375 45.45808594 -60 45.4375 C-61.093125 45.44458984 -62.18625 45.45167969 -63.3125 45.45898438 C-72.4951772 45.38583805 -72.4951772 45.38583805 -76 42 C-76.33 41.01 -76.66 40.02 -77 39 C-78.32 40.98 -79.64 42.96 -81 45 C-87.4 44.63076923 -87.4 44.63076923 -90.4375 41.4375 C-90.953125 40.633125 -91.46875 39.82875 -92 39 C-92.45375 39.804375 -92.9075 40.60875 -93.375 41.4375 C-95 44 -95 44 -97 45 C-99.2421875 45.203125 -99.2421875 45.203125 -101.875 45.25 C-102.73867188 45.27578125 -103.60234375 45.3015625 -104.4921875 45.328125 C-107.50695138 44.93366991 -108.84058764 44.11493933 -111 42 C-111.4375 39 -111.4375 39 -111 36 C-110.51861572 35.58161865 -110.03723145 35.1632373 -109.54125977 34.73217773 C-107.23183963 32.13668655 -107.29325511 29.70059433 -106.90234375 26.28515625 C-106.82254776 25.63300644 -106.74275177 24.98085663 -106.66053772 24.3089447 C-106.40729738 22.22803732 -106.17115802 20.14569002 -105.9375 18.0625 C-105.69838701 15.98320428 -105.45546469 13.90457625 -105.20375061 11.82676697 C-104.97587313 9.93902395 -104.7609213 8.04973399 -104.54663086 6.16040039 C-104.05884769 3.34023375 -103.45444269 1.43314017 -102 -1 C-98.875 -1.5 -98.875 -1.5 -95 -1 C-90.28709315 3.23814227 -87.3590024 9.62801722 -84.296875 15.09375 C-83.86890625 15.7228125 -83.4409375 16.351875 -83 17 C-82.34 17 -81.68 17 -81 17 C-79.78658423 15.40119279 -79.78658423 15.40119279 -78.65234375 13.31640625 C-78.21212891 12.55392578 -77.77191406 11.79144531 -77.31835938 11.00585938 C-76.86267578 10.19955078 -76.40699219 9.39324219 -75.9375 8.5625 C-75.03110538 6.97980532 -74.12361033 5.39774017 -73.21484375 3.81640625 C-72.61337524 2.75595093 -72.61337524 2.75595093 -71.99975586 1.67407227 C-71 0 -71 0 -70 -1 C-64.65976618 -1.46436816 -64.65976618 -1.46436816 -62.37768555 0.1418457 C-60.48736354 2.69141877 -60.27533615 4.84676167 -59.83203125 7.98046875 C-59.66123047 9.14384766 -59.49042969 10.30722656 -59.31445312 11.50585938 C-59.14880859 12.72080078 -58.98316406 13.93574219 -58.8125 15.1875 C-58.63525391 16.41404297 -58.45800781 17.64058594 -58.27539062 18.90429688 C-57.83909415 21.93478858 -57.41445648 24.96645723 -57 28 C-52.72168875 19.67121655 -48.7535062 11.31526494 -45.1640625 2.66796875 C-44 0 -44 0 -43 -1 C-39.6875 -1.375 -39.6875 -1.375 -36 -1 C-32.71610251 2.41542614 -30.86578699 6.07955375 -28.984375 10.39453125 C-28.19160156 12.19760742 -28.19160156 12.19760742 -27.3828125 14.03710938 C-26.83837721 15.29550178 -26.29410842 16.55396623 -25.75 17.8125 C-25.19079549 19.09079744 -24.63090606 20.36879549 -24.0703125 21.64648438 C-22.70678176 24.76144684 -21.35028994 27.87928052 -20 31 C-19.9417538 27.27089934 -19.90632083 23.54191636 -19.875 19.8125 C-19.84986328 18.22985352 -19.84986328 18.22985352 -19.82421875 16.61523438 C-19.81777344 15.59365234 -19.81132812 14.57207031 -19.8046875 13.51953125 C-19.79421387 12.58214111 -19.78374023 11.64475098 -19.77294922 10.67895508 C-19.87235149 7.93935679 -19.87235149 7.93935679 -21.07470703 5.3425293 C-22 3 -22 3 -21 0 C-14.03572326 -2.70043384 -6.95784221 -3.14759528 0 0 Z M15.0625 11.1875 C14.35222656 11.77917969 13.64195312 12.37085938 12.91015625 12.98046875 C10.62856478 15.3927035 9.54164173 16.6931347 9 20 C10.22979264 22.72358439 11.97882661 24.96665433 13.8125 27.3125 C14.29009766 27.95767578 14.76769531 28.60285156 15.25976562 29.26757812 C16.46644034 30.87591043 17.72883478 32.44213748 19 34 C19.33 34 19.66 34 20 34 C20 25.42 20 16.84 20 8 C18.03002939 8 16.48188669 9.98371635 15.0625 11.1875 Z M38 11 C38 12.65 38 14.3 38 16 C40.0399719 14.63676257 40.0399719 14.63676257 42 13 C42 12.34 42 11.68 42 11 C40.68 11 39.36 11 38 11 Z M52 11 C49.64880601 14.52679099 49.78556548 16.02879485 49.875 20.1875 C49.89304687 21.27417969 49.91109375 22.36085937 49.9296875 23.48046875 C49.95289063 24.31191406 49.97609375 25.14335937 50 26 C50.99 26 51.98 26 53 26 C53 21.05 53 16.1 53 11 C52.67 11 52.34 11 52 11 Z M38 29 C38.33 30.32 38.66 31.64 39 33 C39.99 32.67 40.98 32.34 42 32 C42 31.34 42 30.68 42 30 C40.68 29.67 39.36 29.34 38 29 Z M-94 35 C-93 37 -93 37 -93 37 Z " fill="#000102" transform="translate(403,228)"/>
<path d="M0 0 C9.38027608 0.20883732 16.56355669 4.42465721 23.19921875 10.78515625 C26.58938485 14.61314485 29.10765616 18.77593416 31.4375 23.3125 C34.31170123 20.59645285 34.31170123 20.59645285 36.4375 17.3125 C39.75 17 39.75 17 43.4375 17.3125 C46.19887807 20.54997774 47.12487329 24.31369626 48.4375 28.3125 C48.76959473 27.71187744 49.10168945 27.11125488 49.44384766 26.49243164 C50.96240172 23.77425673 52.51181006 21.07496014 54.0625 18.375 C54.58457031 17.42947266 55.10664062 16.48394531 55.64453125 15.50976562 C59.61422888 8.67306415 59.61422888 8.67306415 63.5859375 6.93359375 C67.27740682 7.42410406 68.12645623 8.43236685 70.4375 11.3125 C71.37890625 14.37084961 71.37890625 14.37084961 72 17.96484375 C72.11657959 18.6129451 72.23315918 19.26104645 72.35327148 19.92878723 C72.60060621 21.315264 72.84072175 22.70304478 73.07421875 24.09191895 C73.44058532 26.2683284 73.8269549 28.44033911 74.21875 30.61230469 C75.35801338 36.95928762 76.43905164 43.3152715 77.5 49.67578125 C79.59722026 63.95581225 79.59722026 63.95581225 86.4375 76.3125 C89.29947849 77.86695508 91.88540062 78.80195138 95.046875 79.56640625 C97.4375 80.3125 97.4375 80.3125 99.4375 83.3125 C99.1133631 86.63490324 98.82973697 87.92026303 96.4375 90.3125 C88.85719546 92.94548189 79.9162741 91.61366126 72.4375 89.3125 C72.23125 89.93125 72.025 90.55 71.8125 91.1875 C69.80989598 94.28243349 67.99602428 94.52171683 64.4375 95.3125 C56.6058808 96.10893585 49.30356379 94.00143392 42.8203125 89.4921875 C40.32942597 87.21363883 38.74976336 85.06600758 37 82.1875 C36.41089844 81.2284375 35.82179688 80.269375 35.21484375 79.28125 C34.62832031 78.3015625 34.04179688 77.321875 33.4375 76.3125 C32.86128906 75.3534375 32.28507812 74.394375 31.69140625 73.40625 C30.65584444 71.6778303 29.62530993 69.946381 28.6015625 68.2109375 C27.57673545 66.37400702 27.57673545 66.37400702 26.4375 65.3125 C25.91800781 66.38371094 25.39851563 67.45492187 24.86328125 68.55859375 C24.15978829 69.95619976 23.45530953 71.35330986 22.75 72.75 C22.41033203 73.45705078 22.07066406 74.16410156 21.72070312 74.89257812 C19.08461719 80.0415684 19.08461719 80.0415684 15.84375 81.3984375 C12.34530123 81.2734929 10.85629643 79.73129643 8.4375 77.3125 C8.4375 76.6525 8.4375 75.9925 8.4375 75.3125 C5.4675 75.3125 2.4975 75.3125 -0.5625 75.3125 C-1.2225 76.6325 -1.8825 77.9525 -2.5625 79.3125 C-5.56537088 80.81393544 -8.645609 80.57824018 -11.9375 80.625 C-12.94683594 80.66850586 -12.94683594 80.66850586 -13.9765625 80.71289062 C-17.4231559 80.75699074 -19.22866618 80.56674784 -22.00390625 78.453125 C-23.5625 76.3125 -23.5625 76.3125 -24.125 73.75 C-23.939375 72.945625 -23.75375 72.14125 -23.5625 71.3125 C-22.75401611 70.88404785 -21.94553223 70.4555957 -21.11254883 70.01416016 C-18.35527826 68.53872932 -18.35527826 68.53872932 -17.62768555 65.72802734 C-17.4862915 64.7117627 -17.34489746 63.69549805 -17.19921875 62.6484375 C-17.03486328 61.52566406 -16.87050781 60.40289062 -16.70117188 59.24609375 C-16.55228516 58.07175781 -16.40339844 56.89742188 -16.25 55.6875 C-16.08177734 54.53636719 -15.91355469 53.38523437 -15.74023438 52.19921875 C-13.74583064 41.30003649 -13.74583064 41.30003649 -15.8125 30.82421875 C-20.07058432 26.38554604 -23.90464995 23.75122847 -29.5625 21.3125 C-30.5625 20.3125 -30.5625 20.3125 -30.875 17.4375 C-30.5625 14.3125 -30.5625 14.3125 -28.8125 12.5 C-23.81830599 9.86417538 -18.66284617 9.67653156 -13.125 10.8125 C-12.609375 10.9775 -12.09375 11.1425 -11.5625 11.3125 C-11.830625 10.590625 -12.09875 9.86875 -12.375 9.125 C-12.5625 6.3125 -12.5625 6.3125 -10.375 3.5625 C-6.55355708 0.50534566 -4.81040915 0.42196572 0 0 Z M-4.5625 14.3125 C-4.2325 14.9725 -3.9025 15.6325 -3.5625 16.3125 C-2.9025 15.9825 -2.2425 15.6525 -1.5625 15.3125 C-2.5525 14.9825 -3.5425 14.6525 -4.5625 14.3125 Z M52.4375 52.3125 C51.9320319 62.42186209 53.41622327 73.49288568 60.4375 81.3125 C63.06209397 82.87011769 63.06209397 82.87011769 65.4375 83.3125 C64.36005649 81.11121589 63.23884 78.960003 62.03515625 76.82421875 C57.64874729 68.75456562 55.83857829 61.30889743 54.4375 52.3125 C53.7775 52.3125 53.1175 52.3125 52.4375 52.3125 Z M-1.5625 58.3125 C-1.5625 60.6225 -1.5625 62.9325 -1.5625 65.3125 C-0.5725 64.9825 0.4175 64.6525 1.4375 64.3125 C0.7775 62.3325 0.1175 60.3525 -0.5625 58.3125 C-0.8925 58.3125 -1.2225 58.3125 -1.5625 58.3125 Z " fill="#000001" transform="translate(55.5625,205.6875)"/>
<path d="M0 0 C2.57575955 1.69148304 5.10746929 3.38090679 7.29296875 5.56640625 C7.80859375 4.63828125 8.32421875 3.71015625 8.85546875 2.75390625 C11.33500243 -0.85036435 14.01323272 -2.57190193 18.29296875 -3.43359375 C31.96639716 -4.56779519 31.96639716 -4.56779519 37.29296875 -0.43359375 C38.80695549 4.10836646 38.21473681 7.24242811 36.29296875 11.56640625 C34.66796875 13.44140625 34.66796875 13.44140625 33.29296875 14.56640625 C34.43765625 15.30890625 34.43765625 15.30890625 35.60546875 16.06640625 C39.0385801 19.25999821 40.51006733 21.94807865 41.29296875 26.56640625 C41.25847242 31.03713017 40.59910119 34.86458221 37.8359375 38.46484375 C33.35708289 42.61005908 28.80220876 44.57665221 22.6171875 44.55859375 C17.2664289 44.22552894 12.83185535 43.6301547 8.29296875 40.56640625 C6.41796875 38.37890625 6.41796875 38.37890625 5.29296875 36.56640625 C4.65359375 37.16453125 4.01421875 37.76265625 3.35546875 38.37890625 C-3.31166751 43.14114643 -10.39285248 44.02810535 -18.4140625 44 C-19.74578743 44.00786278 -19.74578743 44.00786278 -21.10441589 44.0158844 C-22.96404989 44.02226054 -24.82372445 44.02102535 -26.68334961 44.01245117 C-29.52985436 44.00387515 -32.37439263 44.03286826 -35.22070312 44.06445312 C-37.03515565 44.06606378 -38.84961172 44.0654902 -40.6640625 44.0625 C-41.93598198 44.07935097 -41.93598198 44.07935097 -43.2335968 44.09654236 C-49.1022657 44.02698616 -49.1022657 44.02698616 -52.2097168 41.66040039 C-53.70703125 39.56640625 -53.70703125 39.56640625 -54.70703125 37.56640625 C-55.18140625 38.37078125 -55.65578125 39.17515625 -56.14453125 40.00390625 C-57.70703125 42.56640625 -57.70703125 42.56640625 -58.70703125 43.56640625 C-62.01953125 43.50390625 -62.01953125 43.50390625 -65.70703125 42.56640625 C-68.14453125 39.50390625 -68.14453125 39.50390625 -69.70703125 36.56640625 C-69.97515625 37.35015625 -70.24328125 38.13390625 -70.51953125 38.94140625 C-71.70703125 41.56640625 -71.70703125 41.56640625 -74.70703125 43.56640625 C-76.828125 43.83203125 -76.828125 43.83203125 -79.14453125 43.81640625 C-79.90636719 43.8215625 -80.66820312 43.82671875 -81.453125 43.83203125 C-84.00380206 43.53143153 -85.58845687 43.02263255 -87.70703125 41.56640625 C-88.45703125 37.94140625 -88.45703125 37.94140625 -88.70703125 34.56640625 C-87.71703125 33.90640625 -86.72703125 33.24640625 -85.70703125 32.56640625 C-84.94742653 29.55681071 -84.94742653 29.55681071 -84.609375 25.984375 C-84.52957901 25.33318192 -84.44978302 24.68198883 -84.36756897 24.01106262 C-84.11377488 21.92663386 -83.87800034 19.84070153 -83.64453125 17.75390625 C-83.40522268 15.67821167 -83.16194628 13.60317925 -82.91078186 11.52888489 C-82.68298261 9.63902556 -82.46799212 7.74763539 -82.25366211 5.85620117 C-81.74856567 2.81637336 -80.97896913 0.35977879 -79.70703125 -2.43359375 C-76.51953125 -2.80859375 -76.51953125 -2.80859375 -72.70703125 -2.43359375 C-67.08497711 2.61183946 -63.56810094 10.10893485 -59.70703125 16.56640625 C-58.82872852 15.27698309 -57.95465502 13.98467943 -57.08203125 12.69140625 C-56.53160156 11.88058594 -55.98117188 11.06976563 -55.4140625 10.234375 C-53.66637987 7.58524354 -53.66637987 7.58524354 -52.21875 4.7421875 C-50.85284709 2.16133053 -49.55623284 -0.17244131 -47.70703125 -2.43359375 C-44.01953125 -3.37109375 -44.01953125 -3.37109375 -40.70703125 -2.43359375 C-36.75139697 2.13950539 -36.69481448 8.11132323 -36.01953125 13.87890625 C-35.88998047 14.90564453 -35.76042969 15.93238281 -35.62695312 16.99023438 C-35.30994853 19.51453025 -35.00367937 22.03965103 -34.70703125 24.56640625 C-34.68019138 21.58718032 -34.66027088 18.6081933 -34.64453125 15.62890625 C-34.63196289 14.35370117 -34.63196289 14.35370117 -34.61914062 13.05273438 C-34.61591797 12.24384766 -34.61269531 11.43496094 -34.609375 10.6015625 C-34.60413818 9.85269775 -34.59890137 9.10383301 -34.59350586 8.33227539 C-34.51361373 6.53972886 -34.51361373 6.53972886 -35.70703125 5.56640625 C-35.74796062 3.23343192 -35.74944848 0.899354 -35.70703125 -1.43359375 C-25.47754661 -5.37523003 -9.86035088 -5.2218597 0 0 Z M-15.70703125 9.56640625 C-15.70703125 16.82640625 -15.70703125 24.08640625 -15.70703125 31.56640625 C-9.97909882 30.29175348 -9.97909882 30.29175348 -8.3515625 27.75 C-6.85177261 22.66889364 -6.98652628 17.42455065 -8.89453125 12.50390625 C-10.85400295 10.03251493 -10.85400295 10.03251493 -15.70703125 9.56640625 Z M18.29296875 27.56640625 C18.62296875 28.88640625 18.95296875 30.20640625 19.29296875 31.56640625 C20.94296875 31.56640625 22.59296875 31.56640625 24.29296875 31.56640625 C23.00331699 30.19077771 21.66607582 28.85874232 20.29296875 27.56640625 C19.63296875 27.56640625 18.97296875 27.56640625 18.29296875 27.56640625 Z " fill="#010000" transform="translate(244.70703125,229.43359375)"/>
<path d="M0 0 C9.38027608 0.20883732 16.56355669 4.42465721 23.19921875 10.78515625 C26.58938485 14.61314485 29.10765616 18.77593416 31.4375 23.3125 C34.31170123 20.59645285 34.31170123 20.59645285 36.4375 17.3125 C37.0975 17.3125 37.7575 17.3125 38.4375 17.3125 C38.64898682 18.7037207 38.64898682 18.7037207 38.86474609 20.12304688 C39.39476653 23.59748062 39.92819575 27.07135666 40.46386719 30.54492188 C40.69405522 32.04211125 40.92292295 33.53950428 41.15039062 35.03710938 C41.47951265 37.20238587 41.8135378 39.3668605 42.1484375 41.53125 C42.34743652 42.82998047 42.54643555 44.12871094 42.75146484 45.46679688 C43.468808 49.48800308 44.41309177 53.35948942 45.4375 57.3125 C45.74052017 58.64474102 46.03928037 59.97796477 46.33203125 61.3125 C48.56973901 72.15362634 48.56973901 72.15362634 54.4375 81.3125 C57.9023069 83.34067965 61.57375412 84.27226072 65.4375 85.3125 C62.81911579 87.93088421 61.52683031 87.67071377 57.875 87.75 C49.99863919 87.60833883 45.12716989 85.00216989 39.625 79.5 C35.74331643 73.84383251 33.44907496 69.45180518 32.69677734 62.54638672 C32.24011826 58.61189464 31.53941338 54.71632599 30.875 50.8125 C30.66713867 49.57886719 30.66713867 49.57886719 30.45507812 48.3203125 C30.11738697 46.31745459 29.77765815 44.31494041 29.4375 42.3125 C25.85932862 47.92370152 22.4896324 53.62478589 19.25 59.4375 C18.81236328 60.20964844 18.37472656 60.98179687 17.92382812 61.77734375 C15.6368786 65.87639527 13.73610512 69.77100948 12.4375 74.3125 C9.5809454 71.82670765 8.23498289 69.15180957 6.625 65.75 C4.30232536 60.96632767 1.78831478 56.43877741 -1.0703125 51.95703125 C-3.18900334 48.20217864 -4.8604417 44.27018824 -6.5625 40.3125 C-7.07005197 43.99900112 -7.56717512 47.68683775 -8.0625 51.375 C-8.20558594 52.41333984 -8.34867188 53.45167969 -8.49609375 54.52148438 C-9.63926118 62.39646438 -9.63926118 62.39646438 -9.5625 70.3125 C-8.0775 71.3025 -8.0775 71.3025 -6.5625 72.3125 C-12.1725 72.3125 -17.7825 72.3125 -23.5625 72.3125 C-21.9125 70.9925 -20.2625 69.6725 -18.5625 68.3125 C-17.5248 65.5986333 -17.5248 65.5986333 -17.19921875 62.55078125 C-17.03486328 61.43123047 -16.87050781 60.31167969 -16.70117188 59.15820312 C-16.55228516 57.99224609 -16.40339844 56.82628906 -16.25 55.625 C-16.08177734 54.47837891 -15.91355469 53.33175781 -15.74023438 52.15039062 C-13.74706829 41.27606576 -13.74706829 41.27606576 -15.8125 30.82421875 C-20.07058432 26.38554604 -23.90464995 23.75122847 -29.5625 21.3125 C-30.5625 20.3125 -30.5625 20.3125 -30.875 17.4375 C-30.5625 14.3125 -30.5625 14.3125 -28.8125 12.5 C-23.81830599 9.86417538 -18.66284617 9.67653156 -13.125 10.8125 C-12.609375 10.9775 -12.09375 11.1425 -11.5625 11.3125 C-11.830625 10.590625 -12.09875 9.86875 -12.375 9.125 C-12.5625 6.3125 -12.5625 6.3125 -10.375 3.5625 C-6.55355708 0.50534566 -4.81040915 0.42196572 0 0 Z M-4.5625 14.3125 C-4.2325 14.9725 -3.9025 15.6325 -3.5625 16.3125 C-2.9025 15.9825 -2.2425 15.6525 -1.5625 15.3125 C-2.5525 14.9825 -3.5425 14.6525 -4.5625 14.3125 Z " fill="#A89152" transform="translate(55.5625,205.6875)"/>
<path d="M0 0 C3.125 -0.5 3.125 -0.5 7 0 C11.71290685 4.23814227 14.6409976 10.62801722 17.703125 16.09375 C18.13109375 16.7228125 18.5590625 17.351875 19 18 C19.66 18 20.32 18 21 18 C22.21341577 16.40119279 22.21341577 16.40119279 23.34765625 14.31640625 C23.78787109 13.55392578 24.22808594 12.79144531 24.68164062 12.00585938 C25.13732422 11.19955078 25.59300781 10.39324219 26.0625 9.5625 C26.96889462 7.97980532 27.87638967 6.39774017 28.78515625 4.81640625 C29.38662476 3.75595093 29.38662476 3.75595093 30.00024414 2.67407227 C31 1 31 1 32 0 C37.34023382 -0.46436816 37.34023382 -0.46436816 39.62231445 1.1418457 C41.51263646 3.69141877 41.72466385 5.84676167 42.16796875 8.98046875 C42.33876953 10.14384766 42.50957031 11.30722656 42.68554688 12.50585938 C42.85119141 13.72080078 43.01683594 14.93574219 43.1875 16.1875 C43.36474609 17.41404297 43.54199219 18.64058594 43.72460938 19.90429688 C44.16090585 22.93478858 44.58554352 25.96645723 45 29 C49.27831125 20.67121655 53.2464938 12.31526494 56.8359375 3.66796875 C58 1 58 1 59 0 C62.3125 -0.375 62.3125 -0.375 66 0 C69.28389749 3.41542614 71.13421301 7.07955375 73.015625 11.39453125 C73.80839844 13.19760742 73.80839844 13.19760742 74.6171875 15.03710938 C75.16162279 16.29550178 75.70589158 17.55396623 76.25 18.8125 C76.80920451 20.09079744 77.36909394 21.36879549 77.9296875 22.64648438 C79.29321824 25.76144684 80.64971006 28.87928052 82 32 C82.0582462 28.27089934 82.09367917 24.54191636 82.125 20.8125 C82.15013672 19.22985352 82.15013672 19.22985352 82.17578125 17.61523438 C82.18222656 16.59365234 82.18867188 15.57207031 82.1953125 14.51953125 C82.20578613 13.58214111 82.21625977 12.64475098 82.22705078 11.67895508 C82.12764851 8.93935679 82.12764851 8.93935679 80.92529297 6.3425293 C80 4 80 4 81 1 C86.28 1 91.56 1 97 1 C96.01 1.99 95.02 2.98 94 4 C93.53453659 7.35946322 93.53453659 7.35946322 93.6015625 11.22265625 C93.59869232 11.9239415 93.59582214 12.62522675 93.59286499 13.34776306 C93.590826 14.8279603 93.59634448 16.30818458 93.60888672 17.78833008 C93.62496857 20.05806403 93.60902206 22.32602395 93.58984375 24.59570312 C93.59182574 26.03385811 93.59566851 27.47201198 93.6015625 28.91015625 C93.60663818 30.87674194 93.60663818 30.87674194 93.61181641 32.88305664 C93.73991699 33.91164795 93.86801758 34.94023926 94 36 C95.485 36.99 95.485 36.99 97 38 C85.78 38 74.56 38 63 38 C63 37.34 63 36.68 63 36 C61.35 36 59.7 36 58 36 C58.0825 36.9075 58.165 37.815 58.25 38.75 C58 42 58 42 56.328125 44.17211914 C53.48547891 46.40396596 52.07755594 46.50300603 48.5 46.49609375 C47.448125 46.49673828 46.39625 46.49738281 45.3125 46.49804688 C44.219375 46.47806641 43.12625 46.45808594 42 46.4375 C40.906875 46.44458984 39.81375 46.45167969 38.6875 46.45898438 C29.5048228 46.38583805 29.5048228 46.38583805 26 43 C25.67 42.01 25.34 41.02 25 40 C23.68 41.98 22.36 43.96 21 46 C14.6 45.63076923 14.6 45.63076923 11.5625 42.4375 C11.046875 41.633125 10.53125 40.82875 10 40 C9.54625 40.804375 9.0925 41.60875 8.625 42.4375 C7 45 7 45 5 46 C2.7578125 46.203125 2.7578125 46.203125 0.125 46.25 C-0.73867188 46.27578125 -1.60234375 46.3015625 -2.4921875 46.328125 C-5.50695138 45.93366991 -6.84058764 45.11493933 -9 43 C-9.4375 40 -9.4375 40 -9 37 C-8.51861572 36.58161865 -8.03723145 36.1632373 -7.54125977 35.73217773 C-5.23183963 33.13668655 -5.29325511 30.70059433 -4.90234375 27.28515625 C-4.82254776 26.63300644 -4.74275177 25.98085663 -4.66053772 25.3089447 C-4.40729738 23.22803732 -4.17115802 21.14569002 -3.9375 19.0625 C-3.69838701 16.98320428 -3.45546469 14.90457625 -3.20375061 12.82676697 C-2.97587313 10.93902395 -2.7609213 9.04973399 -2.54663086 7.16040039 C-2.05884769 4.34023375 -1.45444269 2.43314017 0 0 Z M8 36 C9 38 9 38 9 38 Z " fill="#07479F" transform="translate(301,227)"/>
<path d="M0 0 C3.1875 -0.375 3.1875 -0.375 7 0 C12.62205414 5.04543321 16.13893031 12.5425286 20 19 C23.80626328 13.41208157 27.37107089 7.75593125 30.703125 1.87109375 C31.13109375 1.25363281 31.5590625 0.63617188 32 0 C32.66 0 33.32 0 34 0 C34.13051758 1.08007324 34.26103516 2.16014648 34.39550781 3.27294922 C34.88400471 7.27475327 35.39656585 11.27316577 35.91650391 15.27099609 C36.13826949 17.00258594 36.35347552 18.7350289 36.56201172 20.46826172 C36.86271054 22.95793396 37.18677917 25.44359669 37.515625 27.9296875 C37.60434875 28.70682098 37.69307251 29.48395447 37.78448486 30.28463745 C38.0783563 32.71477499 38.0783563 32.71477499 39 36 C40.94369304 37.58805792 40.94369304 37.58805792 43 38 C41.81921875 38.00257813 40.6384375 38.00515625 39.421875 38.0078125 C37.86454555 38.04533851 36.30725458 38.08448606 34.75 38.125 C33.58404297 38.12113281 33.58404297 38.12113281 32.39453125 38.1171875 C30.11513555 38.19511556 28.18395224 38.33459441 26 39 C23.44871634 41.84522218 23.44871634 41.84522218 22 45 C21.67 45.33 21.34 45.66 21 46 C17.6875 45.9375 17.6875 45.9375 14 45 C11.5625 41.9375 11.5625 41.9375 10 39 C9.731875 39.78375 9.46375 40.5675 9.1875 41.375 C8 44 8 44 5 46 C2.87890625 46.265625 2.87890625 46.265625 0.5625 46.25 C-0.19933594 46.25515625 -0.96117187 46.2603125 -1.74609375 46.265625 C-4.29677081 45.96502528 -5.88142562 45.4562263 -8 44 C-8.75 40.375 -8.75 40.375 -9 37 C-8.01 36.34 -7.02 35.68 -6 35 C-5.24039528 31.99040446 -5.24039528 31.99040446 -4.90234375 28.41796875 C-4.82254776 27.76677567 -4.74275177 27.11558258 -4.66053772 26.44465637 C-4.40674363 24.36022761 -4.17096909 22.27429528 -3.9375 20.1875 C-3.69819143 18.11180542 -3.45491503 16.036773 -3.20375061 13.96247864 C-2.97595136 12.07261931 -2.76096087 10.18122914 -2.54663086 8.28979492 C-2.04153442 5.24996711 -1.27193788 2.79337254 0 0 Z " fill="#A69153" transform="translate(165,227)"/>
<path d="M0 0 C9.32578986 0.20762426 16.55560496 4.36891586 23.125 10.73828125 C26.79618311 14.82495299 30.46288547 19.14089051 32.4375 24.3125 C31.7109375 26.921875 31.7109375 26.921875 30.4375 29.3125 C29.90125 30.4675 29.365 31.6225 28.8125 32.8125 C26.29082038 37.80828038 23.29944048 42.51841113 20.33984375 47.26171875 C18.67660729 49.92904457 17.04586452 52.61185054 15.4375 55.3125 C12.4375 51.5625 12.4375 51.5625 12.4375 49.3125 C11.7775 49.3125 11.1175 49.3125 10.4375 49.3125 C9.92960937 48.28511719 9.42171875 47.25773437 8.8984375 46.19921875 C7.10588425 42.58216489 5.2923204 38.97603261 3.47167969 35.37304688 C2.58414956 33.60469129 1.71591488 31.82667448 0.8515625 30.046875 C-2.75501721 22.91341901 -6.97874888 17.96625065 -13.9375 13.9375 C-18.09532576 12.94754149 -22.30640877 12.62654168 -26.5625 12.3125 C-22.09667856 9.83475258 -18.12451281 9.78695891 -13.125 10.8125 C-12.609375 10.9775 -12.09375 11.1425 -11.5625 11.3125 C-11.830625 10.590625 -12.09875 9.86875 -12.375 9.125 C-12.5625 6.3125 -12.5625 6.3125 -10.375 3.5625 C-6.55355708 0.50534566 -4.81040915 0.42196572 0 0 Z M-4.5625 14.3125 C-4.2325 14.9725 -3.9025 15.6325 -3.5625 16.3125 C-2.9025 15.9825 -2.2425 15.6525 -1.5625 15.3125 C-2.5525 14.9825 -3.5425 14.6525 -4.5625 14.3125 Z " fill="#0348A7" transform="translate(55.5625,205.6875)"/>
<path d="M0 0 C0.99 0.33 1.98 0.66 3 1 C3.16081055 2.02657715 3.32162109 3.0531543 3.48730469 4.11083984 C4.10039165 8.01459016 4.72106956 11.9171054 5.34375 15.81933594 C5.60941052 17.49057051 5.87316177 19.16211 6.13476562 20.83398438 C7.55576546 29.90652177 9.1042942 38.92484693 11.08203125 47.89453125 C11.2439093 48.63259003 11.40578735 49.3706488 11.5725708 50.131073 C13.33126744 57.87547556 15.38641274 65.11169637 22 70 C25.28135129 71.24499811 28.58827103 72.18515988 32 73 C31.67 73.66 31.34 74.32 31 75 C15.23123218 75.92395124 15.23123218 75.92395124 9.76953125 71.6640625 C9.18558594 71.11492187 8.60164063 70.56578125 8 70 C7.30261719 69.36835938 6.60523437 68.73671875 5.88671875 68.0859375 C-3.48705752 58.66075112 -4.61488284 46.52398454 -6.38671875 33.9296875 C-6.76101878 30.22467337 -6.76101878 30.22467337 -8 28 C-10.64 32.62 -13.28 37.24 -16 42 C-16.66 41.67 -17.32 41.34 -18 41 C-18.59423828 38.48730469 -18.59423828 38.48730469 -19.0703125 35.171875 C-19.24433594 33.97949219 -19.41835937 32.78710938 -19.59765625 31.55859375 C-19.77167969 30.30175781 -19.94570312 29.04492188 -20.125 27.75 C-20.30675781 26.50863281 -20.48851563 25.26726562 -20.67578125 23.98828125 C-22.11761776 13.91710744 -22.11761776 13.91710744 -22 9 C-19.6875 8.6875 -19.6875 8.6875 -17 9 C-14.2480175 12.46545944 -13.43578485 15.69264544 -12 20 C-8.04 13.4 -4.08 6.8 0 0 Z " fill="#0448A4" transform="translate(116,214)"/>
<path d="M0 0 C3.83318619 -0.08789644 7.66610928 -0.14069087 11.5 -0.1875 C13.11648437 -0.22520508 13.11648437 -0.22520508 14.765625 -0.26367188 C21.4676796 -0.32497115 28.20358581 -0.36936342 33.51708984 4.34643555 C38.33142408 9.76580747 39.43029249 14.52028146 39.2421875 21.57421875 C38.62383506 27.76771656 35.25807539 31.00805543 30.71875 34.80078125 C27.24869546 37.22193294 24.11018357 37.11761065 20.01953125 37.09765625 C18.85615234 37.09443359 17.69277344 37.09121094 16.49414062 37.08789062 C15.27919922 37.07951172 14.06425781 37.07113281 12.8125 37.0625 C11.58595703 37.05798828 10.35941406 37.05347656 9.09570312 37.04882812 C6.06375332 37.03703065 3.03190094 37.02056921 0 37 C0.66 36.34 1.32 35.68 2 35 C2.24515697 32.49624532 2.37333658 30.09450521 2.4140625 27.5859375 C2.43342865 26.85629791 2.4527948 26.12665833 2.4727478 25.37490845 C2.53258422 23.04172498 2.57894423 20.70849227 2.625 18.375 C2.66317614 16.79424918 2.70222765 15.21351924 2.7421875 13.6328125 C2.83828878 9.7553777 2.92230412 5.87784551 3 2 C2.01 2 1.02 2 0 2 C0 1.34 0 0.68 0 0 Z M20 11 C20 18.26 20 25.52 20 33 C25.72793243 31.72534723 25.72793243 31.72534723 27.35546875 29.18359375 C28.85525864 24.10248739 28.72050497 18.8581444 26.8125 13.9375 C24.8530283 11.46610868 24.8530283 11.46610868 20 11 Z " fill="#A68F50" transform="translate(209,228)"/>
<path d="M0 0 C8.13645875 0.18447818 12.72910835 2.38842525 18.375 8.1875 C23.48718648 14.25759125 26.86812982 21.30682928 30.375 28.375 C30.94605469 29.45394531 31.51710937 30.53289062 32.10546875 31.64453125 C33.375 34.375 33.375 34.375 33.375 37.375 C34.035 37.375 34.695 37.375 35.375 37.375 C35.87 39.355 35.87 39.355 36.375 41.375 C35.055 41.045 33.735 40.715 32.375 40.375 C32.375 39.385 32.375 38.395 32.375 37.375 C31.59125 38.2 30.8075 39.025 30 39.875 C27.375 42.375 27.375 42.375 25.375 42.375 C24.88 43.365 24.88 43.365 24.375 44.375 C21.735 39.095 19.095 33.815 16.375 28.375 C15.86938064 32.06180783 15.37032892 35.74930761 14.875 39.4375 C14.73191406 40.47583984 14.58882812 41.51417969 14.44140625 42.58398438 C13.29823882 50.45896438 13.29823882 50.45896438 13.375 58.375 C14.365 59.035 15.355 59.695 16.375 60.375 C10.765 60.375 5.155 60.375 -0.625 60.375 C1.025 59.055 2.675 57.735 4.375 56.375 C5.4127 53.6611333 5.4127 53.6611333 5.73828125 50.61328125 C5.90263672 49.49373047 6.06699219 48.37417969 6.23632812 47.22070312 C6.38521484 46.05474609 6.53410156 44.88878906 6.6875 43.6875 C6.85572266 42.54087891 7.02394531 41.39425781 7.19726562 40.21289062 C9.19043171 29.33856576 9.19043171 29.33856576 7.125 18.88671875 C2.86691568 14.44804604 -0.96714995 11.81372847 -6.625 9.375 C-7.625 8.375 -7.625 8.375 -7.8125 5.4375 C-7.47739323 -0.03591063 -4.81804494 0.06098791 0 0 Z " fill="#A68F53" transform="translate(32.625,217.625)"/>
<path d="M0 0 C0 3.3 0 6.6 0 10 C-2 7 -2 7 -2 5 C-6.29 4.67 -10.58 4.34 -15 4 C-15 8.95 -15 13.9 -15 19 C-11.7 18.34 -8.4 17.68 -5 17 C-4.505 15.515 -4.505 15.515 -4 14 C-3.34 14 -2.68 14 -2 14 C-2.33 17.96 -2.66 21.92 -3 26 C-3.99 24.68 -4.98 23.36 -6 22 C-8.26300895 21.3078631 -8.26300895 21.3078631 -10.6875 21.25 C-12.110625 21.1675 -13.53375 21.085 -15 21 C-15 25.95 -15 30.9 -15 36 C-7.1183592 34.99908158 -7.1183592 34.99908158 -0.24609375 31.46484375 C0.95976509 29.68536849 0.95976509 29.68536849 2 27 C3.60470241 31.01175602 2.2176313 34.01713733 1 38 C-4.44428237 38.09916726 -9.88803448 38.17160909 -15.33300781 38.21972656 C-17.18368696 38.23979339 -19.03430309 38.26705345 -20.88476562 38.30175781 C-23.55093977 38.35049433 -26.21627287 38.37301787 -28.8828125 38.390625 C-29.70492218 38.41127014 -30.52703186 38.43191528 -31.37405396 38.45318604 C-36.74528301 38.45526557 -39.72718852 37.54536947 -44 34 C-46.37109375 31.37890625 -46.37109375 31.37890625 -48.4375 28.5625 C-49.13746094 27.63566406 -49.83742188 26.70882812 -50.55859375 25.75390625 C-52 23 -52 23 -52.0078125 20.5625 C-50.40400718 16.48460741 -47.76370881 13.1983994 -45.15039062 9.72851562 C-42.74034356 6.42098714 -42 5.23688851 -42 1 C-38.04 1 -34.08 1 -30 1 C-31 3 -31 3 -33.2890625 4.3515625 C-36.14905358 6.09063489 -38.11615134 7.91461837 -40.375 10.375 C-41.08398438 11.12523437 -41.79296875 11.87546875 -42.5234375 12.6484375 C-44.19489153 14.86268183 -44.19489153 14.86268183 -44.046875 17.3046875 C-42.53272751 21.20305231 -40.31954165 24.37575235 -37.875 27.75 C-37.41351563 28.43449219 -36.95203125 29.11898438 -36.4765625 29.82421875 C-33.83853571 33.48411856 -32.70364064 34.81216985 -28.1953125 36.015625 C-25.14087625 36.37542313 -25.14087625 36.37542313 -24 35 C-23.75753708 30.61876853 -23.77148045 26.23192683 -23.75976562 21.84472656 C-23.75006991 19.64089071 -23.71906478 17.43799131 -23.6875 15.234375 C-23.68096911 13.83594305 -23.67571897 12.43750442 -23.671875 11.0390625 C-23.6625293 9.76240723 -23.65318359 8.48575195 -23.64355469 7.17041016 C-23.71788015 4.0102698 -23.71788015 4.0102698 -25.52050781 2.06005859 C-26.00874023 1.71023926 -26.49697266 1.36041992 -27 1 C-22.87502594 0.83268714 -18.75001667 0.66625884 -14.625 0.5 C-13.449375 0.45230469 -12.27375 0.40460938 -11.0625 0.35546875 C-9.94101562 0.31035156 -8.81953125 0.26523438 -7.6640625 0.21875 C-6.62717285 0.17685547 -5.5902832 0.13496094 -4.52197266 0.09179688 C-3.01533561 0.03695704 -1.50763477 0 0 0 Z " fill="#0648A1" transform="translate(448,227)"/>
<path d="M0 0 C3.54150893 -0.08761663 7.08273633 -0.14059739 10.625 -0.1875 C11.62402344 -0.21263672 12.62304688 -0.23777344 13.65234375 -0.26367188 C20.23574394 -0.32906989 24.72847234 0.25613809 29.9375 4.625 C31.65950531 8.47418834 31.31308334 12.03251162 30 16 C28.16134093 18.20435922 26.43220458 19.39577996 24 21 C24.70125 21.66 25.4025 22.32 26.125 23 C28.94270039 25.79375393 31.19610797 28.89141135 33.47265625 32.1328125 C35.12037415 34.14715816 36.86719213 35.52308788 39 37 C28.41327623 37.77087794 28.41327623 37.77087794 23.5625 35.125 C20.01068529 31.46779019 16 25.18578045 16 20 C15.34 20 14.68 20 14 20 C14 19.34 14 18.68 14 18 C15.98 17.67 17.96 17.34 20 17 C20.2493357 15.39884424 20.47378648 13.79379841 20.6875 12.1875 C20.81511719 11.29417969 20.94273437 10.40085938 21.07421875 9.48046875 C21.20946652 7.00385166 21.20946652 7.00385166 19.89453125 5.23828125 C17.36500642 3.58496296 14.96090832 3.4342398 12 3 C12.0688642 7.3605117 12.15682189 11.72009398 12.26245117 16.07983398 C12.29569423 17.56279854 12.32372823 19.04588944 12.34643555 20.52905273 C12.37999468 22.66184293 12.43230638 24.79347612 12.48828125 26.92578125 C12.51446533 28.20880127 12.54064941 29.49182129 12.56762695 30.8137207 C12.71613369 34.32173684 12.71613369 34.32173684 16 37 C10.72 37 5.44 37 0 37 C0.99 36.01 1.98 35.02 3 34 C3.41599077 30.70338429 3.41599077 30.70338429 3.29296875 26.92578125 C3.28872391 26.2419487 3.28447906 25.55811615 3.28010559 24.8535614 C3.26333353 22.67280439 3.22568657 20.49297691 3.1875 18.3125 C3.17245114 16.83269565 3.15876308 15.3528768 3.14648438 13.87304688 C3.11343569 10.24839664 3.06166446 6.62428906 3 3 C2.01 2.67 1.02 2.34 0 2 C0 1.34 0 0.68 0 0 Z " fill="#0D4899" transform="translate(454,228)"/>
<path d="M0 0 C2.25 -0.3125 2.25 -0.3125 5 0 C8.23901547 3.46188717 10.13112568 7.07247302 12.015625 11.39453125 C12.54414063 12.59658203 13.07265625 13.79863281 13.6171875 15.03710938 C14.16162279 16.29550178 14.70589158 17.55396623 15.25 18.8125 C15.80920451 20.09079744 16.36909394 21.36879549 16.9296875 22.64648438 C18.29321824 25.76144684 19.64971006 28.87928052 21 32 C21.0582462 28.27089934 21.09367917 24.54191636 21.125 20.8125 C21.14175781 19.75740234 21.15851563 18.70230469 21.17578125 17.61523438 C21.18222656 16.59365234 21.18867188 15.57207031 21.1953125 14.51953125 C21.20578613 13.58214111 21.21625977 12.64475098 21.22705078 11.67895508 C21.12764851 8.93935679 21.12764851 8.93935679 19.92529297 6.3425293 C19 4 19 4 20 1 C25.28 1 30.56 1 36 1 C35.01 1.99 34.02 2.98 33 4 C32.53453659 7.35946322 32.53453659 7.35946322 32.6015625 11.22265625 C32.59725723 12.27458412 32.59725723 12.27458412 32.59286499 13.34776306 C32.590826 14.8279603 32.59634448 16.30818458 32.60888672 17.78833008 C32.62496857 20.05806403 32.60902206 22.32602395 32.58984375 24.59570312 C32.59182574 26.03385811 32.59566851 27.47201198 32.6015625 28.91015625 C32.60494629 30.22121338 32.60833008 31.53227051 32.61181641 32.88305664 C32.73991699 33.91164795 32.86801758 34.94023926 33 36 C33.99 36.66 34.98 37.32 36 38 C28.41 38 20.82 38 13 38 C12 36 12 36 11.78515625 32.1484375 C11.1279974 25.72602788 8.24218756 20.36042849 5.4375 14.625 C4.41045405 12.4945478 3.38808051 10.36183483 2.37109375 8.2265625 C1.91661865 7.29408691 1.46214355 6.36161133 0.99389648 5.40087891 C0 3 0 3 0 0 Z " fill="#0D4896" transform="translate(362,227)"/>
<path d="M0 0 C2.34194833 3.51292249 2.57761063 6.35622223 2.875 10.4375 C2.98328125 11.44006836 2.98328125 11.44006836 3.09375 12.46289062 C3.35179625 15.88879415 3.35734988 17.56198253 1.1484375 20.26953125 C0.43945312 20.84058594 -0.26953125 21.41164063 -1 22 C-2.36821051 23.97630407 -3.70951192 25.97209016 -5 28 C-11.4 27.63076923 -11.4 27.63076923 -14.4375 24.4375 C-14.953125 23.633125 -15.46875 22.82875 -16 22 C-16.45375 22.804375 -16.9075 23.60875 -17.375 24.4375 C-19 27 -19 27 -21 28 C-23.2421875 28.203125 -23.2421875 28.203125 -25.875 28.25 C-26.73867188 28.27578125 -27.60234375 28.3015625 -28.4921875 28.328125 C-31.49854642 27.93476963 -32.84236692 27.10294653 -35 25 C-35.25 22.3125 -35.25 22.3125 -35 20 C-32.03 19.67 -29.06 19.34 -26 19 C-25.95101563 17.86820312 -25.90203125 16.73640625 -25.8515625 15.5703125 C-25.77653486 14.08851661 -25.70098703 12.606747 -25.625 11.125 C-25.5940625 10.37863281 -25.563125 9.63226563 -25.53125 8.86328125 C-25.2265625 3.2265625 -25.2265625 3.2265625 -23 1 C-21.15947576 3.9539168 -19.32882635 6.91382908 -17.5 9.875 C-16.97535156 10.71675781 -16.45070313 11.55851562 -15.91015625 12.42578125 C-15.41386719 13.23144531 -14.91757812 14.03710938 -14.40625 14.8671875 C-13.94541016 15.61081543 -13.48457031 16.35444336 -13.00976562 17.12060547 C-12 19 -12 19 -12 21 C-11.34 21 -10.68 21 -10 21 C-9.9175 20.14921875 -9.835 19.2984375 -9.75 18.421875 C-8.88530988 14.47672633 -7.18543229 11.57399667 -5 8.25 C-4.27038684 7.10966055 -3.54120108 5.9690475 -2.8125 4.828125 C-2.214375 3.89484375 -1.61625 2.9615625 -1 2 C-0.67 1.34 -0.34 0.68 0 0 Z M-18 18 C-17 20 -17 20 -17 20 Z " fill="#000001" transform="translate(327,245)"/>
<path d="M0 0 C3.25048942 3.84348411 5.78782869 7.82398529 8.25 12.1875 C8.61351562 12.81591797 8.97703125 13.44433594 9.3515625 14.09179688 C12 18.74647556 12 18.74647556 12 21 C12.66 21 13.32 21 14 21 C14.2475 19.98808594 14.495 18.97617187 14.75 17.93359375 C15.89189364 13.94400231 17.78843547 10.55212447 20 7.0625 C20.35578125 6.47404297 20.7115625 5.88558594 21.078125 5.27929688 C21.99094824 3.81298939 22.98911097 2.40050251 24 1 C24.66 1 25.32 1 26 1 C26.495 9.415 26.495 9.415 27 18 C26.01 18.33 25.02 18.66 24 19 C23.30741771 20.99117408 22.64252365 22.9921136 22 25 C20.8125 26.9375 20.8125 26.9375 19 28 C15.5625 28.0625 15.5625 28.0625 12 27 C9.5625 23.9375 9.5625 23.9375 8 21 C7.731875 21.78375 7.46375 22.5675 7.1875 23.375 C6 26 6 26 3 28 C0.87890625 28.265625 0.87890625 28.265625 -1.4375 28.25 C-2.19933594 28.25515625 -2.96117187 28.2603125 -3.74609375 28.265625 C-6.26683073 27.96855374 -7.87331668 27.37858012 -10 26 C-10.8125 23.4375 -10.8125 23.4375 -11 21 C-9.41727399 19.41727399 -7.61965997 19.65264253 -5.4375 19.4375 C-4.19806641 19.31181641 -4.19806641 19.31181641 -2.93359375 19.18359375 C-2.29550781 19.12300781 -1.65742188 19.06242187 -1 19 C-1.18433594 18.32582031 -1.36867187 17.65164063 -1.55859375 16.95703125 C-2.10100629 13.32334723 -1.63816234 10.3107865 -1.0625 6.6875 C-0.86785156 5.43324219 -0.67320312 4.17898437 -0.47265625 2.88671875 C-0.31667969 1.93410156 -0.16070312 0.98148438 0 0 Z " fill="#010100" transform="translate(167,245)"/>
<path d="M0 0 C0 2.64 0 5.28 0 8 C-0.66 8 -1.32 8 -2 8 C-2.185625 7.360625 -2.37125 6.72125 -2.5625 6.0625 C-3.93198035 3.61835167 -3.93198035 3.61835167 -7.4375 3.125 C-11.10622176 2.64937195 -11.10622176 2.64937195 -14 5 C-14.72965366 7.56282742 -14.72965366 7.56282742 -15 10 C-13.93845703 10.37318359 -13.93845703 10.37318359 -12.85546875 10.75390625 C-9.66275934 12.14716795 -7.12087108 13.88007126 -4.3125 15.9375 C-2.88357422 16.97197266 -2.88357422 16.97197266 -1.42578125 18.02734375 C1 20 1 20 3 23 C3.34323612 26.7069501 3.29041516 29.29009627 1.875 32.75 C-1.03432704 36.24119244 -3.82272738 37.73772129 -8.3671875 38.28515625 C-14.02287341 38.4828474 -17.99629372 37.61062936 -23 35 C-22.88637738 33.5199159 -22.75877092 32.04089926 -22.625 30.5625 C-22.55539063 29.73878906 -22.48578125 28.91507812 -22.4140625 28.06640625 C-22.20910156 27.04353516 -22.20910156 27.04353516 -22 26 C-21.34 25.67 -20.68 25.34 -20 25 C-19.80664062 25.56589844 -19.61328125 26.13179687 -19.4140625 26.71484375 C-19.15367187 27.44832031 -18.89328125 28.18179687 -18.625 28.9375 C-18.36976563 29.66839844 -18.11453125 30.39929688 -17.8515625 31.15234375 C-17.14728587 33.18682116 -17.14728587 33.18682116 -15 34 C-9.67032792 34.34092041 -9.67032792 34.34092041 -5 32 C-4.18014957 29.63492339 -4.18014957 29.63492339 -5 27 C-7.25593894 25.06591232 -9.33065583 23.51952283 -11.8125 21.9375 C-20.00550567 16.5713689 -20.00550567 16.5713689 -22 13 C-22.63009008 8.0380406 -22.82485645 6.14024274 -19.875 2.0625 C-13.72972138 -2.34606944 -7.13840829 -0.82561662 0 0 Z " fill="#A48F52" transform="translate(275,228)"/>
<path d="M0 0 C0.66 0 1.32 0 2 0 C2.13051758 1.08007324 2.26103516 2.16014648 2.39550781 3.27294922 C2.88400471 7.27475327 3.39656585 11.27316577 3.91650391 15.27099609 C4.13826949 17.00258594 4.35347552 18.7350289 4.56201172 20.46826172 C4.86271054 22.95793396 5.18677917 25.44359669 5.515625 27.9296875 C5.60434875 28.70682098 5.69307251 29.48395447 5.78448486 30.28463745 C6.0783563 32.71477499 6.0783563 32.71477499 7 36 C8.32 36.66 9.64 37.32 11 38 C5.39 38 -0.22 38 -6 38 C-5.34 37.34 -4.68 36.68 -4 36 C-3.85482256 33.0906442 -3.81369204 30.280054 -3.875 27.375 C-3.88402344 26.57320312 -3.89304688 25.77140625 -3.90234375 24.9453125 C-3.92593777 22.96341477 -3.96180935 20.98167019 -4 19 C-4.66 19 -5.32 19 -6 19 C-6.268125 19.721875 -6.53625 20.44375 -6.8125 21.1875 C-8.36894257 24.87381134 -10.44610027 28.11376043 -12.5625 31.5 C-13.96757058 33.94360101 -15.01983131 36.36108429 -16 39 C-16.66 39 -17.32 39 -18 39 C-19.32 36.36 -20.64 33.72 -22 31 C-20.35 31 -18.7 31 -17 31 C-17 30.34 -17 29.68 -17 29 C-16.34 28.67 -15.68 28.34 -15 28 C-15.99 27.01 -16.98 26.02 -18 25 C-17.67 24.34 -17.34 23.68 -17 23 C-16.01 23.66 -15.02 24.32 -14 25 C-13.57589844 24.11699219 -13.15179688 23.23398438 -12.71484375 22.32421875 C-5.0062054 6.47240276 -5.0062054 6.47240276 0 0 Z " fill="#A89152" transform="translate(197,227)"/>
<path d="M0 0 C3.4375 1.1875 3.4375 1.1875 7 3 C7.8125 5.625 7.8125 5.625 8 8 C8.66 8.33 9.32 8.66 10 9 C10.9296875 11.07421875 10.9296875 11.07421875 11.875 13.6875 C14.42630652 21.10307094 14.42630652 21.10307094 20.1484375 25.95703125 C21.71095134 26.47028418 23.28837107 26.94095428 24.87890625 27.359375 C27 28 27 28 30 30 C27.71074321 32.28925679 22.9453667 31.37227443 19.86108398 31.38061523 C11.26979568 31.17763929 7.41209288 27.66008968 1.6875 21.6875 C-3.55089343 15.48170189 -5.50417298 10.06676768 -5 2 C-4.360625 1.855625 -3.72125 1.71125 -3.0625 1.5625 C-1.02454854 1.18992819 -1.02454854 1.18992819 0 0 Z " fill="#0448A5" transform="translate(118,258)"/>
<path d="M0 0 C6.6 0 13.2 0 20 0 C20 0.33 20 0.66 20 1 C14.06 1.495 14.06 1.495 8 2 C7.67 6.95 7.34 11.9 7 17 C10.3 16.34 13.6 15.68 17 15 C17.33 14.01 17.66 13.02 18 12 C18.66 12 19.32 12 20 12 C19.67 15.96 19.34 19.92 19 24 C18.01 22.68 17.02 21.36 16 20 C13.73699105 19.3078631 13.73699105 19.3078631 11.3125 19.25 C9.889375 19.1675 8.46625 19.085 7 19 C7 23.95 7 28.9 7 34 C14.8816408 32.99908158 14.8816408 32.99908158 21.75390625 29.46484375 C22.95976509 27.68536849 22.95976509 27.68536849 24 25 C25.76732001 29.41830002 24.5154198 30.6960307 23 36 C14.75 36 6.5 36 -2 36 C-1.67 35.34 -1.34 34.68 -1 34 C-0.84355828 31.44893971 -0.74178611 28.92081337 -0.68359375 26.3671875 C-0.66281265 25.61535187 -0.64203156 24.86351624 -0.62062073 24.08889771 C-0.55517295 21.68435915 -0.49626262 19.27971033 -0.4375 16.875 C-0.39431023 15.24608229 -0.35069579 13.61717578 -0.30664062 11.98828125 C-0.19869615 7.99229894 -0.09958802 3.99623436 0 0 Z " fill="#0349A8" transform="translate(426,229)"/>
<path d="M0 0 C4.29 0 8.58 0 13 0 C15.25 5.625 15.25 5.625 14 9 C11.69 8.67 9.38 8.34 7 8 C7.0825 8.9075 7.165 9.815 7.25 10.75 C7 14 7 14 5.328125 16.17211914 C2.48547891 18.40396596 1.07755594 18.50300603 -2.5 18.49609375 C-3.551875 18.49673828 -4.60375 18.49738281 -5.6875 18.49804688 C-6.780625 18.47806641 -7.87375 18.45808594 -9 18.4375 C-10.093125 18.44458984 -11.18625 18.45167969 -12.3125 18.45898438 C-20.23611528 18.39586734 -20.23611528 18.39586734 -23.34375 16.78540039 C-25 15 -25 15 -25 10 C-17.41 9.67 -9.82 9.34 -2 9 C-1.67 7.02 -1.34 5.04 -1 3 C-0.67 2.01 -0.34 1.02 0 0 Z " fill="#000000" transform="translate(352,255)"/>
<path d="M0 0 C10.48275862 0 10.48275862 0 14 3 C18.60878076 9.41937321 18.58731881 15.88876833 17.5 23.5 C17.335 24.325 17.17 25.15 17 26 C16.34 26 15.68 26 15 26 C15.03480469 25.19175781 15.06960937 24.38351563 15.10546875 23.55078125 C15.13253906 22.48214844 15.15960938 21.41351563 15.1875 20.3125 C15.22230469 19.25675781 15.25710937 18.20101562 15.29296875 17.11328125 C14.95931055 13.56760678 14.22052241 11.76941558 12 9 C10.68 8.67 9.36 8.34 8 8 C8 15.26 8 22.52 8 30 C8.66 30.33 9.32 30.66 10 31 C6.7 31 3.4 31 0 31 C0 20.77 0 10.54 0 0 Z " fill="#010100" transform="translate(221,231)"/>
<path d="M0 0 C5.09435349 0.26237014 9.06058333 1.56560683 12.75 5.125 C13.85626817 6.39707886 14.94018401 7.68896836 16 9 C16.53238281 9.55300781 17.06476562 10.10601562 17.61328125 10.67578125 C20.4129698 14.07917623 21.16410266 16.7141433 20.859375 21.06640625 C20.4247846 25.08091837 19.75557711 29.03442335 19 33 C18.34 33 17.68 33 17 33 C16.443125 31.92621094 15.88625 30.85242188 15.3125 29.74609375 C10.62160943 20.92117473 6.4972372 13.76155838 -2.375 8.625 C-6.53282576 7.63504149 -10.74390877 7.31404168 -15 7 C-10.53417856 4.52225258 -6.56201281 4.47445891 -1.5625 5.5 C-1.046875 5.665 -0.53125 5.83 0 6 C-0.2784375 4.7934375 -0.2784375 4.7934375 -0.5625 3.5625 C-0.706875 2.716875 -0.85125 1.87125 -1 1 C-0.67 0.67 -0.34 0.34 0 0 Z M7 9 C7.33 9.66 7.66 10.32 8 11 C8.66 10.67 9.32 10.34 10 10 C9.01 9.67 8.02 9.34 7 9 Z " fill="#010101" transform="translate(44,211)"/>
<path d="M0 0 C0.66 0 1.32 0 2 0 C3.79305054 4.06189059 5.58419788 8.12461769 7.375 12.1875 C7.88289063 13.33798828 8.39078125 14.48847656 8.9140625 15.67382812 C9.40390625 16.78564453 9.89375 17.89746094 10.3984375 19.04296875 C11.07398682 20.57473755 11.07398682 20.57473755 11.76318359 22.13745117 C14.28422239 27.97226758 15.21461514 31.66885351 15 38 C11.37 38 7.74 38 4 38 C4.66 37.34 5.32 36.68 6 36 C5.63723355 33.17042171 4.90305236 30.70915709 4 28 C3.01 27.34 2.02 26.68 1 26 C1.33 25.01 1.66 24.02 2 23 C1.47339282 20.91105965 1.47339282 20.91105965 0.5625 18.8125 C0.27503906 18.09707031 -0.01242187 17.38164062 -0.30859375 16.64453125 C-0.53675781 16.10183594 -0.76492188 15.55914062 -1 15 C-1.33 15.66 -1.66 16.32 -2 17 C-2.99 17 -3.98 17 -5 17 C-4.06898067 10.84431924 -3.20578207 5.39154257 0 0 Z " fill="#0748A1" transform="translate(360,227)"/>
<path d="M0 0 C6.60182185 -1.03796349 13.41759953 -0.8252986 19.2265625 2.6796875 C25.53386705 7.37543406 29.6313382 12.4085125 32 20 C32 20.99 32 21.98 32 23 C29.36 23 26.72 23 24 23 C24 22.34 24 21.68 24 21 C23.01 21.33 22.02 21.66 21 22 C20.67 21.01 20.34 20.02 20 19 C19.34 19.33 18.68 19.66 18 20 C17.64808594 19.41992188 17.29617187 18.83984375 16.93359375 18.2421875 C12.8506905 11.78203249 8.68775519 5.85415726 1.0625 3.625 C0.051875 3.41875 -0.95875 3.2125 -2 3 C-1.34 2.01 -0.68 1.02 0 0 Z " fill="#0249AA" transform="translate(46,208)"/>
<path d="M0 0 C2.25 -0.3125 2.25 -0.3125 5 0 C8.23901547 3.46188717 10.13112568 7.07247302 12.015625 11.39453125 C12.54414063 12.59658203 13.07265625 13.79863281 13.6171875 15.03710938 C14.16162279 16.29550178 14.70589158 17.55396623 15.25 18.8125 C15.80920451 20.09079744 16.36909394 21.36879549 16.9296875 22.64648438 C18.29321824 25.76144684 19.64971006 28.87928052 21 32 C21.0582462 28.27089934 21.09367917 24.54191636 21.125 20.8125 C21.14175781 19.75740234 21.15851563 18.70230469 21.17578125 17.61523438 C21.18222656 16.59365234 21.18867188 15.57207031 21.1953125 14.51953125 C21.20578613 13.58214111 21.21625977 12.64475098 21.22705078 11.67895508 C20.98166713 8.78369188 20.20521619 6.62937303 19 4 C20.32 3.67 21.64 3.34 23 3 C23.02465288 7.68139254 23.04283739 12.36274759 23.05493164 17.04418945 C23.05997157 18.63794614 23.0668035 20.23169819 23.07543945 21.82543945 C23.08751999 24.11150253 23.09323155 26.39750467 23.09765625 28.68359375 C23.10281754 29.40026718 23.10797882 30.11694061 23.11329651 30.85533142 C23.11349263 32.57063672 23.06192007 34.28581266 23 36 C22 37 22 37 19.6875 37.375 C17 37 17 37 15.03417969 34.89697266 C12.85165456 31.78873415 11.31725228 28.7390567 9.765625 25.2734375 C9.34129181 24.32919418 9.34129181 24.32919418 8.90838623 23.36587524 C8.3167266 22.04465236 7.7286592 20.72181546 7.14404297 19.39746094 C6.24771761 17.36983688 5.33763546 15.34880568 4.42578125 13.328125 C3.85073795 12.03943012 3.27649086 10.75037959 2.703125 9.4609375 C2.18395508 8.29353027 1.66478516 7.12612305 1.12988281 5.92333984 C0 3 0 3 0 0 Z " fill="#000001" transform="translate(362,227)"/>
<path d="M0 0 C2.31 0.33 4.62 0.66 7 1 C9.19861963 6.60600417 9.82926203 12.25564358 10.5625 18.1875 C10.81119578 20.16048652 11.06238679 22.13316058 11.31640625 24.10546875 C11.42412354 24.97324951 11.53184082 25.84103027 11.64282227 26.73510742 C11.96125595 29.15807556 11.96125595 29.15807556 13 32 C11.5625 34.6875 11.5625 34.6875 10 37 C8.35 36.67 6.7 36.34 5 36 C3.15848663 24.01788633 1.42919471 12.0388637 0 0 Z " fill="#000000" transform="translate(334,227)"/>
<path d="M0 0 C0.99 0 1.98 0 3 0 C3.12375 0.804375 3.2475 1.60875 3.375 2.4375 C3.58125 3.283125 3.7875 4.12875 4 5 C4.66 5.33 5.32 5.66 6 6 C7.18703502 11.95059112 7.28484076 17.98263173 7.4296875 24.03515625 C7.62128632 28.52974531 7.68492986 29.68492986 11 33 C5.72 33 0.44 33 -5 33 C-4.01 32.01 -3.02 31.02 -2 30 C-1.34 30 -0.68 30 0 30 C0 20.1 0 10.2 0 0 Z " fill="#0149AC" transform="translate(459,232)"/>
<path d="M0 0 C9.79606462 3.88043557 15.96149848 11.39029859 21.640625 19.984375 C22.625 22.5625 22.625 22.5625 21.921875 25.265625 C20.625 27.5625 20.625 27.5625 18.625 29.5625 C17.6040625 27.9228125 17.6040625 27.9228125 16.5625 26.25 C15.87414062 25.15945312 15.87414062 25.15945312 15.171875 24.046875 C14.0973234 22.32108 13.046827 20.58016723 12.015625 18.828125 C7.39217146 11.15064711 2.43142156 4.43672701 -6.375 1.5625 C-8.30403132 1.2865522 -10.2439032 1.07800097 -12.1875 0.9375 C-13.16332031 0.86273438 -14.13914063 0.78796875 -15.14453125 0.7109375 C-15.88058594 0.66195312 -16.61664063 0.61296875 -17.375 0.5625 C-11.49807581 -2.66657923 -6.20332385 -1.92153879 0 0 Z " fill="#000101" transform="translate(65.375,207.4375)"/>
<path d="M0 0 C1.0326802 2.78823655 1.04509293 3.8677274 0.0625 6.75 C-0.4634375 7.86375 -0.4634375 7.86375 -1 9 C-0.01 9 0.98 9 2 9 C2.33 8.01 2.66 7.02 3 6 C3.69937202 7.4317616 4.38412718 8.87067032 5.0625 10.3125 C5.44535156 11.11300781 5.82820313 11.91351563 6.22265625 12.73828125 C7 15 7 15 6 18 C6.66 18.66 7.32 19.32 8 20 C4.04 20 0.08 20 -4 20 C-4.66 22.97 -5.32 25.94 -6 29 C-5.34 29.33 -4.68 29.66 -4 30 C-8.29 30 -12.58 30 -17 30 C-16.67 29.34 -16.34 28.68 -16 28 C-14.68 28 -13.36 28 -12 28 C-11.50802124 26.83428467 -11.50802124 26.83428467 -11.00610352 25.64501953 C-9.7896678 22.76361303 -8.57264593 19.88245504 -7.35522461 17.00146484 C-6.82829628 15.75416852 -6.30160216 14.50677324 -5.77514648 13.25927734 C-5.01868184 11.46686254 -4.26130678 9.67483204 -3.50390625 7.8828125 C-3.04830322 6.80402832 -2.5927002 5.72524414 -2.12329102 4.61376953 C-1.45483844 3.05835696 -0.75711784 1.51423568 0 0 Z " fill="#0A479B" transform="translate(356,235)"/>
<path d="M0 0 C1.2065625 0.0309375 1.2065625 0.0309375 2.4375 0.0625 C2.4468457 0.83440674 2.45619141 1.60631348 2.46582031 2.40161133 C2.51944706 5.89339582 2.60311017 9.38382931 2.6875 12.875 C2.70167969 14.08994141 2.71585937 15.30488281 2.73046875 16.55664062 C2.76269531 17.72001953 2.79492188 18.88339844 2.828125 20.08203125 C2.84907227 21.15557861 2.87001953 22.22912598 2.89160156 23.33520508 C3.23020441 26.60148601 3.23020441 26.60148601 7.4375 29.0625 C3.8075 29.0625 0.1775 29.0625 -3.5625 29.0625 C-3.58715881 25.09319011 -3.60534023 21.12390966 -3.61743164 17.15454102 C-3.62247057 15.80329614 -3.62930177 14.45205674 -3.63793945 13.10083008 C-3.65002419 11.16229566 -3.65519828 9.223722 -3.66015625 7.28515625 C-3.66539307 6.11734619 -3.67062988 4.94953613 -3.67602539 3.74633789 C-3.52118943 0.08588267 -3.52118943 0.08588267 0 0 Z " fill="#0249AB" transform="translate(390.5625,235.9375)"/>
<path d="M0 0 C6.94405001 0.14466771 10.27863235 3.11512179 15 8 C15.845625 8.845625 16.69125 9.69125 17.5625 10.5625 C22.46834731 22.293874 16.0542431 40.88010847 14 53 C13.67 53 13.34 53 13 53 C13.44838238 46.55745313 14.08284071 40.19765521 15.0625 33.8125 C15.38212562 31.54265865 15.69526762 29.27188874 16 27 C16.12375 26.14019531 16.2475 25.28039062 16.375 24.39453125 C16.75732062 19.76685878 15.93189459 17.32732358 13 13.6875 C9.39273137 9.99189009 5.71478448 8.03223469 1 6 C0 5 0 5 -0.0625 2.4375 C-0.041875 1.633125 -0.02125 0.82875 0 0 Z " fill="#030201" transform="translate(25,221)"/>
<path d="M0 0 C2.625 -0.5 2.625 -0.5 6 0 C10.5987327 4.31573377 13.58520782 10.48398993 16.703125 15.8984375 C17.95652712 18.11013421 17.95652712 18.11013421 20 20 C19.01 21.98 18.02 23.96 17 26 C16.34 26 15.68 26 15 26 C13.61132812 24.04394531 13.61132812 24.04394531 12.03125 21.328125 C11.46019531 20.35359375 10.88914062 19.3790625 10.30078125 18.375 C9.70652344 17.34375 9.11226563 16.3125 8.5 15.25 C7.90574219 14.23421875 7.31148438 13.2184375 6.69921875 12.171875 C1.99207711 4.09641756 1.99207711 4.09641756 0 0 Z " fill="#000001" transform="translate(302,227)"/>
<path d="M0 0 C2.1875 -0.375 2.1875 -0.375 5 0 C10.86210223 5.54523184 15.39279005 13.78558009 19 21 C17.5625 23.625 17.5625 23.625 16 26 C11.20544466 21.74888604 8.31982432 16.8620252 5.1875 11.3125 C4.68541016 10.44560547 4.18332031 9.57871094 3.66601562 8.68554688 C0 2.27625425 0 2.27625425 0 0 Z " fill="#020201" transform="translate(167,227)"/>
<path d="M0 0 C7.84257621 -1.2330396 14.38374826 -0.32601075 21 4 C21.33 4.66 21.66 5.32 22 6 C21.34 6 20.68 6 20 6 C20 6.66 20 7.32 20 8 C18.68 8.33 17.36 8.66 16 9 C16.4640625 9.7734375 16.4640625 9.7734375 16.9375 10.5625 C18.29059287 13.66665423 18.61359424 16.65115007 19 20 C18.505 19.360625 18.01 18.72125 17.5 18.0625 C16.2625 16.5465625 16.2625 16.5465625 15 15 C14.42894531 14.26394531 13.85789062 13.52789062 13.26953125 12.76953125 C8.73676779 7.2234554 5.07062127 4.42394456 -2 3 C-1.34 2.01 -0.68 1.02 0 0 Z " fill="#0A469A" transform="translate(46,208)"/>
<path d="M0 0 C1.00109515 3.31070838 1.10356134 6.30084769 1.0625 9.75 C1.05347656 10.73484375 1.04445312 11.7196875 1.03515625 12.734375 C1.02355469 13.48203125 1.01195312 14.2296875 1 15 C1.99 15.33 2.98 15.66 4 16 C3.74863281 17.91425781 3.74863281 17.91425781 3.4921875 19.8671875 C3.28588192 21.53638719 3.08018417 23.20566209 2.875 24.875 C2.70677734 26.13763672 2.70677734 26.13763672 2.53515625 27.42578125 C2.43847656 28.23144531 2.34179688 29.03710938 2.2421875 29.8671875 C2.1479248 30.61081543 2.05366211 31.35444336 1.95654297 32.12060547 C1.78934935 34.24973058 1.78934935 34.24973058 4 36 C0.04 36 -3.92 36 -8 36 C-7.01 35.01 -6.02 34.02 -5 33 C-4.23203461 29.86409795 -4.23203461 29.86409795 -3.8671875 26.25 C-3.78501984 25.59547852 -3.70285217 24.94095703 -3.61819458 24.26660156 C-3.3583343 22.17900859 -3.1160248 20.08984374 -2.875 18 C-2.62345771 15.91070803 -2.36830283 13.82191225 -2.11038208 11.73339844 C-1.87806146 9.83868367 -1.6553465 7.94279848 -1.43310547 6.046875 C-1 3 -1 3 0 0 Z " fill="#5B5130" transform="translate(164,229)"/>
<path d="M0 0 C1.13480527 3.60993172 1.10015767 6.9842327 1.0625 10.75 C1.05347656 11.92046875 1.04445313 13.0909375 1.03515625 14.296875 C1.02355469 15.18890625 1.01195312 16.0809375 1 17 C1.99 17 2.98 17 4 17 C3.67 17.66 3.34 18.32 3 19 C2.60772162 21.70872518 2.25430502 24.40751693 1.9375 27.125 C1.84662109 27.87910156 1.75574219 28.63320313 1.66210938 29.41015625 C1.43809148 31.27304188 1.21861427 33.13647252 1 35 C1.66 35.33 2.32 35.66 3 36 C-0.63 36 -4.26 36 -8 36 C-7.01 34.68 -6.02 33.36 -5 32 C-4.23969286 28.7538717 -4.23969286 28.7538717 -3.8671875 25.1171875 C-3.743936 24.13397018 -3.743936 24.13397018 -3.61819458 23.13088989 C-3.35889973 21.0468149 -3.11621969 18.96123738 -2.875 16.875 C-2.62366084 14.78210893 -2.36886305 12.68970763 -2.11038208 10.59768677 C-1.87798126 8.70508844 -1.65530538 6.81130353 -1.43310547 4.91748047 C-1 2 -1 2 0 0 Z " fill="#03214C" transform="translate(300,229)"/>
<path d="M0 0 C2.3125 -0.3125 2.3125 -0.3125 5 0 C8.26765292 3.75174965 9.98402456 9.03962656 10 14 C8.73299208 17.29721353 7.03010464 20.1183414 5 23 C4.34 23 3.68 23 3 23 C2.49494737 20.10496617 1.9957978 17.20912047 1.5 14.3125 C1.35691406 13.49587891 1.21382813 12.67925781 1.06640625 11.83789062 C0.38834038 7.85021752 -0.19858392 4.06269596 0 0 Z " fill="#000000" transform="translate(94,223)"/>
<path d="M0 0 C3 1 3 1 5.125 3.375 C8.77147459 6.70438985 12.30263108 7.74122794 17 9 C14.38161579 11.61838421 13.08933031 11.35821377 9.4375 11.4375 C3.28479473 11.34136398 -1.19797023 9.87424907 -6 6 C-7.74609375 3.828125 -7.74609375 3.828125 -9 2 C-6.66666667 2 -4.33333333 2 -2 2 C-1.34 1.34 -0.68 0.68 0 0 Z " fill="#A48E52" transform="translate(104,282)"/>
<path d="M0 0 C-0.03480469 1.13179688 -0.06960937 2.26359375 -0.10546875 3.4296875 C-0.13360336 4.91144353 -0.16090387 6.39321556 -0.1875 7.875 C-0.21263672 8.62136719 -0.23777344 9.36773437 -0.26367188 10.13671875 C-0.3298764 12.56221828 -0.3298764 12.56221828 0 16 C0.99 16.66 1.98 17.32 3 18 C-2.61 18 -8.22 18 -14 18 C-9 14 -9 14 -7 14 C-6.67 10.37 -6.34 6.74 -6 3 C-5.34 3 -4.68 3 -4 3 C-4 2.34 -4 1.68 -4 1 C-1 0 -1 0 0 0 Z " fill="#9F8A50" transform="translate(46,260)"/>
<path d="M0 0 C0.66 0.33 1.32 0.66 2 1 C2.62306236 3.8648944 3.12937013 6.66809245 3.5625 9.5625 C3.68818359 10.34947266 3.81386719 11.13644531 3.94335938 11.94726562 C4.73164748 16.95351417 5.3948441 21.96856096 6 27 C5.34 27 4.68 27 4 27 C-5.35515695 12.31121076 -5.35515695 12.31121076 -4.484375 6.64453125 C-3.18152297 4.16410143 -1.85669961 2.09328737 0 0 Z " fill="#164C90" transform="translate(84,247)"/>
<path d="M0 0 C7 9.0316092 7 9.0316092 7 14.5625 C5.62373563 17.9171444 3.88414252 20.90028167 2 24 C-0.55191833 21.00426979 -1.52851921 18.90043197 -2 15 C-1.76174418 12.35727745 -1.4654214 9.80273517 -1.0625 7.1875 C-0.96259766 6.49462891 -0.86269531 5.80175781 -0.75976562 5.08789062 C-0.51398412 3.39082787 -0.25801848 1.69524541 0 0 Z " fill="#010101" transform="translate(69,237)"/>
<path d="M0 0 C0.33 0 0.66 0 1 0 C1 10.23 1 20.46 1 31 C4.3 31 7.6 31 11 31 C11 30.34 11 29.68 11 29 C11.99 28.67 12.98 28.34 14 28 C14.66 27.34 15.32 26.68 16 26 C16 27.32 16 28.64 16 30 C17.32 30 18.64 30 20 30 C20 29.34 20 28.68 20 28 C20.99 28.33 21.98 28.66 23 29 C18.60496813 32.682324 15.84097106 34.13236952 10.11328125 34.09765625 C9.17548828 34.09443359 8.23769531 34.09121094 7.27148438 34.08789062 C5.80678711 34.07532227 5.80678711 34.07532227 4.3125 34.0625 C2.83040039 34.05573242 2.83040039 34.05573242 1.31835938 34.04882812 C-1.12115474 34.03704303 -3.56054689 34.02059011 -6 34 C-6 33.67 -6 33.34 -6 33 C-3.03 32.505 -3.03 32.505 0 32 C0 21.44 0 10.88 0 0 Z " fill="#8F7E4D" transform="translate(220,231)"/>
<path d="M0 0 C0.66 0.99 1.32 1.98 2 3 C1.34 3 0.68 3 0 3 C0 4.65 0 6.3 0 8 C-0.99 8.33 -1.98 8.66 -3 9 C-3.16681109 11.91652174 -3.16681109 11.91652174 -3 15 C-2.34 15.66 -1.68 16.32 -1 17 C-3.64 21.62 -6.28 26.24 -9 31 C-9.66 30.67 -10.32 30.34 -11 30 C-11.4140625 27.93359375 -11.4140625 27.93359375 -11.625 25.4375 C-11.69976562 24.61121094 -11.77453125 23.78492188 -11.8515625 22.93359375 C-11.92503906 21.97646484 -11.92503906 21.97646484 -12 21 C-11.34 21 -10.68 21 -10 21 C-9.63261719 19.75863281 -9.63261719 19.75863281 -9.2578125 18.4921875 C-7.80806511 14.46711244 -5.9276949 10.86772286 -3.875 7.125 C-3.50246094 6.43664062 -3.12992188 5.74828125 -2.74609375 5.0390625 C-1.83500474 3.35705202 -0.91809685 1.67819564 0 0 Z " fill="#06469D" transform="translate(109,225)"/>
<path d="M0 0 C0 3.3 0 6.6 0 10 C-2 7 -2 7 -2 5 C-5.96 4.67 -9.92 4.34 -14 4 C-14 3.67 -14 3.34 -14 3 C-16.64 2.67 -19.28 2.34 -22 2 C-21.98952637 3.0194873 -21.97905273 4.03897461 -21.96826172 5.08935547 C-21.93211273 8.86503602 -21.90911823 12.64070121 -21.89013672 16.41650391 C-21.88006746 18.05194672 -21.86641119 19.68737149 -21.84912109 21.32275391 C-21.82491295 23.6709437 -21.81352643 26.01889588 -21.8046875 28.3671875 C-21.79436493 29.10057343 -21.78404236 29.83395935 -21.77340698 30.58956909 C-21.77300632 32.39462697 -21.87787245 34.1990783 -22 36 C-24 38 -24 38 -27.625 38.125 C-28.73875 38.08375 -29.8525 38.0425 -31 38 C-30.67 37.34 -30.34 36.68 -30 36 C-29.195625 36.020625 -28.39125 36.04125 -27.5625 36.0625 C-25.06645115 36.29633621 -25.06645115 36.29633621 -24 35 C-23.75753708 30.61876853 -23.77148045 26.23192683 -23.75976562 21.84472656 C-23.75006991 19.64089071 -23.71906478 17.43799131 -23.6875 15.234375 C-23.68096911 13.83594305 -23.67571897 12.43750442 -23.671875 11.0390625 C-23.6625293 9.76240723 -23.65318359 8.48575195 -23.64355469 7.17041016 C-23.71788015 4.0102698 -23.71788015 4.0102698 -25.52050781 2.06005859 C-26.00874023 1.71023926 -26.49697266 1.36041992 -27 1 C-22.87502594 0.83268714 -18.75001667 0.66625884 -14.625 0.5 C-13.449375 0.45230469 -12.27375 0.40460938 -11.0625 0.35546875 C-9.94101562 0.31035156 -8.81953125 0.26523438 -7.6640625 0.21875 C-6.62717285 0.17685547 -5.5902832 0.13496094 -4.52197266 0.09179688 C-3.01533561 0.03695704 -1.50763477 0 0 0 Z " fill="#1B4986" transform="translate(448,227)"/>
<path d="M0 0 C0.66 0 1.32 0 2 0 C2.16775443 4.35971314 2.32829897 8.71961417 2.48217773 13.07983398 C2.53553529 14.56297949 2.59085973 16.04605561 2.64819336 17.52905273 C2.73027921 19.66114337 2.80528001 21.79338379 2.87890625 23.92578125 C2.9260376 25.20880127 2.97316895 26.49182129 3.02172852 27.8137207 C3 31 3 31 2 34 C-1.96 34 -5.92 34 -10 34 C-10.33 33.34 -10.66 32.68 -11 32 C-10.0625 29.875 -10.0625 29.875 -9 28 C-8.608125 28.66 -8.21625 29.32 -7.8125 30 C-6.9153125 30.99 -6.9153125 30.99 -6 32 C-4.35 32 -2.7 32 -1 32 C-0.67 21.44 -0.34 10.88 0 0 Z " fill="#0C3F7C" transform="translate(385,231)"/>
<path d="M0 0 C0.66 0 1.32 0 2 0 C2.50910422 3.49873754 3.005606 6.99915601 3.5 10.5 C3.64308594 11.48226562 3.78617188 12.46453125 3.93359375 13.4765625 C4.71357983 19.04789162 5.160716 24.37493985 5 30 C4.67 30 4.34 30 4 30 C3.01 23.4 2.02 16.8 1 10 C-0.32 10.99 -1.64 11.98 -3 13 C-5 14.5 -5 14.5 -7 16 C-7.66 15.67 -8.32 15.34 -9 15 C-7.55041382 12.4945424 -6.09101202 9.99581801 -4.625 7.5 C-4.2125 6.78457031 -3.8 6.06914062 -3.375 5.33203125 C-2.30548562 3.52075689 -1.1580962 1.75595814 0 0 Z " fill="#90804E" transform="translate(197,227)"/>
<path d="M0 0 C3.96 0 7.92 0 12 0 C11 2 11 2 8.703125 3.3515625 C5.85439272 5.08879519 3.96815304 6.89439374 1.75 9.375 C0.72132813 10.50035156 0.72132813 10.50035156 -0.328125 11.6484375 C-2.1197544 14.1684396 -2.63460804 15.95864924 -3 19 C-3.33 19 -3.66 19 -4 19 C-4 17.02 -4 15.04 -4 13 C-4.66 12.67 -5.32 12.34 -6 12 C-5.48308594 11.38511719 -4.96617187 10.77023438 -4.43359375 10.13671875 C-3.77488281 9.32847656 -3.11617188 8.52023438 -2.4375 7.6875 C-1.77621094 6.88699219 -1.11492187 6.08648437 -0.43359375 5.26171875 C0.03949219 4.51535156 0.51257813 3.76898438 1 3 C0.67 2.01 0.34 1.02 0 0 Z " fill="#0C4794" transform="translate(406,228)"/>
<path d="M0 0 C0.96661363 3.12180401 0.98988909 5.52083795 0.5625 8.75 C0.40974609 9.94882813 0.40974609 9.94882813 0.25390625 11.171875 C0.12822266 12.07679688 0.12822266 12.07679688 0 13 C0.474375 12.505 0.94875 12.01 1.4375 11.5 C3 10 3 10 4 10 C3.88597936 12.27141109 3.75841495 14.54214552 3.625 16.8125 C3.55539063 18.07707031 3.48578125 19.34164062 3.4140625 20.64453125 C3 24 3 24 1 27 C-3.851201 19.78333735 -2.98633241 13.52822289 -1.67578125 5.37890625 C-1 2 -1 2 0 0 Z " fill="#134788" transform="translate(65,228)"/>
<path d="M0 0 C1.32 0.66 2.64 1.32 4 2 C4.33 1.34 4.66 0.68 5 0 C6.32 0 7.64 0 9 0 C8.28028381 3.75345656 6.66887798 6.86091969 4.9375 10.25 C4.38964844 11.32765625 3.84179688 12.4053125 3.27734375 13.515625 C2.64505859 14.74539063 2.64505859 14.74539063 2 16 C1.34 16 0.68 16 0 16 C-1.32 13.36 -2.64 10.72 -4 8 C-2.35 8 -0.7 8 1 8 C1 7.34 1 6.68 1 6 C1.66 5.67 2.32 5.34 3 5 C2.2575 4.319375 2.2575 4.319375 1.5 3.625 C0 2 0 2 0 0 Z " fill="#9D8950" transform="translate(179,250)"/>
<path d="M0 0 C0 2.64 0 5.28 0 8 C-0.66 8 -1.32 8 -2 8 C-2.185625 7.360625 -2.37125 6.72125 -2.5625 6.0625 C-3.93198035 3.61835167 -3.93198035 3.61835167 -7.4375 3.125 C-11.10622176 2.64937195 -11.10622176 2.64937195 -14 5 C-14.99 6.485 -14.99 6.485 -16 8 C-16 6.68 -16 5.36 -16 4 C-17.32 3.34 -18.64 2.68 -20 2 C-13.73484286 -2.17677142 -7.13524729 -0.82525102 0 0 Z " fill="#96854C" transform="translate(275,228)"/>
<path d="M0 0 C0.33 0 0.66 0 1 0 C3.42857143 6.28571429 3.42857143 6.28571429 2 10 C1.67 9.67 1.34 9.34 1 9 C-1.97 13.95 -1.97 13.95 -5 19 C-6.32 17.68 -7.64 16.36 -9 15 C-8.34 15 -7.68 15 -7 15 C-6.6596875 13.7934375 -6.6596875 13.7934375 -6.3125 12.5625 C-4.66368412 8.08714261 -2.39455588 4.11278682 0 0 Z " fill="#0A479A" transform="translate(326,238)"/>
<path d="M0 0 C1.65 0 3.3 0 5 0 C5 2.31 5 4.62 5 7 C5.66 7 6.32 7 7 7 C7 11.29 7 15.58 7 20 C4.99006295 15.98012591 4.44694238 13.16212692 3.875 8.75 C3.70742187 7.48671875 3.53984375 6.2234375 3.3671875 4.921875 C3.24601562 3.95765625 3.12484375 2.9934375 3 2 C1.35 4.64 -0.3 7.28 -2 10 C-2.33 8.68 -2.66 7.36 -3 6 C-3.99 6.99 -4.98 7.98 -6 9 C-6.66 8.67 -7.32 8.34 -8 8 C-6.35 5.69 -4.7 3.38 -3 1 C-2.67 1.66 -2.34 2.32 -2 3 C-1.34 3 -0.68 3 0 3 C0 2.01 0 1.02 0 0 Z " fill="#97916C" transform="translate(82,246)"/>
<path d="M0 0 C0.99 0.33 1.98 0.66 3 1 C3.433125 1.9590625 3.433125 1.9590625 3.875 2.9375 C5.391359 5.7174915 7.11946947 5.89210364 10 7 C10.33 7.99 10.66 8.98 11 10 C11.33 9.67 11.66 9.34 12 9 C11.71325582 6.99279077 11.38133299 4.9914056 11 3 C11.721875 3.7425 12.44375 4.485 13.1875 5.25 C15.68592573 7.69290515 18.23643202 9.8681047 21 12 C9.19077229 12.85989522 9.19077229 12.85989522 5.4375 9.9375 C2.70661127 6.64642897 1.41407779 4.00655375 0 0 Z " fill="#0F4591" transform="translate(472,253)"/>
<path d="M0 0 C2.9555377 2.75170751 5.11563315 5.41970299 7 9 C7 9.66 7 10.32 7 11 C6.34 11 5.68 11 5 11 C4.67 11.66 4.34 12.32 4 13 C3.34 12.34 2.68 11.68 2 11 C2 10.01 2 9.02 2 8 C1.34 8 0.68 8 0 8 C0 10.64 0 13.28 0 16 C0.99 16.33 1.98 16.66 3 17 C1.68 17.99 0.36 18.98 -1 20 C-1.02722517 17.79173622 -1.04649729 15.58337362 -1.0625 13.375 C-1.07410156 12.14523438 -1.08570313 10.91546875 -1.09765625 9.6484375 C-1.00863924 6.32276209 -0.63686087 3.25952412 0 0 Z " fill="#0B499A" transform="translate(301,227)"/>
<path d="M0 0 C2 4 2 4 2.625 6.125 C4.9360775 9.27646932 8.26665308 9.27741673 12 10 C12 10.66 12 11.32 12 12 C10.22950311 12.05410687 8.45853151 12.09284119 6.6875 12.125 C5.20830078 12.15980469 5.20830078 12.15980469 3.69921875 12.1953125 C1 12 1 12 -2 10 C-1.85950482 8.52031676 -1.71245174 7.04125484 -1.5625 5.5625 C-1.48128906 4.73878906 -1.40007812 3.91507812 -1.31640625 3.06640625 C-1 1 -1 1 0 0 Z " fill="#A08C54" transform="translate(254,253)"/>
<path d="M0 0 C0.33 0 0.66 0 1 0 C1.03738281 1.04800781 1.07476562 2.09601563 1.11328125 3.17578125 C1.17894515 4.55472305 1.24539235 5.93362771 1.3125 7.3125 C1.33505859 8.00279297 1.35761719 8.69308594 1.38085938 9.40429688 C1.61274126 13.76789236 1.77200653 14.77200653 5 18 C-0.28 18 -5.56 18 -11 18 C-9.68 17.01 -8.36 16.02 -7 15 C-6.34 15.33 -5.68 15.66 -5 16 C-5 15.01 -5 14.02 -5 13 C-3.35 12.67 -1.7 12.34 0 12 C0 8.04 0 4.08 0 0 Z " fill="#07479F" transform="translate(465,247)"/>
<path d="M0 0 C0.99 0.99 1.98 1.98 3 3 C0.36 7.29 -2.28 11.58 -5 16 C-8.375 11.5 -8.375 11.5 -9 8 C-6.34771188 6.92474806 -3.71631546 5.90543849 -1 5 C-0.67 3.35 -0.34 1.7 0 0 Z " fill="#104A96" transform="translate(82,235)"/>
<path d="M0 0 C1.32 0.33 2.64 0.66 4 1 C4 1.66 4 2.32 4 3 C5.32 3.33 6.64 3.66 8 4 C8.33 5.98 8.66 7.96 9 10 C8.01 10.495 8.01 10.495 7 11 C7 11.99 7 12.98 7 14 C5.0625 12.9375 5.0625 12.9375 3 11 C2.59952556 8.67724823 2.2602896 6.34260643 2 4 C1.34 3.67 0.68 3.34 0 3 C0 2.01 0 1.02 0 0 Z " fill="#0149AE" transform="translate(474,229)"/>
<path d="M0 0 C9.59453303 2.70615034 9.59453303 2.70615034 13 7 C12.67 7.66 12.34 8.32 12 9 C11.05125 8.814375 10.1025 8.62875 9.125 8.4375 C6.10131207 7.71313368 6.10131207 7.71313368 4 9 C3.566875 8.38125 3.13375 7.7625 2.6875 7.125 C1.00259517 4.7802755 1.00259517 4.7802755 -2 3 C-1.34 3 -0.68 3 0 3 C0 2.01 0 1.02 0 0 Z " fill="#9B8950" transform="translate(232,228)"/>
<path d="M0 0 C5.43396226 0.60377358 5.43396226 0.60377358 7.875 2.3125 C9 4 9 4 9 8 C9.66 8.33 10.32 8.66 11 9 C11.33 9.99 11.66 10.98 12 12 C10.35 11.67 8.7 11.34 7 11 C6.67 9.68 6.34 8.36 6 7 C5.38125 6.95875 4.7625 6.9175 4.125 6.875 C3.42375 6.58625 2.7225 6.2975 2 6 C0.75 2.9375 0.75 2.9375 0 0 Z " fill="#024AAE" transform="translate(474,252)"/>
<path d="M0 0 C0.66 0.33 1.32 0.66 2 1 C2 4.3 2 7.6 2 11 C-3.75 12.125 -3.75 12.125 -6 11 C-4.54955729 6.89041233 -2.48889248 3.56741255 0 0 Z " fill="#0B4A9D" transform="translate(333,227)"/>
<path d="M0 0 C1.65 0 3.3 0 5 0 C7.125 6.625 7.125 6.625 6 10 C6.99 10 7.98 10 9 10 C8.67 11.65 8.34 13.3 8 15 C5.25722422 11.80009492 3.3697164 8.99500618 2 5 C2 5.66 2 6.32 2 7 C1.34 7 0.68 7 0 7 C0 4.69 0 2.38 0 0 Z " fill="#014AAF" transform="translate(307,244)"/>
<path d="M0 0 C2 1 2 1 2.8515625 3.28515625 C3.10679687 4.20167969 3.36203125 5.11820313 3.625 6.0625 C3.88539063 6.98160156 4.14578125 7.90070313 4.4140625 8.84765625 C4.60742188 9.55792969 4.80078125 10.26820313 5 11 C2.03 11 -0.94 11 -4 11 C-2.68 7.37 -1.36 3.74 0 0 Z " fill="#000203" transform="translate(358,241)"/>
<path d="M0 0 C0.66 0 1.32 0 2 0 C5.03605313 6.31499051 5.03605313 6.31499051 4.875 9.375 C4 11 4 11 1 12 C0.34 11.34 -0.32 10.68 -1 10 C-0.34 10 0.32 10 1 10 C0.67 9.34 0.34 8.68 0 8 C-0.99 8 -1.98 8 -3 8 C-1.125 1.125 -1.125 1.125 0 0 Z " fill="#0C438C" transform="translate(360,227)"/>
<path d="M0 0 C2.38224256 4.44685278 3.14021422 7.95228817 3 13 C2.67 11.68 2.34 10.36 2 9 C0.35 9 -1.3 9 -3 9 C-3 9.99 -3 10.98 -3 12 C-3.66 12 -4.32 12 -5 12 C-5.58305225 8.15185513 -4.7002883 6.23691365 -2.5 3.1875 C-1.67780256 2.11635945 -0.84795951 1.0508641 0 0 Z " fill="#A39260" transform="translate(85,237)"/>
<path d="M0 0 C2.97 0 5.94 0 9 0 C9 0.99 9 1.98 9 3 C9.99 3 10.98 3 12 3 C12 3.99 12 4.98 12 6 C6.76824163 6.38281159 3.62197306 5.21854707 -1 3 C-0.67 2.01 -0.34 1.02 0 0 Z " fill="#0548A1" transform="translate(48,209)"/>
<path d="M0 0 C0.33 1.32 0.66 2.64 1 4 C1.66 4.33 2.32 4.66 3 5 C2.67 6.98 2.34 8.96 2 11 C2.66 11.33 3.32 11.66 4 12 C-0.29 12 -4.58 12 -9 12 C-8.67 11.34 -8.34 10.68 -8 10 C-6.68 10 -5.36 10 -4 10 C-2.68 6.7 -1.36 3.4 0 0 Z " fill="#0E458F" transform="translate(348,253)"/>
<path d="M0 0 C7.59 0 15.18 0 23 0 C23 0.99 23 1.98 23 3 C21.18757948 3.02687279 19.37504767 3.04633715 17.5625 3.0625 C16.55316406 3.07410156 15.54382813 3.08570313 14.50390625 3.09765625 C12 3 12 3 11 2 C9.14712498 1.92773498 7.29166122 1.9161878 5.4375 1.9375 C4.42558594 1.94652344 3.41367188 1.95554688 2.37109375 1.96484375 C1.58863281 1.97644531 0.80617187 1.98804688 0 2 C0 1.34 0 0.68 0 0 Z " fill="#A3945E" transform="translate(209,228)"/>
<path d="M0 0 C0.66 0 1.32 0 2 0 C2.33 3.63 2.66 7.26 3 11 C2.01 11.33 1.02 11.66 0 12 C-0.28875 11.195625 -0.5775 10.39125 -0.875 9.5625 C-1.73262568 6.8673532 -1.73262568 6.8673532 -4 6 C-2.7260411 3.96166576 -1.38938077 1.96147874 0 0 Z " fill="#9F8C4E" transform="translate(92,223)"/>
<path d="M0 0 C0.33 0 0.66 0 1 0 C1.12375 1.423125 1.12375 1.423125 1.25 2.875 C1.4975 3.90625 1.745 4.9375 2 6 C3.32 6.66 4.64 7.32 6 8 C0.39 8 -5.22 8 -11 8 C-9.68 7.34 -8.36 6.68 -7 6 C-6.01 5.34 -5.02 4.68 -4 4 C-3.01 4 -2.02 4 -1 4 C-0.67 2.68 -0.34 1.36 0 0 Z " fill="#9C874E" transform="translate(202,257)"/>
<path d="M0 0 C0.66 0 1.32 0 2 0 C0.16080754 6.13064153 -2.454614 11.68192101 -6 17 C-7.1875 14.75 -7.1875 14.75 -8 12 C-6.6875 9.875 -6.6875 9.875 -5 8 C-4.67 7.01 -4.34 6.02 -4 5 C-3.01 5 -2.02 5 -1 5 C-0.67 3.35 -0.34 1.7 0 0 Z " fill="#9B8954" transform="translate(73,263)"/>
<path d="M0 0 C1.13583456 3.71727674 0.66670026 5.47051709 -1 9 C-0.34 9 0.32 9 1 9 C0.34 11.31 -0.32 13.62 -1 16 C-1.66 15.34 -2.32 14.68 -3 14 C-3.99 14.33 -4.98 14.66 -6 15 C-4.40109514 9.80355921 -2.25861997 4.93387858 0 0 Z " fill="#0F356A" transform="translate(356,235)"/>
<path d="M0 0 C1.0209375 0.433125 1.0209375 0.433125 2.0625 0.875 C5.32893093 2.12597355 8.62846123 3.07447955 12 4 C10 6 10 6 7.1796875 6.1953125 C6.08914062 6.17210937 4.99859375 6.14890625 3.875 6.125 C2.77929688 6.10695313 1.68359375 6.08890625 0.5546875 6.0703125 C-0.28835937 6.04710937 -1.13140625 6.02390625 -2 6 C-1.01 5.67 -0.02 5.34 1 5 C0.67 3.35 0.34 1.7 0 0 Z " fill="#8F8357" transform="translate(109,287)"/>
<path d="M0 0 C0.33 1.32 0.66 2.64 1 4 C0.34 4 -0.32 4 -1 4 C-1 6.31 -1 8.62 -1 11 C-0.34 11 0.32 11 1 11 C1 12.32 1 13.64 1 15 C-0.65 15 -2.3 15 -4 15 C-3.9131724 12.87422093 -3.8050049 10.74930419 -3.6875 8.625 C-3.62949219 7.44164062 -3.57148437 6.25828125 -3.51171875 5.0390625 C-3.34285156 4.03617187 -3.17398438 3.03328125 -3 2 C-2.01 1.34 -1.02 0.68 0 0 Z " fill="#A99358" transform="translate(43,262)"/>
<path d="M0 0 C0.33 0 0.66 0 1 0 C1 2.97 1 5.94 1 9 C1.99 9.33 2.98 9.66 4 10 C3.34 14.62 2.68 19.24 2 24 C1.67 24 1.34 24 1 24 C1 22.35 1 20.7 1 19 C0.34 19 -0.32 19 -1 19 C-1 18.01 -1 17.02 -1 16 C-0.34 16 0.32 16 1 16 C1.16687448 13.58354218 1.16687448 13.58354218 1 11 C0.34 10.34 -0.32 9.68 -1 9 C-0.9765625 6.8359375 -0.9765625 6.8359375 -0.625 4.375 C-0.51414063 3.55773437 -0.40328125 2.74046875 -0.2890625 1.8984375 C-0.19367188 1.27195313 -0.09828125 0.64546875 0 0 Z " fill="#9D8C59" transform="translate(164,235)"/>
<path d="M0 0 C3.24732932 1.62366466 3.70155136 4.75387839 5 8 C1.04 8 -2.92 8 -7 8 C-6.01 7.67 -5.02 7.34 -4 7 C-4 6.34 -4 5.68 -4 5 C-3.01 4.67 -2.02 4.34 -1 4 C-0.26676204 1.98491642 -0.26676204 1.98491642 0 0 Z " fill="#244E7C" transform="translate(59,265)"/>
<path d="M0 0 C0.33 0 0.66 0 1 0 C1.33 2.31 1.66 4.62 2 7 C2.99 7 3.98 7 5 7 C4.67 7.66 4.34 8.32 4 9 C3.77377919 10.70363822 3.59111527 12.41328701 3.4375 14.125 C3.35371094 15.03507813 3.26992188 15.94515625 3.18359375 16.8828125 C3.12300781 17.58148438 3.06242187 18.28015625 3 19 C2.67 19 2.34 19 2 19 C2 16.36 2 13.72 2 11 C1.34 11 0.68 11 0 11 C-0.33 11.99 -0.66 12.98 -1 14 C-0.67 9.38 -0.34 4.76 0 0 Z " fill="#124081" transform="translate(299,239)"/>
<path d="M0 0 C0.33 1.32 0.66 2.64 1 4 C2.32 4 3.64 4 5 4 C5 3.34 5 2.68 5 2 C5.99 2.33 6.98 2.66 8 3 C4.71195019 5.91227269 2.40114397 7.49701212 -2 8 C-2 7.34 -2 6.68 -2 6 C-2.66 5.67 -3.32 5.34 -4 5 C-4 4.34 -4 3.68 -4 3 C-3.01 2.67 -2.02 2.34 -1 2 C-0.67 1.34 -0.34 0.68 0 0 Z " fill="#8C7D4D" transform="translate(235,257)"/>
<path d="M0 0 C0.99 0.33 1.98 0.66 3 1 C3 1.99 3 2.98 3 4 C2.34 4 1.68 4 1 4 C1 5.32 1 6.64 1 8 C-0.32 8 -1.64 8 -3 8 C-3.1875 5.125 -3.1875 5.125 -3 2 C-2.01 1.34 -1.02 0.68 0 0 Z " fill="#0349AC" transform="translate(371,257)"/>
<path d="M0 0 C2.31 0 4.62 0 7 0 C7 2.64 7 5.28 7 8 C6.34 8 5.68 8 5 8 C4.7525 7.38125 4.505 6.7625 4.25 6.125 C2.79371361 3.64931313 1.62187494 3.04874998 -1 2 C-0.67 1.34 -0.34 0.68 0 0 Z " fill="#998A5A" transform="translate(268,228)"/>
<path d="M0 0 C2.97 0.495 2.97 0.495 6 1 C5.979375 2.051875 5.95875 3.10375 5.9375 4.1875 C5.98896802 7.32704904 6.26517187 9.96883396 7 13 C3.79864928 9.03642291 1.60997725 4.82993175 0 0 Z " fill="#A18F60" transform="translate(58,262)"/>
<path d="M0 0 C0.185625 0.9590625 0.185625 0.9590625 0.375 1.9375 C0.684375 2.9584375 0.684375 2.9584375 1 4 C1.66 4.33 2.32 4.66 3 5 C3 5.66 3 6.32 3 7 C2.34 7 1.68 7 1 7 C0.67 7.99 0.34 8.98 0 10 C-2 9 -2 9 -3 8 C-2.6875 4.5 -2.6875 4.5 -2 1 C-1.34 0.67 -0.68 0.34 0 0 Z " fill="#034BB0" transform="translate(366,243)"/>
<path d="M0 0 C0.33 0 0.66 0 1 0 C1.34833144 4.87664009 0.41685712 7.77050005 -2 12 C-2.66 11.67 -3.32 11.34 -4 11 C-4.4140625 8.93359375 -4.4140625 8.93359375 -4.625 6.4375 C-4.69976562 5.61121094 -4.77453125 4.78492188 -4.8515625 3.93359375 C-4.90054688 3.29550781 -4.94953125 2.65742188 -5 2 C-4.34 2 -3.68 2 -3 2 C-3 3.32 -3 4.64 -3 6 C-2.34 6 -1.68 6 -1 6 C-1.33 5.01 -1.66 4.02 -2 3 C-1.34 2.01 -0.68 1.02 0 0 Z " fill="#184A88" transform="translate(102,244)"/>
<path d="M0 0 C1.32 0.66 2.64 1.32 4 2 C4.1875 4.375 4.1875 4.375 4 7 C3.01 7.66 2.02 8.32 1 9 C-1.14809171 5.77786243 -1.29386153 4.72224599 -1 1 C-0.67 0.67 -0.34 0.34 0 0 Z " fill="#034CA8" transform="translate(328,237)"/>
<path d="M0 0 C0.33 0 0.66 0 1 0 C3.42857143 6.28571429 3.42857143 6.28571429 2 10 C1.38125 9.835 0.7625 9.67 0.125 9.5 C-1.96063386 8.92365356 -1.96063386 8.92365356 -4 9 C-2.94124926 5.59687262 -1.99097846 2.98646769 0 0 Z " fill="#0F3B7C" transform="translate(326,238)"/>
<path d="M0 0 C5.445 1.485 5.445 1.485 11 3 C10.67 3.66 10.34 4.32 10 5 C6.7 5 3.4 5 0 5 C0 3.35 0 1.7 0 0 Z " fill="#11448A" transform="translate(137,284)"/>
<path d="M0 0 C0.33 0 0.66 0 1 0 C1.33 2.31 1.66 4.62 2 7 C2.66 6.34 3.32 5.68 4 5 C4 6.32 4 7.64 4 9 C4.66 9.33 5.32 9.66 6 10 C2.37 10 -1.26 10 -5 10 C-3.68 9.01 -2.36 8.02 -1 7 C-0.18685089 3.39534252 -0.18685089 3.39534252 0 0 Z " fill="#15498A" transform="translate(297,255)"/>
<path d="M0 0 C0.99 0 1.98 0 3 0 C4.125 3.75 4.125 3.75 3 6 C3.66 6.66 4.32 7.32 5 8 C3.02 8.99 3.02 8.99 1 10 C1 8.68 1 7.36 1 6 C0.34 6 -0.32 6 -1 6 C-0.67 4.02 -0.34 2.04 0 0 Z " fill="#0248AC" transform="translate(404,251)"/>
<path d="M0 0 C3.96 0 7.92 0 12 0 C10.49336217 3.01327566 7.96833589 3.61056618 5 5 C5 3.68 5 2.36 5 1 C4.34 1 3.68 1 3 1 C3 1.99 3 2.98 3 4 C1 3 1 3 0 0 Z " fill="#17498A" transform="translate(406,228)"/>
<path d="M0 0 C1.60080151 4.00200378 0.29279692 7.04556236 -1 11 C-1.66 11 -2.32 11 -3 11 C-3 10.01 -3 9.02 -3 8 C-3.99 7.67 -4.98 7.34 -6 7 C-5.071875 6.1028125 -5.071875 6.1028125 -4.125 5.1875 C-1.86323046 2.99188856 -1.86323046 2.99188856 0 0 Z " fill="#1A4988" transform="translate(450,254)"/>
<path d="M0 0 C0.66 0.33 1.32 0.66 2 1 C3.14242743 5.68395246 3.08252495 10.21355271 3 15 C0.5705484 11.3558226 0.83820425 9.28758728 1 5 C0.01 5 -0.98 5 -2 5 C-1.34 3.35 -0.68 1.7 0 0 Z " fill="#29557C" transform="translate(84,247)"/>
<path d="M0 0 C0.66 0 1.32 0 2 0 C1.67 3.96 1.34 7.92 1 12 C0.01 10.68 -0.98 9.36 -2 8 C-1.67 7.34 -1.34 6.68 -1 6 C-2.65 6 -4.3 6 -6 6 C-4 4 -4 4 -1 3 C-0.67 2.01 -0.34 1.02 0 0 Z " fill="#13468C" transform="translate(444,241)"/>
<path d="M0 0 C0.33 0.66 0.66 1.32 1 2 C2.175625 2.4640625 2.175625 2.4640625 3.375 2.9375 C6 4 6 4 9 7 C5.7 6.67 2.4 6.34 -1 6 C-0.67 4.02 -0.34 2.04 0 0 Z " fill="#9F8A54" transform="translate(259,236)"/>
<path d="M0 0 C1.65 0 3.3 0 5 0 C5 2.31 5 4.62 5 7 C5.66 7.33 6.32 7.66 7 8 C6.01 8 5.02 8 4 8 C0 2.74285714 0 2.74285714 0 0 Z " fill="#0E4593" transform="translate(115,271)"/>
<path d="M0 0 C0.99 0 1.98 0 3 0 C3 2.97 3 5.94 3 9 C2.34 9 1.68 9 1 9 C1 7.68 1 6.36 1 5 C0.34 5 -0.32 5 -1 5 C-0.67 3.35 -0.34 1.7 0 0 Z " fill="#0449A6" transform="translate(82,252)"/>
<path d="M0 0 C1.27875 -0.061875 2.5575 -0.12375 3.875 -0.1875 C4.95394531 -0.23970703 4.95394531 -0.23970703 6.0546875 -0.29296875 C6.69664062 -0.19628906 7.33859375 -0.09960938 8 0 C8.66 0.99 9.32 1.98 10 3 C6.37 3 2.74 3 -1 3 C-0.67 2.01 -0.34 1.02 0 0 Z " fill="#134485" transform="translate(354,252)"/>
<path d="M0 0 C0.33 0 0.66 0 1 0 C1 2.64 1 5.28 1 8 C-0.32 8 -1.64 8 -3 8 C-2.45276317 4.62537285 -1.9451 2.91765 0 0 Z " fill="#07459B" transform="translate(399,242)"/>
<path d="M0 0 C0.3449145 1.33038449 0.67516582 2.66457061 1 4 C1.20625 4.845625 1.4125 5.69125 1.625 6.5625 C2 9 2 9 1 12 C-1.69461986 7.95807022 -1.23200889 5.7948504 -1 1 C-0.67 0.67 -0.34 0.34 0 0 Z " fill="#9E8E5C" transform="translate(254,232)"/>
<path d="M0 0 C0.66 0.99 1.32 1.98 2 3 C1.34 3 0.68 3 0 3 C0 4.65 0 6.3 0 8 C-0.99 8.33 -1.98 8.66 -3 9 C-3 9.66 -3 10.32 -3 11 C-3.66 11 -4.32 11 -5 11 C-3.55049545 7.2089881 -1.84827434 3.6125362 0 0 Z " fill="#10376D" transform="translate(109,225)"/>
<path d="M0 0 C1.32 1.32 2.64 2.64 4 4 C0.04 4 -3.92 4 -8 4 C-5.33333333 2.66666667 -2.66666667 1.33333333 0 0 Z " fill="#9B8953" transform="translate(164,261)"/>
<path d="M0 0 C1.37562854 1.28965176 2.70766393 2.62689293 4 4 C4 4.66 4 5.32 4 6 C0.625 6.125 0.625 6.125 -3 6 C-3.66 5.34 -4.32 4.68 -5 4 C-3.02 4 -1.04 4 1 4 C0.67 2.68 0.34 1.36 0 0 Z " fill="#0D4591" transform="translate(413,259)"/>
<path d="M0 0 C1.76462683 3.08809695 2 4.23312136 2 8 C1.34 8 0.68 8 0 8 C-0.99 5.69 -1.98 3.38 -3 1 C-2.01 0.67 -1.02 0.34 0 0 Z " fill="#335272" transform="translate(88,266)"/>
<path d="M0 0 C0.66 0.33 1.32 0.66 2 1 C2 1.99 2 2.98 2 4 C2.66 4 3.32 4 4 4 C4.33 5.32 4.66 6.64 5 8 C3.68 7.67 2.36 7.34 1 7 C1 6.01 1 5.02 1 4 C0.34 3.67 -0.32 3.34 -1 3 C-0.67 2.01 -0.34 1.02 0 0 Z " fill="#998A57" transform="translate(64,251)"/>
<path d="M0 0 C1.5625 1.1875 1.5625 1.1875 3 3 C2.6875 5.6875 2.6875 5.6875 2 8 C1.01 7.67 0.02 7.34 -1 7 C-1.04254356 5.00045254 -1.04080783 2.99958364 -1 1 C-0.67 0.67 -0.34 0.34 0 0 Z " fill="#AA974D" transform="translate(170,237)"/>
<path d="M0 0 C1 2 1 2 0.3125 5 C-1 8 -1 8 -3.125 9.375 C-3.74375 9.58125 -4.3625 9.7875 -5 10 C-3.66511872 6.40608886 -2.03977277 3.24509304 0 0 Z " fill="#0D356D" transform="translate(332,228)"/>
<path d="M0 0 C0.66 0.99 1.32 1.98 2 3 C1 4 1 4 -1.06640625 4.09765625 C-1.89011719 4.08605469 -2.71382813 4.07445312 -3.5625 4.0625 C-4.38878906 4.05347656 -5.21507812 4.04445313 -6.06640625 4.03515625 C-6.70449219 4.02355469 -7.34257812 4.01195312 -8 4 C-6.25 2.4375 -6.25 2.4375 -4 1 C-1.75 1.3125 -1.75 1.3125 0 2 C0 1.34 0 0.68 0 0 Z " fill="#0E4996" transform="translate(462,261)"/>
<path d="M0 0 C0.5775 0.61875 1.155 1.2375 1.75 1.875 C3.80249821 3.81347053 5.43366582 4.90014249 8 6 C5.36 6 2.72 6 0 6 C-1.24546405 3.50907189 -0.7767578 2.58919267 0 0 Z " fill="#11448D" transform="translate(375,259)"/>
<path d="M0 0 C0.33 0.99 0.66 1.98 1 3 C1.66 3 2.32 3 3 3 C2.34 4.65 1.68 6.3 1 8 C-0.32 6.68 -1.64 5.36 -3 4 C-2.34 4 -1.68 4 -1 4 C-0.67 2.68 -0.34 1.36 0 0 Z " fill="#0D438B" transform="translate(320,249)"/>
<path d="M0 0 C0.99 0 1.98 0 3 0 C3 0.99 3 1.98 3 3 C3.66 3 4.32 3 5 3 C4.67 4.98 4.34 6.96 4 9 C1.3144406 6.3144406 0.93950026 3.62378672 0 0 Z " fill="#0A4594" transform="translate(359,241)"/>
<path d="M0 0 C4 4.875 4 4.875 4 6 C2.35 6 0.7 6 -1 6 C-1 2 -1 2 0 0 Z " fill="#074498" transform="translate(308,238)"/>
<path d="M0 0 C-0.33 1.32 -0.66 2.64 -1 4 C-3.31 4 -5.62 4 -8 4 C-3.375 0 -3.375 0 0 0 Z " fill="#847446" transform="translate(40,274)"/>
<path d="M0 0 C1.35015859 4.05047576 0.62084998 6.7920168 0 11 C-0.33 11 -0.66 11 -1 11 C-1 9.35 -1 7.7 -1 6 C-1.66 6 -2.32 6 -3 6 C-3 5.01 -3 4.02 -3 3 C-2.34 3 -1.68 3 -1 3 C-0.67 2.01 -0.34 1.02 0 0 Z " fill="#927F4D" transform="translate(166,248)"/>
<path d="M0 0 C0.33 1.32 0.66 2.64 1 4 C0.01 4.33 -0.98 4.66 -2 5 C-3.21869929 7.50447516 -3.21869929 7.50447516 -4 10 C-4.33 9.34 -4.66 8.68 -5 8 C-4.00390625 6.0546875 -4.00390625 6.0546875 -2.5625 3.875 C-2.08941406 3.15054688 -1.61632812 2.42609375 -1.12890625 1.6796875 C-0.75636719 1.12539062 -0.38382812 0.57109375 0 0 Z " fill="#17488E" transform="translate(104,236)"/>
<path d="M0 0 C3.0390625 -0.29296875 3.0390625 -0.29296875 6.625 -0.1875 C7.81351563 -0.16042969 9.00203125 -0.13335937 10.2265625 -0.10546875 C11.14179687 -0.07066406 12.05703125 -0.03585938 13 0 C13 0.33 13 0.66 13 1 C12.25234375 1.06058594 11.5046875 1.12117187 10.734375 1.18359375 C9.74953125 1.26738281 8.7646875 1.35117188 7.75 1.4375 C6.28820312 1.55931641 6.28820312 1.55931641 4.796875 1.68359375 C2.43538247 1.95074584 0.28098935 2.35371968 -2 3 C-1.34 2.01 -0.68 1.02 0 0 Z " fill="#1F4A86" transform="translate(46,208)"/>
<path d="M0 0 C0.99 0.33 1.98 0.66 3 1 C3 1.66 3 2.32 3 3 C4.32 2.67 5.64 2.34 7 2 C5.515 4.475 5.515 4.475 4 7 C2.10786631 4.61426621 0.97608217 2.92824652 0 0 Z " fill="#1F4C81" transform="translate(73,244)"/>
<path d="M0 0 C2 1 2 1 4 3 C4 3.99 4 4.98 4 6 C4.66 6.33 5.32 6.66 6 7 C5.01 7.33 4.02 7.66 3 8 C0 3.375 0 3.375 0 0 Z " fill="#97854E" transform="translate(91,276)"/>
<path d="M0 0 C2.64 0 5.28 0 8 0 C7.01 0.495 7.01 0.495 6 1 C6 1.66 6 2.32 6 3 C3.5625 2.625 3.5625 2.625 1 2 C0.67 1.34 0.34 0.68 0 0 Z " fill="#A48E56" transform="translate(227,262)"/>
<path d="M0 0 C0.66 0 1.32 0 2 0 C2 1.32 2 2.64 2 4 C0.02 4.99 0.02 4.99 -2 6 C-2.33 5.01 -2.66 4.02 -3 3 C-2.34 3 -1.68 3 -1 3 C-0.67 2.01 -0.34 1.02 0 0 Z " fill="#AC9352" transform="translate(77,252)"/>
<path d="M0 0 C0.66 1.32 1.32 2.64 2 4 C1.34 4.66 0.68 5.32 0 6 C-1.32 4.68 -2.64 3.36 -4 2 C-2.68 1.34 -1.36 0.68 0 0 Z " fill="#9F8C4E" transform="translate(270,249)"/>
<path d="M0 0 C2.31 0 4.62 0 7 0 C7 0.99 7 1.98 7 3 C4.36 2.67 1.72 2.34 -1 2 C-0.67 1.34 -0.34 0.68 0 0 Z " fill="#0D4698" transform="translate(467,229)"/>
<path d="M0 0 C0.66 0 1.32 0 2 0 C2 1.65 2 3.3 2 5 C1.01 5 0.02 5 -1 5 C-1.33 5.66 -1.66 6.32 -2 7 C-2.66 6.67 -3.32 6.34 -4 6 C-2.7260411 3.96166576 -1.38938077 1.96147874 0 0 Z " fill="#897B55" transform="translate(92,223)"/>
<path d="M0 0 C2.31 0 4.62 0 7 0 C6.67 0.99 6.34 1.98 6 3 C3.03 2.505 3.03 2.505 0 2 C0 1.34 0 0.68 0 0 Z " fill="#B09454" transform="translate(31,219)"/>
<path d="M0 0 C0.99 0.33 1.98 0.66 3 1 C2.67 2.32 2.34 3.64 2 5 C0.68 5 -0.64 5 -2 5 C-1.34 3.35 -0.68 1.7 0 0 Z " fill="#173E75" transform="translate(116,214)"/>
</svg>
